{"glyphs":{"0":{"ha":1558,"x_min":20,"x_max":1538,"o":"m 953 1728 q 1200 1673 1048 1728 q 1476 1319 1386 1565 q 1524 1098 1524 1225 l 1538 1002 q 1494 689 1538 821 q 1432 457 1459 524 q 1391 339 1424 422 q 1303 125 1380 298 q 1206 -33 1206 -26 q 1181 -59 1197 -33 q 1026 -203 1074 -180 q 985 -232 1007 -225 q 849 -302 932 -274 q 673 -339 792 -339 q 643 -332 643 -339 l 635 -336 l 610 -332 l 610 -336 q 477 -298 520 -322 q 341 -239 389 -277 q 252 -159 330 -239 q 201 -103 240 -159 q 153 -37 175 -82 q 116 29 146 -37 q 64 170 92 52 q 39 262 57 187 q 43 265 39 265 q 24 372 31 360 q 28 376 24 376 l 24 394 l 24 424 l 20 460 l 24 460 q 20 471 20 468 q 28 564 22 564 l 31 564 l 31 568 l 28 574 q 31 578 31 574 l 28 578 q 35 589 31 589 q 31 593 35 593 q 105 859 83 820 q 102 862 102 859 q 131 925 106 862 q 197 1072 170 994 q 278 1216 212 1092 q 334 1301 320 1265 q 404 1389 342 1301 q 507 1499 449 1447 q 953 1728 711 1728 m 930 1636 l 1442 1127 l 1442 1131 q 1383 1223 1442 1181 q 964 1643 1221 1391 l 938 1643 q 930 1636 930 1642 m 1015 1643 q 1428 1231 1221 1433 q 1347 1352 1410 1295 q 1059 1632 1066 1632 l 1015 1643 m 853 1625 q 1453 1028 1433 1048 q 1421 1098 1453 1081 q 882 1636 1124 1399 q 853 1625 853 1634 m 787 1607 q 1015 1381 1005 1381 q 1074 1356 1019 1381 l 1074 1360 l 817 1614 l 812 1614 l 787 1607 m 1155 1592 l 1155 1588 l 1358 1389 q 1284 1492 1353 1426 q 1181 1573 1249 1540 q 1155 1592 1179 1582 m 728 1577 q 894 1415 884 1415 q 934 1407 926 1411 l 934 1411 l 753 1588 l 750 1588 q 728 1577 736 1577 m 676 1536 l 802 1415 l 838 1415 q 699 1555 838 1419 q 676 1536 676 1542 m 647 1518 q 628 1503 639 1503 l 628 1499 q 724 1404 631 1491 l 735 1404 l 753 1407 l 753 1411 q 647 1518 753 1415 m 599 1478 l 581 1455 q 650 1385 585 1455 l 680 1396 q 599 1478 680 1401 m 555 1433 q 536 1415 536 1418 q 588 1363 537 1409 l 614 1371 l 614 1374 q 555 1433 614 1379 m 511 1389 l 492 1367 q 529 1330 497 1367 q 555 1345 555 1339 q 511 1389 555 1350 m 452 1322 q 473 1301 452 1318 l 481 1301 q 499 1312 493 1312 q 470 1341 499 1316 q 452 1322 465 1341 m 127 627 l 131 619 l 131 612 q 123 578 131 602 l 127 578 q 116 534 121 534 l 120 527 l 120 494 l 116 475 l 120 475 q 116 471 120 471 q 123 442 116 465 l 116 438 l 120 431 l 120 427 q 116 412 120 419 q 134 295 125 344 q 138 288 134 288 l 134 280 q 160 188 157 214 q 164 184 164 188 l 164 180 q 160 177 164 177 q 319 -103 197 59 q 363 -147 331 -103 q 459 -195 397 -178 q 628 -225 584 -225 q 901 -170 809 -225 l 985 -103 q 1038 -59 1008 -94 q 1103 11 1051 -59 q 1192 140 1128 35 q 1247 250 1219 160 q 1299 424 1270 287 l 1306 435 l 1306 460 q 1314 494 1306 470 l 1310 494 q 1317 538 1313 500 q 1314 549 1314 545 l 1317 549 q 1314 553 1317 553 l 1317 571 l 1317 667 q 1321 707 1317 682 l 1317 715 q 1321 726 1321 722 l 1317 726 l 1321 733 l 1321 737 q 1317 741 1321 741 q 1321 744 1317 744 q 1306 814 1312 803 l 1306 840 q 1295 884 1298 884 l 1299 892 l 1299 903 q 1247 1046 1267 1013 q 1126 1216 1192 1163 q 1052 1271 1095 1233 q 979 1301 1034 1271 q 901 1312 918 1312 l 820 1312 q 684 1289 811 1312 q 606 1257 611 1263 q 433 1149 530 1220 l 323 1057 q 249 969 323 1049 q 190 862 220 922 q 127 627 168 832 m 1306 1124 q 1362 1028 1336 1053 l 1457 936 l 1457 972 q 1306 1124 1455 980 m 1358 984 l 1358 977 q 1373 928 1365 967 l 1450 854 q 1453 892 1450 859 l 1358 984 m 1380 873 l 1380 866 q 1439 777 1380 823 l 1442 814 l 1380 873 m 768 840 q 787 833 781 833 q 798 836 791 833 q 857 807 827 836 q 879 792 868 807 q 1011 623 947 762 q 1023 534 1012 567 q 1019 519 1019 528 l 1023 519 q 1008 464 1015 505 l 1011 464 q 953 328 953 336 q 831 229 881 231 q 673 184 831 210 l 628 199 l 628 195 q 566 221 619 195 q 477 302 538 221 q 444 387 463 306 l 448 394 q 429 497 429 437 q 448 568 440 524 q 444 571 444 568 q 455 604 451 571 q 540 741 480 666 q 739 836 651 817 q 743 833 743 836 q 768 840 749 833 m 1391 774 l 1391 770 q 1398 741 1398 757 l 1398 737 l 1395 730 l 1421 707 q 1428 741 1424 734 l 1391 774 m 728 718 q 717 678 728 717 l 717 582 q 750 553 736 553 q 897 593 777 553 l 897 604 q 768 718 838 718 l 728 718 m 576 615 l 562 589 l 831 324 q 846 350 831 332 q 713 475 720 475 q 617 553 646 500 l 610 571 q 614 582 614 578 l 576 615 m 543 560 q 532 530 543 544 l 772 295 q 802 306 802 297 l 543 560 m 846 486 q 897 435 846 481 q 905 468 897 437 q 871 494 879 494 l 846 486 m 525 490 l 522 453 l 702 276 l 735 276 l 735 280 q 525 490 650 370 m 772 471 q 864 380 772 467 q 879 406 864 387 q 802 475 808 475 q 772 471 798 475 m 543 383 l 543 380 q 640 283 578 308 l 643 283 l 643 288 l 543 383 z "},"1":{"ha":1378,"x_min":20,"x_max":1358,"o":"m 1299 1731 q 1314 1669 1314 1731 l 1314 1514 q 1317 1459 1314 1491 q 1314 1415 1314 1448 l 1314 1393 q 1310 1389 1314 1389 q 1314 1378 1314 1382 q 1317 1282 1314 1352 l 1314 1275 l 1317 1267 q 1314 1263 1317 1263 l 1317 1245 l 1317 1186 q 1321 1172 1317 1178 q 1317 1168 1321 1168 l 1321 1142 l 1321 1120 q 1317 1105 1321 1112 q 1321 1090 1321 1099 l 1321 1072 q 1317 1068 1321 1068 q 1329 918 1329 1027 l 1332 899 q 1329 880 1329 893 l 1329 859 q 1324 854 1329 854 l 1329 848 l 1324 821 l 1329 821 q 1324 818 1329 818 l 1354 471 l 1350 464 l 1358 398 q 1324 309 1336 357 q 1273 140 1303 259 l 1277 140 q 1196 -218 1252 62 l 1177 -218 q 1174 -221 1174 -218 q 1148 -210 1148 -216 q 1126 -218 1133 -218 l 1100 -214 l 1074 -218 l 1074 -214 l 1067 -218 l 1059 -218 q 871 -232 892 -218 l 871 -229 l 864 -232 q 849 -229 856 -232 l 842 -232 q 838 -229 838 -232 l 791 -236 q 787 -232 787 -236 q 687 -239 736 -239 l 687 -243 q 684 -239 684 -243 q 673 -243 680 -239 q 640 -239 652 -239 l 628 -247 l 621 -243 q 581 -251 606 -251 l 543 -251 l 543 -258 l 540 -258 q 522 -243 522 -248 l 522 -236 l 525 -218 l 522 -218 q 529 -192 529 -199 q 522 -184 522 -192 l 522 -170 l 525 -144 l 522 -144 l 525 -136 l 525 -129 q 522 -125 525 -125 l 525 -118 l 525 -115 l 522 -107 q 529 -100 529 -107 l 529 -66 q 532 -62 529 -62 l 529 -56 q 532 -44 532 -48 l 529 -44 q 540 -4 536 -33 l 536 -4 q 547 96 547 10 l 551 96 l 547 103 l 547 111 l 555 121 l 555 151 q 551 155 555 155 q 555 165 555 162 q 551 177 551 173 l 555 177 l 551 184 q 555 188 551 188 q 551 191 555 191 q 558 229 555 220 q 555 239 555 235 l 558 265 q 555 291 555 280 q 562 298 562 291 l 562 302 q 558 313 562 313 q 566 420 566 353 q 573 427 573 420 l 573 471 l 581 483 l 573 494 q 581 516 581 506 l 581 549 q 576 553 581 553 l 581 560 l 576 574 q 581 589 581 581 q 448 490 558 589 q 374 406 416 479 l 367 401 l 363 401 q 315 427 319 427 q 160 582 315 444 q 120 623 155 582 q 64 667 83 645 q 20 737 20 697 q 39 777 20 751 l 39 781 q 35 785 39 785 q 123 977 50 838 l 175 1090 q 330 1293 257 1183 q 492 1510 411 1390 q 595 1654 531 1552 q 632 1687 617 1687 q 640 1680 633 1680 l 643 1680 q 661 1684 655 1680 l 676 1680 q 842 1695 713 1680 l 842 1691 l 849 1695 q 1206 1725 1094 1703 q 1299 1731 1206 1731 m 1133 1636 q 1192 1577 1133 1631 q 1203 1607 1192 1579 q 1166 1643 1198 1607 l 1133 1636 m 1067 1625 l 1059 1625 l 1059 1621 q 1159 1522 1060 1616 q 1174 1548 1165 1522 q 1093 1628 1168 1548 l 1067 1625 m 975 1617 q 1129 1463 977 1610 l 1133 1463 q 1144 1489 1133 1470 q 1011 1621 1139 1489 q 975 1617 998 1617 m 890 1614 q 1070 1433 890 1609 l 1078 1433 q 1100 1440 1086 1440 q 923 1617 1097 1449 q 890 1614 903 1614 m 809 1607 q 989 1426 809 1601 l 1023 1426 l 1023 1430 q 842 1610 1023 1434 l 827 1610 l 809 1607 m 728 1599 q 912 1415 728 1594 l 949 1415 q 761 1603 943 1425 l 753 1603 l 728 1599 m 650 1595 l 650 1588 q 831 1407 650 1583 l 868 1407 q 680 1595 862 1418 l 650 1595 m 635 1551 q 625 1522 625 1527 l 743 1407 l 764 1407 q 768 1411 768 1407 l 776 1407 l 779 1407 q 635 1551 779 1412 m 1214 1503 q 1203 1474 1203 1485 l 1232 1448 q 1236 1466 1232 1460 q 1214 1503 1236 1489 m 610 1489 q 599 1459 599 1470 q 654 1404 604 1459 q 691 1407 673 1407 q 610 1489 691 1413 m 1181 1444 q 1170 1419 1181 1437 l 1232 1360 q 1236 1396 1232 1383 l 1185 1444 l 1181 1444 m 1170 1371 q 1166 1352 1170 1352 q 1236 1267 1166 1326 l 1232 1275 l 1232 1308 q 1170 1371 1232 1313 m 989 1326 l 989 1330 q 923 1319 979 1324 l 923 1322 l 916 1319 l 901 1319 q 861 1315 873 1319 l 743 1322 q 713 1319 728 1319 l 713 1322 l 706 1319 l 673 1319 q 669 1315 669 1319 l 661 1319 l 625 1319 l 581 1322 q 522 1249 529 1263 q 437 1139 512 1232 q 374 1050 390 1066 l 334 987 q 234 866 296 955 q 190 803 219 850 l 138 741 q 131 722 131 728 q 205 656 165 695 l 304 564 q 341 534 309 564 l 355 534 q 444 619 355 553 q 470 633 458 633 q 507 671 507 667 q 570 726 511 671 q 654 789 576 726 q 665 792 658 789 l 665 781 q 661 777 665 777 l 665 770 l 665 751 q 661 737 665 743 q 665 722 665 730 l 661 722 l 665 715 l 665 704 l 661 685 q 665 682 665 685 q 658 674 658 680 l 658 671 q 661 667 658 667 l 658 659 l 658 645 q 665 641 665 645 l 661 633 q 673 608 665 619 l 673 589 q 669 586 673 586 l 673 578 l 673 571 q 669 556 673 563 q 673 542 673 550 q 669 530 673 538 l 673 523 q 665 483 665 509 q 669 471 665 479 l 654 347 l 654 295 q 650 291 654 291 l 654 283 l 654 195 l 647 184 l 647 48 q 640 26 647 38 l 647 26 l 647 22 l 640 11 l 640 0 q 643 -4 640 -4 l 640 -11 l 640 -15 l 643 -22 q 635 -30 635 -23 l 635 -48 l 632 -85 q 635 -88 635 -85 q 625 -118 629 -88 l 628 -125 q 625 -129 628 -129 q 628 -147 628 -135 l 658 -147 q 768 -140 724 -147 l 776 -144 q 849 -129 830 -138 q 871 -136 861 -136 l 875 -136 l 901 -129 l 901 -133 q 982 -121 914 -126 q 985 -125 985 -121 l 1004 -121 l 1026 -121 q 1041 -125 1034 -121 q 1056 -121 1047 -121 l 1085 -121 q 1093 -115 1093 -121 l 1093 -56 q 1085 -26 1093 -39 q 1089 -11 1089 -20 q 1085 0 1089 -7 l 1089 7 l 1085 15 q 1089 29 1089 21 q 1085 33 1089 33 q 1089 37 1085 37 q 1082 74 1086 74 l 1085 100 l 1085 151 q 1078 159 1085 159 l 1082 173 l 1078 199 l 1082 199 l 1078 206 q 1082 217 1078 217 l 1078 236 l 1078 295 l 1074 313 l 1078 313 l 1074 321 l 1074 342 q 1078 357 1074 351 q 1074 368 1074 364 l 1078 368 q 1074 372 1078 372 q 1078 391 1074 385 q 1070 656 1070 544 q 1074 785 1070 689 q 1067 965 1067 876 l 1063 965 l 1067 972 l 1067 977 q 1063 980 1067 980 l 1067 987 l 1067 1076 q 1063 1080 1067 1080 l 1067 1087 l 1067 1231 q 1070 1245 1067 1239 q 1063 1286 1067 1253 l 1067 1286 q 1063 1289 1067 1289 l 1070 1326 l 1059 1334 l 1019 1334 q 989 1326 993 1326 m 1170 1282 l 1170 1245 q 1236 1179 1170 1240 l 1236 1216 q 1170 1282 1236 1221 m 1170 1194 l 1170 1186 q 1174 1164 1170 1183 q 1170 1153 1170 1157 l 1240 1087 l 1244 1087 l 1244 1095 l 1240 1120 q 1244 1124 1244 1120 l 1170 1194 m 1170 1105 q 1166 1083 1170 1088 q 1244 995 1166 1063 l 1244 998 q 1240 1002 1244 1002 q 1244 1006 1240 1006 q 1203 1072 1244 1045 q 1170 1105 1203 1077 m 1166 1021 q 1162 1006 1166 1006 q 1211 939 1162 977 q 1247 903 1211 935 l 1247 928 q 1166 1021 1247 949 m 1166 932 l 1170 925 l 1170 918 l 1166 892 l 1247 814 l 1247 818 q 1244 829 1247 822 l 1247 851 q 1166 932 1247 856 m 1170 840 l 1170 829 q 1225 748 1170 790 q 1251 722 1225 743 l 1247 730 l 1247 744 l 1251 763 l 1170 840 m 1174 748 l 1174 744 q 1177 730 1177 738 l 1174 730 q 1225 659 1174 700 q 1262 623 1225 654 q 1232 689 1251 689 q 1174 748 1232 694 m 1170 663 l 1170 659 l 1174 652 q 1170 648 1170 652 q 1177 641 1177 647 l 1170 641 q 1240 556 1170 615 q 1265 530 1240 551 l 1265 538 q 1225 608 1265 583 q 1170 663 1225 612 m 1177 568 l 1177 530 q 1270 438 1177 526 l 1270 453 q 1265 457 1270 457 l 1270 464 l 1270 475 q 1177 568 1270 480 m 1177 479 l 1177 460 q 1225 394 1177 430 q 1251 368 1225 389 q 1259 401 1259 396 l 1177 479 m 1177 387 l 1177 383 q 1181 380 1177 380 l 1177 372 l 1177 365 q 1229 302 1177 345 l 1236 328 l 1236 332 q 1181 387 1236 336 l 1177 387 m 1177 302 q 1185 291 1181 291 q 1181 288 1185 288 q 1211 232 1181 249 q 1218 265 1211 256 l 1177 302 m 1185 206 l 1185 170 q 1192 162 1186 162 q 1200 195 1200 190 l 1185 206 z "},"2":{"ha":1511,"x_min":20,"x_max":1491,"o":"m 706 1765 l 794 1765 q 1137 1651 917 1765 q 1306 1452 1306 1489 q 1369 1263 1326 1452 q 1373 1234 1373 1260 l 1373 1212 l 1376 1205 l 1373 1205 l 1380 1175 q 1376 1172 1380 1172 l 1380 1153 q 1295 810 1380 994 q 1240 659 1295 779 q 1225 627 1240 654 l 1232 623 l 1273 623 q 1321 619 1297 623 q 1435 630 1364 627 q 1472 627 1455 627 l 1491 586 q 1483 416 1483 478 l 1487 416 l 1483 409 l 1483 347 l 1487 321 l 1483 321 q 1487 309 1487 313 q 1491 199 1487 278 q 1461 62 1483 78 q 1373 -210 1461 47 q 1332 -291 1350 -291 l 1310 -288 q 1255 -295 1270 -295 q 1225 -291 1245 -295 q 1211 -295 1217 -291 q 1096 -291 1143 -291 l 1008 -291 l 985 -288 q 975 -291 979 -291 l 975 -288 l 967 -291 l 945 -291 q 941 -288 941 -291 l 934 -291 q 882 -288 914 -291 q 791 -295 795 -291 l 768 -291 l 739 -291 q 713 -298 713 -292 l 706 -295 l 691 -295 q 687 -298 687 -295 l 680 -295 l 654 -295 q 614 -298 639 -295 q 602 -295 606 -295 q 581 -302 591 -302 l 525 -302 l 517 -306 q 514 -302 517 -302 q 511 -306 514 -306 q 507 -302 511 -302 l 507 -306 l 499 -302 l 393 -302 q 389 -306 389 -302 q 378 -302 382 -302 l 370 -306 l 363 -302 q 319 -309 338 -309 l 290 -309 q 267 -317 279 -309 l 267 -313 q 35 -332 216 -332 l 24 -313 q 31 -254 31 -260 l 28 -247 l 31 -232 q 28 -203 31 -217 q 31 -111 31 -148 l 31 -44 q 35 -41 31 -41 q 31 -30 31 -33 q 35 11 35 3 l 31 11 l 35 18 l 35 22 q 31 26 35 26 q 35 37 35 33 q 31 48 31 44 l 35 48 l 31 55 l 31 111 q 35 125 31 119 q 31 140 31 132 l 31 177 q 35 191 31 185 q 31 203 31 199 l 35 203 l 31 210 l 39 221 l 39 247 q 123 420 39 273 q 138 460 138 454 q 79 571 103 490 q 50 656 61 587 l 43 667 l 46 674 l 35 707 q 39 711 39 707 q 20 789 32 711 l 24 807 l 24 810 q 20 862 24 831 q 24 873 24 869 q 20 899 20 888 l 28 913 q 24 928 24 920 q 31 936 31 928 q 28 939 31 939 l 31 947 q 28 951 31 951 q 50 1013 31 987 q 46 1017 50 1017 q 201 1389 50 1066 q 367 1607 233 1459 q 429 1669 373 1607 q 614 1746 534 1741 q 706 1765 666 1765 m 761 1684 q 1291 1153 960 1479 l 1295 1168 q 1247 1234 1295 1198 q 798 1680 808 1680 q 768 1684 783 1684 l 761 1684 m 680 1676 q 908 1452 898 1452 l 967 1426 l 967 1430 l 713 1680 l 706 1680 l 680 1676 m 606 1666 l 606 1662 q 794 1481 779 1481 q 827 1478 807 1481 q 635 1669 821 1488 q 606 1666 615 1666 m 864 1669 q 1291 1242 1038 1491 l 1291 1257 q 1221 1348 1291 1292 q 905 1658 920 1658 q 864 1669 870 1669 m 543 1636 l 699 1478 q 735 1481 699 1481 q 566 1651 735 1486 q 543 1636 543 1642 m 997 1625 l 997 1621 l 1259 1363 q 1177 1485 1236 1429 q 1041 1607 1057 1607 q 997 1625 1034 1607 m 488 1603 q 617 1474 490 1597 l 650 1478 q 511 1617 650 1482 l 507 1617 q 488 1603 488 1608 m 444 1558 q 543 1459 445 1553 l 573 1466 q 463 1577 573 1471 q 444 1558 453 1575 m 400 1510 q 473 1437 405 1510 q 503 1448 492 1448 l 422 1533 q 400 1510 411 1533 m 374 1489 l 359 1463 q 414 1415 408 1415 q 437 1430 437 1423 l 374 1489 m 319 1415 l 359 1378 q 381 1396 381 1391 l 337 1437 q 319 1415 324 1430 m 296 1389 l 282 1363 l 304 1345 q 326 1363 326 1358 l 296 1389 m 606 1385 l 581 1385 q 514 1363 566 1374 q 414 1308 454 1325 q 278 1201 348 1266 q 127 943 149 1045 q 109 892 122 921 l 109 833 q 113 829 109 829 l 109 821 l 109 770 q 153 564 109 722 q 238 623 165 578 q 352 685 279 652 q 470 748 355 692 q 477 759 470 759 q 459 833 459 825 l 459 895 q 488 980 466 939 q 602 1046 561 1043 q 606 1042 606 1046 l 625 1046 l 643 1046 q 746 984 708 1032 q 768 921 768 951 l 764 913 q 772 873 772 882 l 768 866 q 772 862 768 862 q 758 803 772 853 l 761 803 q 746 763 753 774 l 746 744 q 706 678 734 739 l 628 578 q 570 509 570 519 q 555 501 555 509 q 459 420 547 501 l 370 353 q 286 295 327 311 q 238 265 286 290 q 153 217 238 261 q 127 140 127 204 l 127 132 l 131 118 q 127 114 131 114 l 131 88 l 131 77 q 127 62 131 69 q 134 11 132 58 l 131 3 q 134 0 131 0 l 131 -18 l 131 -33 q 134 -48 131 -41 q 131 -62 131 -54 q 134 -66 131 -66 l 131 -74 l 131 -147 q 127 -151 131 -151 l 131 -159 l 131 -206 l 127 -225 l 134 -229 l 160 -229 q 492 -206 406 -206 l 543 -206 l 562 -203 l 562 -206 q 566 -203 566 -206 l 584 -206 q 632 -199 632 -205 l 640 -203 q 702 -195 702 -200 l 709 -199 l 717 -195 q 720 -199 717 -199 l 720 -195 l 728 -199 q 732 -195 732 -199 q 735 -199 735 -195 l 753 -195 l 768 -195 l 787 -199 l 787 -195 q 791 -199 791 -195 l 809 -195 l 820 -195 l 827 -199 l 827 -195 q 831 -199 831 -195 l 857 -195 l 1048 -195 l 1067 -199 q 1070 -195 1067 -195 q 1074 -199 1070 -199 q 1078 -195 1074 -195 q 1082 -199 1078 -199 q 1085 -195 1082 -195 q 1089 -199 1085 -199 l 1089 -195 l 1096 -199 l 1133 -199 q 1148 -195 1141 -199 q 1192 -203 1152 -199 q 1236 -192 1200 -197 l 1236 -184 q 1229 -136 1229 -151 l 1232 -118 q 1229 -100 1229 -112 q 1240 -22 1236 -93 q 1244 -11 1244 -22 l 1240 -11 l 1244 -4 l 1244 18 q 1259 125 1255 73 l 1262 125 q 1259 129 1262 129 l 1262 147 l 1262 203 q 1255 210 1262 210 l 1251 210 q 1221 203 1248 210 l 1185 203 q 953 180 1135 188 l 953 177 l 945 180 l 927 180 q 897 170 920 180 q 886 173 890 173 l 886 170 l 879 173 q 864 170 872 170 l 864 173 l 857 170 l 776 170 q 717 184 717 177 q 817 258 805 258 q 871 302 817 275 q 967 401 871 313 q 1011 442 980 422 q 1063 527 1018 470 q 1133 656 1108 604 l 1129 663 q 1188 903 1188 804 l 1188 939 q 1185 954 1188 948 l 1188 962 q 1144 1164 1188 1076 q 1067 1249 1144 1180 q 791 1378 1019 1317 q 787 1374 787 1378 q 680 1389 731 1385 q 640 1385 660 1385 q 628 1389 635 1385 l 606 1385 m 1229 1164 q 1284 1072 1252 1088 l 1288 1072 l 1288 1098 l 1291 1105 l 1229 1164 m 614 947 q 687 873 614 942 q 654 943 687 926 q 647 951 654 951 l 640 951 l 614 947 m 595 910 l 591 877 l 665 807 l 669 807 l 673 825 l 673 836 q 599 910 673 841 l 595 910 m 576 844 l 562 818 l 632 751 l 635 751 q 647 777 647 773 l 576 844 m 562 770 l 562 766 q 595 700 577 700 l 599 700 q 610 726 610 722 l 562 770 m 529 678 q 555 652 529 673 q 573 674 568 659 l 551 692 q 529 678 529 683 m 473 645 q 511 608 473 640 q 529 627 515 608 l 499 659 l 473 645 m 422 612 l 422 608 q 466 564 422 603 l 485 582 l 444 627 q 422 612 422 618 m 370 568 l 418 523 q 440 538 425 538 q 393 586 440 543 q 370 568 370 572 m 323 530 q 367 486 323 526 q 389 505 389 500 l 345 545 q 323 530 330 530 m 1196 542 q 1336 401 1196 536 l 1339 401 q 1347 431 1339 408 l 1232 542 l 1196 542 m 1284 542 q 1358 468 1284 536 q 1369 497 1358 471 l 1321 542 l 1284 542 m 1155 490 l 1310 339 l 1314 339 q 1321 368 1321 362 l 1174 512 l 1155 490 m 278 497 l 271 501 l 267 494 l 319 446 q 341 460 334 460 l 296 509 l 278 497 m 231 483 l 219 464 l 219 457 q 271 406 220 452 q 290 424 276 406 q 231 483 290 429 m 1137 460 l 1122 435 l 1265 295 l 1295 302 q 1137 460 1293 309 m 201 420 q 193 391 193 394 q 212 372 199 391 q 238 387 238 378 q 205 420 238 391 l 201 420 m 1082 391 l 1177 291 q 1214 295 1178 295 q 1103 406 1214 299 q 1082 391 1089 391 m 1398 376 l 1388 347 l 1409 328 q 1398 376 1406 376 m 1059 361 q 1044 347 1059 347 l 1044 339 q 1103 283 1093 283 l 1126 288 l 1133 283 l 1133 288 q 1059 361 1133 292 m 997 295 q 1023 276 1016 276 q 1052 280 1026 276 l 1023 313 q 997 295 1000 306 m 1373 313 q 1362 283 1362 295 l 1413 236 l 1413 243 l 1409 262 l 1413 262 q 1373 313 1413 281 m 1362 236 l 1358 199 l 1406 155 q 1409 191 1406 191 l 1362 236 m 1358 151 q 1354 114 1358 146 l 1388 85 l 1398 114 l 1358 151 m 1350 70 l 1347 52 l 1347 37 q 1365 18 1347 32 q 1373 48 1373 32 q 1350 70 1373 53 m 1339 -7 l 1339 -44 q 1347 -52 1341 -52 l 1358 -22 q 1339 -7 1356 -22 z "},"3":{"ha":1503,"x_min":20,"x_max":1483,"o":"m 827 1831 q 971 1790 939 1814 q 1174 1680 1029 1790 q 1284 1452 1284 1550 q 1295 1385 1295 1417 l 1295 1381 l 1291 1360 q 1295 1348 1295 1352 q 1277 1238 1295 1341 l 1280 1238 q 1221 1065 1259 1141 l 1221 1061 q 1424 918 1359 1017 q 1479 711 1479 795 l 1479 678 l 1483 656 q 1432 424 1466 476 q 1383 298 1432 418 q 1321 144 1383 288 q 1240 7 1270 43 q 1170 -88 1170 -85 q 1115 -133 1164 -88 q 967 -221 1036 -200 q 783 -273 834 -273 q 779 -277 783 -277 q 772 -273 772 -277 l 746 -277 l 647 -277 q 632 -273 638 -277 q 621 -277 625 -277 q 503 -251 613 -269 q 411 -221 503 -243 q 355 -192 410 -217 q 264 -129 311 -170 q 131 -26 200 -83 q 68 37 131 -19 q 20 103 20 87 l 28 114 q 24 144 24 134 q 149 380 90 238 q 208 545 178 485 l 374 685 q 414 718 414 712 l 414 748 q 426 848 414 774 q 422 859 422 854 q 477 939 447 881 l 477 943 q 393 880 468 943 q 349 833 381 880 q 282 748 316 803 q 245 704 274 748 q 241 692 241 704 l 234 692 q 186 803 205 724 q 120 1006 176 825 l 57 1172 l 57 1179 q 241 1481 57 1224 q 400 1628 269 1514 q 717 1809 553 1734 q 827 1831 763 1824 m 746 1702 q 916 1540 910 1540 q 1078 1404 966 1534 q 1133 1315 1093 1388 l 1188 1263 q 1196 1289 1190 1289 q 779 1713 1196 1295 q 746 1702 746 1710 m 835 1706 l 835 1702 l 1200 1341 l 1203 1378 q 875 1699 881 1699 q 835 1706 842 1703 m 676 1687 q 798 1566 677 1682 l 835 1566 q 706 1695 833 1571 q 676 1687 682 1687 m 949 1680 l 949 1676 l 1196 1433 q 1107 1558 1196 1488 q 1000 1658 1017 1658 q 949 1680 982 1669 m 640 1673 l 617 1654 l 709 1566 l 746 1566 q 640 1673 746 1571 m 558 1625 q 635 1548 563 1625 q 665 1558 656 1558 l 584 1643 q 558 1625 560 1634 m 503 1595 q 576 1522 503 1590 q 602 1533 595 1533 q 525 1607 536 1607 q 503 1595 508 1595 m 452 1558 l 514 1492 q 540 1503 530 1503 l 540 1507 q 473 1569 484 1569 q 452 1558 456 1558 m 422 1536 l 404 1514 l 459 1463 q 485 1474 475 1474 q 422 1536 485 1478 m 374 1496 q 355 1481 366 1481 l 355 1478 q 404 1430 355 1472 q 426 1444 426 1438 q 374 1496 426 1450 m 149 1116 q 201 1010 170 1099 q 223 943 207 1010 q 252 866 252 873 l 256 866 q 304 918 263 866 q 374 969 349 945 q 459 1024 400 994 q 543 1068 486 1050 q 632 1101 589 1101 q 724 1013 707 1101 l 724 1002 q 562 810 724 886 q 503 792 562 804 l 503 748 q 496 730 503 730 l 503 692 q 499 689 503 689 q 507 615 507 635 l 503 608 q 511 568 506 600 l 514 568 q 614 589 555 582 q 761 538 678 589 q 798 471 798 499 l 794 471 l 798 464 q 794 460 798 460 l 798 442 q 758 339 789 397 q 728 309 751 339 q 584 254 709 287 q 485 273 570 260 q 352 342 419 298 q 286 269 342 342 q 245 221 245 246 l 205 177 q 157 132 205 172 l 138 106 l 138 103 q 249 3 145 87 q 334 -56 255 -4 q 433 -115 334 -73 q 555 -159 444 -130 q 699 -188 636 -180 l 717 -184 l 735 -184 q 971 -111 880 -184 q 1089 -18 985 -111 q 1133 33 1101 3 q 1159 70 1133 39 q 1270 291 1189 109 q 1295 420 1295 383 l 1295 501 q 1280 553 1288 511 q 1211 659 1274 585 q 1078 748 1136 728 l 1008 777 l 971 792 l 971 818 q 1004 880 971 829 l 1052 972 q 1082 1105 1082 1103 l 1082 1164 q 1052 1275 1082 1240 q 1030 1304 1052 1289 q 964 1381 1005 1343 q 875 1440 964 1400 q 753 1466 864 1452 l 709 1463 l 702 1466 q 687 1463 696 1463 l 680 1466 q 444 1341 530 1420 q 349 1278 432 1341 q 300 1245 340 1278 q 190 1164 262 1229 q 149 1116 149 1139 m 308 1440 l 308 1437 q 352 1393 308 1432 q 374 1411 374 1406 l 330 1452 q 308 1440 313 1440 m 271 1389 l 271 1385 q 300 1356 271 1381 l 304 1356 q 323 1367 316 1367 l 323 1371 q 286 1407 323 1375 q 271 1389 281 1407 m 1159 1242 l 1159 1238 q 1174 1198 1164 1198 l 1181 1223 l 1159 1242 m 573 995 q 602 965 573 990 q 617 984 608 966 l 617 987 q 595 1010 617 993 q 573 995 573 1002 m 1192 991 q 1380 807 1376 809 q 1321 903 1380 856 q 1214 998 1235 998 l 1200 998 q 1192 991 1192 998 m 1177 958 l 1162 936 q 1391 707 1218 876 l 1391 744 q 1177 958 1299 842 m 1148 899 l 1133 877 q 1388 623 1270 735 l 1391 641 l 1391 656 q 1148 899 1254 798 m 1362 597 l 1362 593 q 1373 545 1373 580 q 1380 553 1380 545 l 1376 553 l 1380 560 l 1380 578 q 1362 597 1380 583 m 337 556 q 323 534 337 549 l 363 497 q 374 527 374 518 l 341 556 l 337 556 m 296 512 l 278 490 l 330 442 l 334 442 q 345 468 341 442 l 296 512 m 551 483 l 658 380 q 673 406 673 385 q 576 501 664 408 q 551 483 551 495 m 632 494 l 632 490 l 691 435 l 699 468 q 632 494 678 468 m 426 471 l 418 446 l 418 442 q 529 365 475 377 q 536 357 530 357 l 540 357 l 466 435 l 459 431 l 452 431 q 429 471 430 463 l 426 471 m 514 468 q 496 453 514 453 q 606 342 496 448 l 610 342 q 632 353 624 353 q 517 468 632 358 l 514 468 m 256 460 q 249 431 249 437 l 286 398 l 290 398 q 308 409 290 408 l 308 412 q 260 460 308 418 l 256 460 m 238 394 q 231 365 231 380 q 245 350 231 359 q 260 376 260 364 l 238 394 z "},"4":{"ha":1717,"x_min":20,"x_max":1697,"o":"m 1362 1757 q 1365 1754 1362 1754 l 1365 1757 q 1369 1754 1369 1757 l 1395 1757 l 1413 1757 q 1435 1706 1421 1757 l 1435 1691 q 1432 1687 1435 1687 l 1435 1680 l 1435 1676 q 1432 1673 1435 1673 q 1435 1669 1432 1669 q 1409 1459 1435 1664 q 1413 1448 1409 1455 q 1409 1389 1409 1411 l 1409 1381 q 1406 1378 1409 1378 q 1409 1367 1409 1371 q 1406 1345 1406 1348 l 1409 1337 q 1406 1326 1406 1331 l 1409 1326 l 1406 1319 l 1406 1257 q 1409 1242 1406 1248 q 1406 1227 1406 1235 l 1406 1208 q 1409 1198 1406 1198 l 1406 1179 l 1406 1127 q 1409 1113 1406 1119 q 1406 1098 1406 1106 l 1409 1080 l 1406 1080 l 1409 1072 l 1409 1046 q 1398 947 1409 1011 l 1409 947 q 1421 943 1421 947 q 1432 947 1424 943 q 1590 939 1518 939 l 1638 939 q 1678 943 1653 939 q 1697 936 1691 936 l 1697 928 l 1686 877 l 1689 859 q 1660 608 1689 836 q 1653 457 1660 595 q 1649 453 1649 457 l 1653 453 q 1630 424 1653 444 q 1550 262 1612 377 q 1450 41 1482 63 l 1439 41 q 1417 48 1427 48 l 1417 44 l 1409 48 q 1391 41 1391 48 l 1383 44 l 1365 41 q 1362 44 1365 44 q 1295 -129 1362 24 l 1262 -239 q 1211 -339 1226 -339 l 1166 -339 q 1133 -342 1153 -339 q 1129 -339 1129 -342 l 1111 -342 l 1085 -342 q 979 -339 1044 -342 q 975 -342 975 -339 l 956 -339 l 871 -339 q 838 -342 859 -339 l 831 -339 q 820 -342 824 -342 l 805 -336 l 783 -339 l 768 -336 q 743 -342 749 -342 q 732 -339 739 -342 q 691 -342 706 -342 l 676 -342 q 661 -350 667 -350 q 584 -354 597 -354 q 581 -350 584 -350 l 588 -332 l 584 -309 q 595 -277 591 -309 l 591 -277 l 595 -269 l 595 -262 q 591 -258 595 -258 q 606 -159 599 -249 q 621 -107 612 -159 q 625 -103 625 -107 q 621 -100 621 -103 l 625 -100 l 621 -92 l 625 -74 l 621 -74 l 625 -66 l 621 -59 q 628 -30 628 -45 l 628 -22 l 625 -15 q 566 -18 587 -18 q 311 -15 450 -18 q 219 -18 266 -18 l 212 -22 q 109 -15 192 -15 q 105 -11 105 -15 l 98 -15 l 68 -15 l 61 -11 q 57 -15 61 -15 q 28 -4 57 -7 l 24 3 q 31 15 28 15 l 20 62 l 24 62 l 20 70 l 20 77 q 24 140 20 97 q 20 144 20 140 l 24 144 l 20 151 q 28 173 28 163 l 28 177 q 31 291 28 223 q 28 302 28 298 q 31 306 31 302 l 28 306 q 31 317 31 313 l 28 335 q 31 361 31 350 l 28 361 l 31 368 l 31 376 q 28 391 31 384 l 31 398 l 28 412 q 35 457 35 438 l 35 464 q 28 471 35 471 q 39 519 35 495 l 35 527 q 57 600 38 600 q 157 730 157 722 l 326 932 q 429 1076 350 956 q 473 1142 433 1076 l 514 1208 q 614 1356 598 1322 q 724 1525 671 1416 q 791 1640 755 1565 q 868 1746 840 1715 q 905 1754 883 1746 l 930 1746 l 938 1750 l 956 1746 l 956 1750 l 964 1746 l 1038 1746 q 1056 1743 1050 1746 l 1078 1746 l 1129 1746 q 1362 1757 1185 1746 m 1262 1666 q 1306 1621 1262 1660 l 1310 1621 q 1317 1651 1310 1627 q 1299 1669 1312 1651 q 1262 1666 1280 1666 m 912 1662 l 1133 1437 l 1152 1440 l 1159 1440 l 1166 1437 l 1170 1444 q 949 1658 956 1658 l 923 1662 l 923 1658 l 916 1662 l 912 1662 m 1181 1658 q 1277 1563 1184 1650 q 1291 1588 1286 1563 l 1214 1662 q 1200 1658 1208 1658 l 1200 1662 q 1181 1658 1194 1658 m 1004 1658 q 1218 1444 1097 1561 q 1229 1474 1229 1465 q 1041 1654 1048 1654 q 1026 1658 1033 1654 l 1019 1654 q 1004 1658 1013 1658 m 1093 1658 q 1247 1503 1095 1651 l 1251 1503 q 1262 1529 1262 1525 l 1129 1658 l 1093 1658 m 882 1636 q 871 1614 882 1628 q 1059 1426 878 1603 q 1093 1430 1079 1430 q 886 1636 1042 1485 l 882 1636 m 849 1581 q 838 1555 849 1573 l 971 1426 l 1008 1426 q 853 1581 1005 1433 l 849 1581 m 820 1525 q 809 1496 809 1503 l 882 1426 l 920 1426 q 820 1525 920 1430 m 1310 1474 q 1299 1452 1310 1466 q 1324 1426 1299 1447 q 1329 1463 1324 1461 l 1314 1474 l 1310 1474 m 776 1440 q 798 1422 777 1440 l 805 1426 l 812 1422 q 823 1426 820 1426 q 835 1422 831 1422 q 791 1466 835 1428 q 776 1440 783 1466 m 1277 1422 q 1273 1393 1273 1396 q 1321 1341 1273 1383 l 1321 1378 q 1277 1422 1321 1383 m 1074 1334 l 1067 1337 q 1052 1334 1060 1334 l 1052 1337 l 1044 1334 q 967 1341 979 1341 l 960 1337 q 956 1341 956 1337 l 864 1334 q 779 1341 810 1341 q 758 1337 777 1341 q 728 1341 743 1341 q 654 1238 714 1341 q 551 1083 616 1187 q 414 884 452 933 l 393 859 q 330 785 361 825 q 296 744 322 785 q 260 704 260 707 q 146 564 203 620 q 120 512 146 556 q 113 486 120 486 l 116 479 q 113 468 113 472 q 116 464 116 468 q 113 460 113 464 q 120 453 120 459 l 120 450 q 113 427 120 439 q 120 416 120 427 l 116 409 q 120 398 120 401 q 113 391 113 397 l 113 365 q 116 361 113 361 l 113 353 l 113 332 l 116 313 l 113 313 l 116 306 l 116 302 q 113 298 116 298 l 116 291 l 113 283 q 120 276 120 283 q 116 254 116 257 l 120 239 q 116 236 120 236 l 120 217 l 120 206 q 113 191 113 197 l 116 177 q 113 162 113 170 l 116 162 q 113 151 113 155 q 116 140 116 144 l 113 140 l 116 132 l 113 125 q 116 114 116 118 l 113 114 l 116 106 l 113 100 l 138 92 q 142 96 138 96 l 142 92 l 149 96 l 160 96 l 168 92 l 168 96 q 172 92 172 96 q 182 96 176 92 q 241 85 197 96 l 260 85 q 264 88 264 85 l 271 85 l 293 88 q 311 85 299 85 q 319 92 313 92 l 396 92 q 426 85 422 85 l 477 85 q 492 88 486 85 q 507 85 498 85 q 595 81 543 85 q 599 85 599 81 q 702 77 647 77 l 706 70 l 713 74 q 728 62 728 68 q 713 -30 728 40 l 709 -30 l 713 -44 q 709 -74 709 -64 l 713 -74 l 709 -81 l 709 -115 q 694 -210 709 -133 l 699 -210 l 694 -218 q 699 -229 699 -224 l 735 -229 l 758 -232 q 768 -229 764 -229 l 768 -232 l 776 -229 l 835 -229 q 864 -236 850 -229 l 864 -232 l 871 -236 q 875 -232 875 -236 l 882 -236 q 897 -232 884 -236 l 905 -236 q 916 -232 911 -232 q 927 -236 923 -236 l 927 -232 l 934 -236 l 945 -229 l 967 -232 q 971 -229 971 -232 l 997 -232 l 1023 -232 q 1026 -236 1026 -232 q 1074 -229 1043 -229 l 1096 -229 l 1115 -225 q 1118 -229 1115 -229 l 1141 -214 l 1141 -166 q 1133 -107 1133 -112 l 1137 -107 l 1133 -100 q 1137 -96 1133 -96 q 1126 -48 1132 -48 l 1129 -41 q 1126 -26 1126 -34 q 1129 -22 1129 -26 l 1126 -22 l 1129 -15 l 1126 7 q 1133 15 1133 7 l 1133 22 q 1129 37 1133 31 l 1133 44 q 1122 77 1127 56 q 1129 85 1129 77 q 1126 88 1126 85 q 1137 121 1133 88 l 1144 125 l 1159 125 q 1174 121 1174 125 l 1200 125 l 1288 125 q 1291 129 1291 125 l 1299 125 q 1347 132 1332 132 l 1365 132 l 1383 243 l 1388 243 q 1383 247 1388 247 l 1388 265 l 1388 295 l 1395 295 l 1391 321 q 1402 357 1398 321 l 1398 357 q 1409 401 1404 370 l 1406 409 q 1409 412 1406 412 l 1406 420 q 1428 497 1424 467 l 1424 497 l 1428 505 l 1428 516 q 1424 519 1428 519 q 1432 542 1432 532 l 1432 545 l 1428 545 l 1421 542 q 1409 545 1413 545 q 1388 538 1397 538 l 1380 538 q 1369 549 1380 549 q 1339 538 1350 538 l 1332 542 l 1317 534 q 1314 538 1314 534 l 1295 534 l 1270 534 q 1265 530 1265 534 l 1259 534 q 1221 527 1227 527 q 1192 538 1221 533 l 1185 534 l 1126 534 q 1115 556 1118 534 q 1126 597 1118 581 q 1122 704 1122 663 l 1122 722 q 1133 751 1122 737 q 1129 763 1129 759 q 1133 766 1129 766 l 1129 781 q 1137 851 1133 851 q 1133 866 1133 857 q 1141 910 1133 873 l 1137 910 l 1141 918 l 1141 951 q 1144 954 1141 954 l 1141 962 q 1148 969 1141 969 l 1144 977 l 1144 987 l 1152 998 l 1152 1057 q 1159 1061 1159 1057 q 1152 1083 1152 1073 l 1152 1090 q 1155 1095 1152 1095 l 1152 1101 l 1159 1113 l 1159 1157 q 1162 1160 1159 1160 l 1159 1168 l 1159 1172 q 1166 1205 1159 1181 q 1162 1216 1162 1212 q 1166 1219 1166 1216 l 1162 1219 l 1166 1227 l 1166 1231 q 1162 1234 1166 1234 q 1170 1257 1170 1246 l 1170 1293 q 1177 1312 1171 1312 l 1174 1319 l 1174 1322 l 1177 1341 l 1170 1345 l 1144 1341 l 1144 1345 q 1074 1334 1134 1341 m 1270 1341 q 1262 1308 1265 1314 l 1321 1253 l 1321 1271 q 1270 1341 1321 1302 m 1262 1260 q 1259 1245 1262 1245 l 1262 1238 l 1262 1231 l 1259 1223 l 1321 1164 q 1324 1201 1321 1188 l 1262 1260 m 1255 1179 q 1251 1160 1255 1160 q 1324 1072 1251 1135 l 1324 1098 q 1255 1179 1324 1119 m 1247 1098 q 1244 1080 1247 1080 l 1247 1072 q 1244 1061 1244 1065 l 1321 987 q 1324 1024 1321 1023 l 1247 1098 m 1247 1010 q 1240 977 1244 984 l 1306 913 l 1310 913 l 1314 947 l 1247 1010 m 1232 936 l 1232 899 q 1277 854 1232 894 l 1288 884 l 1232 936 m 1354 869 l 1354 866 q 1520 700 1354 861 q 1535 726 1520 707 l 1388 869 l 1354 869 m 1439 869 q 1553 755 1440 864 l 1564 785 l 1476 869 l 1439 869 m 1527 869 q 1583 814 1527 865 q 1594 844 1594 839 l 1564 869 l 1527 869 m 1225 854 l 1225 818 q 1247 795 1225 812 q 1259 818 1247 804 l 1259 821 q 1225 854 1259 827 m 1332 833 q 1324 803 1324 806 l 1487 645 l 1491 645 q 1501 671 1491 652 l 1336 833 l 1332 833 m 761 825 l 764 825 q 772 803 764 815 l 768 803 q 779 741 779 751 l 776 718 q 779 689 779 704 l 779 674 q 776 671 779 671 q 779 659 779 663 q 772 604 778 604 l 776 597 l 776 582 q 772 578 776 578 l 776 571 l 776 556 q 772 553 776 553 l 776 545 l 776 542 q 764 505 776 528 l 761 505 q 661 497 671 497 l 654 501 q 606 494 650 497 l 599 497 q 584 494 592 494 q 581 497 584 497 q 573 490 581 490 l 558 490 q 511 501 551 497 l 499 519 q 522 564 522 549 q 658 726 608 650 q 694 763 691 763 q 761 825 701 764 m 1306 770 q 1299 744 1306 753 q 1402 641 1299 740 l 1439 641 q 1310 770 1438 647 l 1306 770 m 1277 711 q 1270 682 1270 685 l 1321 633 q 1343 641 1333 641 l 1347 641 l 1354 637 l 1354 641 l 1280 711 l 1277 711 m 1557 608 q 1542 586 1557 600 l 1579 553 l 1583 589 l 1560 608 l 1557 608 m 1527 549 l 1531 542 l 1531 534 l 1524 523 l 1524 519 q 1560 483 1524 515 q 1575 509 1575 503 l 1531 549 l 1527 549 m 1516 475 l 1516 471 q 1535 420 1526 420 q 1546 450 1535 425 l 1516 475 m 1218 29 q 1251 -4 1218 24 q 1262 11 1251 11 l 1262 22 q 1255 29 1262 29 l 1232 29 q 1229 26 1229 29 l 1221 29 l 1218 29 m 1214 -18 l 1214 -22 l 1218 -22 l 1214 -30 q 1225 -66 1217 -66 l 1229 -66 q 1236 -37 1236 -43 l 1214 -18 z "},"5":{"ha":1434,"x_min":20,"x_max":1413,"o":"m 1284 1772 q 1288 1769 1288 1772 l 1306 1772 l 1358 1772 q 1409 1750 1409 1772 q 1413 1731 1413 1744 l 1409 1699 l 1413 1680 q 1409 1607 1409 1639 l 1409 1569 q 1406 1566 1409 1566 q 1409 1563 1406 1563 q 1406 1555 1409 1555 l 1409 1518 l 1409 1459 q 1413 1315 1409 1396 q 1406 1223 1406 1275 q 1354 1124 1394 1223 q 1273 932 1343 1108 q 1244 884 1244 903 q 1391 597 1356 754 q 1409 512 1396 597 l 1406 512 q 1409 509 1406 509 l 1406 490 l 1406 468 q 1409 464 1406 464 l 1406 457 q 1409 446 1406 453 q 1336 140 1409 371 q 1218 -77 1295 40 q 1170 -144 1183 -111 q 1085 -225 1097 -223 q 985 -298 1085 -232 q 941 -336 985 -303 q 868 -368 921 -353 q 787 -391 868 -379 q 779 -394 787 -394 l 772 -391 l 764 -394 q 753 -387 753 -391 q 732 -394 741 -394 l 702 -394 l 702 -387 l 658 -391 l 654 -391 q 640 -387 646 -391 l 632 -391 q 595 -383 601 -383 l 588 -387 q 290 -298 393 -357 q 231 -273 288 -287 q 149 -199 231 -268 q 50 -92 149 -193 q 28 -48 50 -85 q 20 -11 20 -17 q 131 165 44 16 l 223 317 q 256 380 223 331 q 264 387 264 380 l 256 387 q 149 309 172 353 l 127 295 l 113 288 q 94 372 94 290 l 105 494 l 102 501 q 105 560 105 538 l 105 571 q 102 574 105 574 q 105 586 105 582 q 102 604 105 598 q 113 667 106 667 l 109 674 l 109 682 q 113 685 109 685 l 109 692 q 116 781 116 740 q 120 785 116 785 l 116 792 l 116 818 q 120 836 116 830 l 116 851 q 131 1050 116 1050 l 127 1057 q 131 1068 131 1065 q 123 1080 127 1080 l 127 1087 l 123 1101 q 127 1116 127 1108 q 123 1120 123 1116 q 131 1127 131 1120 q 127 1139 131 1131 q 131 1183 131 1164 l 127 1190 q 131 1205 131 1196 q 127 1208 127 1205 l 131 1208 l 127 1216 l 127 1219 l 131 1227 l 127 1227 q 131 1231 127 1231 q 127 1242 131 1234 l 131 1260 q 127 1326 127 1295 q 131 1330 127 1330 l 127 1337 l 127 1374 q 131 1378 127 1378 l 127 1385 l 127 1389 q 212 1529 127 1416 q 245 1584 245 1571 q 326 1717 260 1602 q 511 1735 363 1728 l 517 1731 l 540 1735 l 562 1735 l 570 1739 l 570 1735 l 576 1739 l 713 1739 q 717 1735 717 1739 l 724 1739 l 753 1739 q 882 1746 764 1739 l 901 1746 l 908 1750 l 908 1746 l 916 1750 q 1026 1754 1010 1754 l 1026 1757 q 1030 1754 1030 1757 q 1115 1765 1115 1759 q 1118 1761 1118 1765 l 1137 1765 l 1181 1765 q 1196 1769 1190 1765 l 1203 1765 l 1284 1772 m 1270 1687 l 1270 1684 l 1306 1651 l 1317 1680 l 1306 1687 l 1291 1687 q 1288 1684 1288 1687 l 1280 1687 l 1273 1684 q 1270 1687 1273 1687 m 1188 1680 q 1280 1588 1188 1675 q 1291 1610 1280 1596 l 1291 1614 q 1221 1684 1291 1619 l 1188 1680 m 1103 1676 q 1247 1533 1103 1672 q 1259 1563 1247 1535 q 1141 1680 1254 1563 q 1103 1676 1139 1676 m 1023 1669 l 1023 1666 q 1211 1481 1206 1483 l 1214 1481 q 1229 1503 1214 1489 l 1059 1669 l 1034 1669 l 1026 1666 q 1023 1669 1026 1669 m 941 1662 q 1162 1440 943 1656 l 1185 1440 l 1188 1455 q 971 1666 977 1666 q 941 1662 968 1666 m 857 1658 q 1085 1430 913 1598 l 1103 1430 l 1115 1437 q 1118 1433 1115 1433 l 1118 1437 l 894 1658 l 857 1658 m 776 1651 l 997 1426 q 1034 1430 1010 1430 q 805 1654 815 1654 q 776 1651 802 1654 m 602 1647 q 831 1419 659 1586 l 838 1422 l 846 1419 l 864 1422 q 635 1651 808 1482 l 621 1651 l 602 1647 m 687 1651 q 920 1419 746 1588 q 923 1422 923 1419 l 930 1419 l 953 1422 q 724 1651 897 1482 l 687 1651 m 514 1647 q 743 1422 732 1422 l 776 1422 q 551 1647 719 1483 l 514 1647 m 429 1643 q 650 1422 430 1638 l 661 1422 q 665 1426 665 1422 l 673 1422 l 676 1422 l 684 1426 q 687 1422 684 1422 l 687 1426 l 466 1643 l 429 1643 m 363 1617 l 566 1419 l 602 1419 q 381 1640 602 1423 l 374 1640 q 363 1617 363 1636 m 341 1588 q 330 1563 341 1581 l 481 1415 l 517 1415 q 345 1588 517 1420 l 341 1588 m 311 1533 l 296 1507 l 393 1415 l 429 1415 q 311 1533 429 1419 m 1303 1514 q 1291 1485 1291 1496 l 1329 1452 l 1329 1489 q 1303 1514 1329 1494 m 278 1478 q 264 1452 278 1470 l 304 1415 l 341 1415 q 278 1478 341 1419 m 1273 1455 q 1259 1430 1273 1448 l 1329 1363 l 1329 1400 q 1273 1455 1329 1404 m 1247 1393 l 1244 1378 l 1247 1371 l 1244 1363 q 1329 1275 1244 1354 l 1329 1312 q 1247 1393 1329 1316 m 1048 1326 l 1048 1330 l 1004 1319 l 997 1322 q 964 1319 977 1319 l 964 1322 l 956 1319 l 920 1319 l 897 1315 q 846 1322 892 1320 q 842 1319 842 1322 l 823 1322 l 758 1322 q 724 1319 744 1322 l 717 1322 l 702 1319 l 669 1322 q 595 1315 602 1315 q 581 1322 581 1318 q 547 1315 574 1319 l 547 1319 l 540 1315 l 532 1315 q 529 1319 529 1315 l 522 1315 l 466 1315 q 452 1312 458 1315 q 437 1315 445 1315 l 404 1315 q 400 1312 400 1315 q 396 1315 396 1312 l 370 1312 l 345 1312 l 323 1315 l 315 1312 q 264 1315 283 1315 l 223 1315 l 223 1304 q 227 1289 223 1296 q 223 1275 223 1283 l 227 1267 l 223 1267 l 227 1260 q 219 1212 223 1218 q 223 1179 223 1192 l 223 1157 q 219 1153 223 1153 l 223 1146 l 223 1142 q 219 1131 223 1131 l 223 1109 l 219 1057 l 223 1050 q 212 913 217 1030 l 208 913 l 212 906 q 208 903 212 903 l 212 895 l 212 877 q 208 873 212 873 l 212 866 q 208 862 212 862 l 212 854 l 212 848 q 208 844 212 844 l 212 836 l 212 829 q 208 825 212 825 l 212 818 l 212 781 l 208 774 l 212 774 l 208 766 l 208 763 q 190 571 208 668 l 190 560 q 193 556 190 556 l 190 549 l 190 519 q 182 490 182 494 l 186 490 l 179 450 q 182 435 182 443 q 179 424 179 427 q 219 446 191 433 q 363 512 219 460 q 525 545 435 545 l 599 545 q 669 509 621 545 q 717 372 717 433 q 680 221 717 271 q 570 136 595 136 l 562 140 q 511 132 536 140 q 485 140 496 140 l 485 136 q 367 195 404 153 q 319 224 346 195 q 290 232 307 232 q 219 129 271 210 q 134 -11 157 34 l 134 -18 q 271 -151 134 -49 q 411 -236 332 -197 q 595 -283 496 -267 l 628 -283 q 632 -288 632 -283 l 640 -283 l 676 -283 l 676 -291 l 713 -291 q 761 -280 718 -285 q 923 -206 858 -252 q 1078 -52 1046 -102 q 1170 114 1156 38 l 1181 140 l 1181 184 q 1188 203 1182 203 l 1185 210 q 1192 239 1185 214 l 1188 239 l 1192 247 l 1192 416 l 1170 538 q 1133 586 1162 564 q 1082 648 1089 641 q 1023 704 1082 658 q 805 792 960 751 l 787 789 l 787 792 q 783 789 783 792 l 764 792 l 753 792 q 566 763 642 792 l 566 759 l 555 759 q 473 715 540 759 l 473 711 q 459 733 469 711 l 466 751 q 463 763 463 759 l 466 763 q 463 766 466 766 l 466 785 q 455 859 459 806 q 459 910 459 882 l 455 910 l 459 918 l 459 984 q 522 1010 459 996 q 562 998 522 998 l 647 998 l 658 991 l 658 998 l 676 998 l 676 991 l 702 995 q 717 991 710 995 q 732 995 723 995 l 732 991 l 739 995 q 750 991 746 991 l 750 995 l 758 991 l 764 991 q 768 995 768 991 l 776 991 q 791 995 777 991 q 794 991 794 995 l 812 995 l 835 995 l 857 991 q 901 998 861 995 l 908 995 q 912 998 912 995 l 949 995 l 985 995 q 989 991 989 995 l 997 995 q 1011 987 1011 992 l 1019 991 l 1044 991 q 1144 987 1076 991 l 1152 1002 l 1148 1002 l 1152 1010 l 1152 1024 l 1144 1036 l 1144 1039 l 1148 1076 q 1144 1080 1144 1076 l 1148 1080 l 1144 1087 q 1148 1098 1148 1094 l 1144 1098 q 1148 1101 1144 1101 l 1144 1120 l 1144 1131 l 1148 1139 q 1144 1142 1144 1139 q 1152 1149 1152 1142 l 1148 1149 q 1155 1175 1152 1175 l 1152 1183 l 1152 1249 q 1155 1253 1152 1253 l 1152 1260 q 1155 1263 1152 1263 l 1152 1271 l 1159 1286 l 1155 1286 l 1159 1293 l 1159 1312 l 1152 1337 l 1129 1337 q 1048 1326 1093 1326 m 1244 1304 l 1244 1271 q 1299 1216 1244 1267 q 1310 1238 1299 1224 l 1310 1242 q 1247 1304 1310 1246 l 1244 1304 m 1244 1219 q 1236 1186 1244 1203 l 1273 1153 q 1284 1183 1284 1172 l 1244 1219 m 1232 1142 l 1232 1127 q 1236 1124 1232 1124 l 1232 1116 q 1247 1090 1242 1090 q 1259 1120 1259 1117 q 1232 1142 1234 1142 m 916 892 q 1004 840 926 867 l 1004 844 q 927 895 958 892 q 916 892 920 892 m 566 888 q 595 859 566 883 q 621 866 610 866 l 621 869 q 595 892 621 876 q 566 888 591 888 m 1011 888 l 1011 884 q 1321 574 1158 733 l 1321 582 q 1232 700 1321 625 q 1038 888 1053 888 l 1011 888 m 1100 884 q 1288 696 1106 874 l 1288 700 q 1255 759 1281 701 q 1137 884 1237 791 l 1100 884 m 1232 612 l 1232 600 q 1262 542 1242 589 l 1324 483 l 1329 483 q 1295 549 1329 531 q 1232 612 1295 553 m 1280 475 q 1310 409 1280 422 q 1317 401 1311 401 l 1321 427 l 1321 435 q 1280 475 1321 439 m 396 438 q 576 258 396 433 q 595 276 587 260 q 426 446 595 281 l 422 446 l 396 438 m 367 416 q 355 387 355 398 q 514 236 508 236 q 525 232 518 236 q 547 236 530 236 q 367 416 547 241 m 1291 376 l 1291 339 q 1303 328 1291 334 q 1310 361 1303 348 l 1291 376 m 337 357 q 334 347 337 353 q 411 276 405 290 q 426 265 416 276 l 429 265 q 337 357 429 271 m 573 350 l 573 347 l 610 313 l 617 317 q 595 347 614 347 l 595 342 l 573 350 z "},"6":{"ha":1467,"x_min":20,"x_max":1447,"o":"m 853 1798 l 853 1794 l 861 1798 l 879 1798 q 882 1794 882 1798 q 886 1798 886 1794 q 1089 1769 959 1798 q 1103 1761 1089 1761 l 1103 1765 q 1111 1754 1111 1765 l 1118 1757 l 1133 1743 l 1133 1746 q 1196 1713 1160 1737 l 1196 1710 l 1203 1713 l 1206 1713 q 1280 1651 1206 1706 q 1332 1599 1315 1599 q 1339 1584 1339 1593 l 1343 1584 q 1347 1588 1347 1584 q 1369 1563 1353 1588 l 1365 1555 q 1369 1492 1369 1512 q 1365 1470 1365 1473 l 1369 1470 l 1365 1463 l 1365 1419 q 1369 1415 1365 1415 q 1365 1411 1369 1411 l 1369 1393 l 1369 1352 q 1373 1301 1369 1332 q 1369 1289 1369 1293 l 1373 1289 q 1369 1286 1373 1286 q 1380 1194 1373 1221 q 1280 1010 1357 1163 q 1343 928 1280 994 q 1395 836 1343 920 q 1447 582 1447 720 q 1402 368 1424 412 q 1406 365 1406 368 q 1373 276 1399 365 l 1365 280 q 1362 273 1365 273 l 1365 265 l 1365 262 l 1358 262 l 1358 258 q 1362 254 1358 254 q 1336 210 1359 228 q 1303 136 1336 198 q 1247 11 1303 117 q 1203 -44 1203 -31 q 1044 -170 1128 -112 q 989 -199 1034 -170 q 728 -269 834 -269 q 717 -273 728 -273 l 717 -269 q 699 -277 699 -273 l 680 -273 l 661 -273 q 522 -247 602 -273 q 511 -251 514 -251 q 393 -206 471 -232 l 345 -177 l 275 -129 q 175 -7 189 -52 q 90 162 157 -3 l 87 162 l 90 170 q 35 350 57 237 l 20 486 q 24 490 20 490 l 20 509 l 20 549 q 24 553 20 553 q 20 556 24 556 l 24 593 l 24 630 q 35 711 24 711 q 31 715 35 715 q 46 785 31 739 q 50 807 46 802 q 46 818 46 814 q 54 825 54 818 l 46 836 q 54 844 54 836 l 50 844 q 90 969 75 897 q 201 1183 128 1063 q 219 1216 201 1192 q 249 1257 234 1243 q 260 1275 249 1266 l 256 1282 q 304 1396 304 1358 q 381 1503 311 1396 q 558 1710 408 1563 q 853 1798 739 1792 m 827 1717 q 1118 1433 1103 1433 q 1166 1415 1155 1415 q 864 1717 1024 1562 l 827 1717 m 920 1713 q 1188 1444 1073 1555 q 1206 1466 1202 1451 q 956 1713 960 1711 l 920 1713 m 772 1706 q 758 1699 772 1699 q 975 1485 965 1485 q 1019 1474 1004 1485 l 1019 1478 l 787 1706 q 776 1702 780 1702 q 772 1706 776 1706 m 1019 1702 q 1229 1492 1104 1613 q 1247 1514 1234 1492 q 1056 1699 1061 1699 l 1019 1702 m 694 1669 q 875 1496 869 1496 q 912 1489 886 1496 l 916 1489 q 720 1684 914 1495 q 694 1669 694 1675 m 635 1643 q 783 1496 637 1637 l 817 1496 l 817 1499 l 665 1654 q 635 1643 644 1643 m 1155 1654 l 1155 1651 l 1270 1540 l 1273 1558 q 1211 1610 1268 1558 l 1155 1654 m 588 1603 q 702 1489 589 1597 l 720 1489 q 732 1499 726 1489 l 606 1621 q 588 1603 602 1621 m 558 1581 q 543 1558 558 1577 q 625 1478 543 1554 q 658 1481 644 1481 q 558 1581 658 1486 m 517 1533 l 499 1510 l 555 1459 q 584 1470 584 1461 l 517 1533 m 459 1470 l 459 1466 q 496 1430 459 1461 l 499 1430 q 517 1448 499 1437 l 477 1485 q 459 1470 466 1470 m 1247 1422 q 1232 1404 1247 1404 l 1232 1400 q 1291 1341 1232 1396 l 1291 1356 l 1288 1363 l 1291 1363 l 1288 1371 q 1291 1381 1291 1378 l 1247 1422 m 673 1385 l 665 1389 q 606 1374 650 1379 q 499 1326 499 1343 l 492 1330 q 411 1271 461 1313 q 385 1249 394 1249 q 334 1194 348 1202 q 311 1157 334 1188 q 201 954 245 1065 q 149 795 190 913 l 153 789 q 123 656 142 766 l 127 648 q 120 612 125 612 q 123 608 120 608 l 120 589 l 120 549 q 123 545 120 545 l 120 538 l 120 501 q 116 497 120 497 l 120 490 l 120 450 q 131 376 127 376 q 127 372 131 372 q 142 283 127 364 l 138 283 q 146 254 146 270 l 146 239 q 168 180 162 239 q 193 121 184 165 l 231 44 q 389 -100 340 -83 q 525 -155 443 -131 q 536 -166 536 -159 l 540 -166 q 570 -159 543 -166 q 606 -170 570 -166 q 610 -173 606 -173 l 709 -173 q 713 -177 713 -173 l 720 -173 q 735 -177 722 -173 q 772 -170 766 -170 q 787 -173 779 -173 q 794 -166 788 -166 l 827 -166 q 871 -155 835 -159 q 938 -125 871 -149 q 964 -111 938 -117 q 1115 11 1042 -62 q 1192 129 1152 52 q 1211 177 1200 129 q 1251 283 1232 201 q 1255 317 1251 315 q 1251 332 1251 323 q 1259 361 1251 335 l 1259 365 l 1251 376 l 1255 383 l 1251 391 q 1255 401 1255 397 q 1251 406 1251 401 l 1255 406 l 1251 412 l 1251 431 q 1255 435 1251 435 q 1200 615 1230 557 q 1170 663 1195 615 q 1059 759 1086 759 q 930 810 1014 795 l 930 814 l 923 810 q 857 825 909 810 q 750 803 761 803 q 643 763 682 774 q 570 711 600 736 l 566 711 q 558 755 558 736 l 558 759 q 562 763 558 763 l 558 770 q 617 869 584 827 q 654 906 642 905 q 853 1017 715 969 l 861 1013 q 934 1028 868 1021 q 938 1031 934 1031 l 945 1028 l 964 1031 l 971 1028 q 1030 1036 987 1036 l 1030 1031 l 1038 1036 l 1048 1036 q 1052 1031 1052 1036 l 1059 1036 l 1067 1036 q 1096 1028 1093 1028 l 1122 1028 q 1118 1031 1122 1031 l 1122 1039 l 1122 1068 q 1118 1080 1122 1080 l 1122 1098 l 1122 1157 l 1115 1183 q 1122 1190 1122 1183 l 1122 1216 l 1126 1242 q 1115 1245 1122 1242 q 1122 1257 1118 1257 q 1118 1260 1122 1260 l 1122 1297 l 1122 1330 q 989 1381 1118 1337 q 831 1404 989 1385 q 673 1385 723 1396 m 1211 1371 q 1206 1360 1206 1363 q 1259 1286 1206 1324 q 1295 1249 1259 1281 l 1295 1257 q 1291 1271 1295 1265 q 1295 1286 1295 1278 q 1211 1371 1295 1291 m 1218 1275 l 1218 1238 q 1277 1179 1218 1234 q 1288 1208 1277 1182 l 1218 1275 m 1211 1194 l 1211 1190 q 1218 1183 1218 1189 l 1218 1149 q 1247 1120 1218 1145 q 1259 1142 1247 1128 l 1259 1146 q 1211 1194 1259 1151 m 901 936 q 1008 859 964 859 q 1030 844 1008 851 l 1030 848 q 927 943 933 943 q 901 936 916 936 m 982 943 l 1365 560 q 1369 597 1365 584 q 1023 936 1029 936 q 989 943 997 936 l 982 943 m 849 925 q 831 918 849 918 q 861 888 831 913 l 897 888 q 849 925 869 925 m 1089 925 q 1362 652 1209 800 l 1362 656 q 1314 737 1362 704 q 1141 906 1150 906 q 1137 903 1141 903 q 1096 925 1137 907 l 1089 925 m 1225 913 q 1214 895 1223 895 l 1214 888 q 1343 759 1215 882 l 1343 766 q 1295 848 1332 813 l 1225 913 m 1299 574 l 1299 571 q 1343 490 1319 509 l 1350 486 l 1362 516 l 1299 574 m 687 431 l 687 427 l 694 431 l 709 427 q 720 431 717 431 l 728 427 l 735 431 l 758 424 l 758 427 q 823 365 814 395 l 849 317 l 849 313 q 846 309 849 309 q 857 291 850 291 l 853 273 l 857 258 q 802 151 838 199 q 753 132 802 142 q 743 125 753 129 q 732 129 739 125 l 713 125 q 606 180 671 131 q 566 269 566 241 l 566 291 q 625 406 566 351 q 687 431 663 429 m 706 350 l 702 335 l 761 280 l 764 313 l 739 339 l 720 339 q 713 350 720 350 l 706 350 m 673 317 l 661 288 l 724 229 l 732 229 q 743 247 732 235 q 673 317 743 252 z "},"7":{"ha":1481,"x_min":20,"x_max":1461,"o":"m 1453 1769 l 1457 1761 l 1450 1743 q 1461 1731 1455 1743 l 1461 1691 l 1457 1684 l 1461 1684 l 1457 1676 l 1457 1632 l 1461 1625 l 1457 1625 l 1461 1617 l 1461 1584 q 1457 1569 1461 1576 l 1461 1563 q 1453 1474 1453 1511 l 1457 1474 l 1453 1466 l 1453 1459 q 1457 1455 1453 1455 l 1453 1448 l 1453 1433 q 1457 1415 1453 1421 q 1450 1371 1453 1380 l 1453 1352 q 1447 1308 1453 1343 l 1450 1308 q 1417 1227 1450 1301 q 1373 1131 1394 1168 l 1369 1131 q 1373 1127 1369 1127 q 1265 925 1298 925 q 1229 884 1265 920 q 1152 781 1202 852 q 1078 671 1110 710 q 967 453 1078 657 q 846 165 863 222 q 812 62 846 154 q 768 -129 794 16 q 764 -133 764 -129 l 764 -136 q 768 -140 764 -140 q 694 -214 747 -214 l 647 -214 l 635 -221 l 576 -221 q 562 -218 568 -221 q 547 -221 555 -221 l 547 -218 q 517 -225 534 -225 l 511 -225 q 499 -221 499 -225 q 400 -229 490 -225 l 393 -225 q 378 -229 386 -229 l 341 -225 q 275 -236 292 -236 l 271 -236 q 267 -232 267 -236 l 190 -247 q 142 -243 144 -243 l 142 -247 l 134 -243 l 127 -247 q 113 -243 121 -243 l 113 -225 q 116 -192 113 -212 q 113 -173 113 -186 q 153 -30 138 -107 l 205 129 q 241 221 226 196 q 286 347 241 234 q 359 505 318 401 q 400 597 369 519 q 444 685 409 600 q 492 766 451 686 q 529 818 504 768 q 573 892 573 888 l 573 895 q 562 899 562 895 q 514 888 514 895 l 496 892 l 488 892 l 466 888 q 455 892 459 892 l 455 888 q 452 892 452 888 l 426 888 q 286 880 351 888 l 252 888 q 238 884 246 884 l 238 888 q 234 884 234 888 q 153 888 179 888 l 90 888 l 79 895 l 75 895 l 54 892 q 35 895 47 895 l 35 918 q 46 987 35 938 l 46 1105 l 50 1127 q 43 1208 47 1133 q 46 1227 46 1215 q 43 1242 43 1234 l 46 1242 q 43 1253 43 1249 l 46 1260 q 39 1282 39 1272 l 39 1301 q 43 1315 39 1309 l 20 1437 l 24 1455 q 20 1466 20 1462 q 87 1525 37 1466 q 286 1731 140 1571 q 584 1743 286 1739 l 602 1739 q 632 1743 616 1743 l 661 1743 l 669 1739 q 680 1746 669 1746 q 787 1754 720 1746 l 794 1750 q 1026 1769 936 1769 q 1310 1761 1204 1769 q 1453 1769 1330 1769 m 982 1687 q 1170 1499 988 1677 q 1200 1503 1190 1503 l 1200 1507 q 1019 1687 1200 1512 l 982 1687 m 1070 1687 q 1221 1536 1073 1681 q 1240 1558 1235 1544 l 1107 1687 l 1070 1687 m 1159 1687 l 1159 1684 l 1262 1584 l 1277 1610 l 1200 1684 l 1166 1684 l 1159 1687 m 901 1680 q 1093 1489 907 1670 q 1122 1496 1103 1496 q 930 1684 941 1684 q 901 1680 927 1684 m 1251 1684 q 1299 1636 1251 1678 q 1317 1658 1303 1636 l 1288 1684 l 1251 1684 m 817 1676 q 1004 1489 822 1666 l 1041 1489 q 853 1676 1035 1499 l 817 1676 m 735 1669 q 916 1489 735 1664 l 953 1489 l 772 1673 l 753 1669 q 750 1673 750 1669 q 735 1669 743 1669 m 654 1662 q 835 1481 654 1657 l 842 1481 q 864 1489 850 1489 q 680 1666 696 1666 l 673 1666 l 654 1662 m 393 1658 l 393 1654 q 570 1485 564 1485 l 591 1481 q 602 1485 599 1485 l 433 1658 l 414 1654 l 400 1654 l 393 1658 m 481 1658 q 654 1485 481 1653 l 673 1485 q 676 1489 676 1485 l 684 1485 l 691 1485 q 517 1658 691 1490 l 481 1658 m 570 1658 q 746 1481 572 1650 q 776 1489 746 1489 q 606 1658 776 1493 l 570 1658 m 311 1647 q 481 1485 475 1485 q 511 1481 495 1481 l 514 1481 l 514 1485 q 345 1654 514 1490 l 319 1654 q 311 1647 311 1653 m 278 1628 q 264 1607 278 1621 q 393 1478 269 1605 q 429 1481 393 1481 q 282 1628 428 1487 l 278 1628 m 1354 1614 q 1343 1595 1354 1607 l 1343 1592 q 1380 1555 1343 1587 l 1383 1563 l 1383 1569 q 1380 1573 1383 1573 l 1383 1581 l 1383 1588 q 1358 1614 1383 1594 l 1354 1614 m 241 1581 l 223 1558 q 304 1478 228 1558 q 341 1481 317 1481 q 241 1581 341 1486 m 1317 1563 q 1306 1544 1317 1556 l 1306 1540 q 1383 1463 1306 1535 l 1383 1481 q 1336 1548 1383 1512 q 1321 1563 1336 1553 l 1317 1563 m 197 1536 q 182 1514 197 1531 q 223 1474 182 1509 l 231 1474 q 234 1478 234 1474 l 241 1474 l 260 1474 q 197 1536 260 1478 m 1284 1507 q 1277 1492 1284 1492 q 1380 1378 1277 1472 q 1383 1396 1380 1390 l 1380 1404 q 1383 1415 1383 1411 l 1288 1507 l 1284 1507 m 1280 1426 l 1277 1389 l 1362 1308 q 1373 1337 1373 1329 l 1280 1426 m 1070 1396 q 1067 1400 1067 1396 l 1048 1396 l 1019 1396 q 982 1393 1002 1396 l 967 1396 q 920 1389 925 1393 q 905 1393 913 1393 q 823 1385 840 1385 l 761 1385 q 758 1389 758 1385 l 750 1385 q 735 1389 742 1385 q 732 1385 732 1389 l 713 1389 q 647 1385 707 1389 l 610 1389 q 599 1385 603 1385 q 588 1389 591 1389 l 573 1385 q 547 1389 558 1389 l 540 1385 q 536 1389 536 1385 l 511 1385 l 448 1385 q 433 1381 439 1385 q 418 1385 427 1385 q 414 1381 414 1385 l 407 1385 l 374 1385 l 352 1381 q 337 1385 345 1385 q 275 1374 292 1374 q 271 1378 271 1374 l 264 1374 l 256 1378 l 249 1374 q 234 1378 242 1378 l 227 1374 l 227 1378 l 219 1374 q 208 1378 212 1378 q 205 1374 208 1374 l 205 1378 l 197 1374 l 182 1374 q 168 1378 174 1374 l 142 1371 l 134 1374 q 123 1371 127 1371 l 123 1352 q 127 1348 123 1348 l 123 1341 l 123 1326 l 131 1326 l 131 1297 q 127 1293 131 1293 l 131 1286 l 131 1223 q 134 1219 131 1219 l 131 1212 l 131 1198 l 134 1190 q 131 1186 131 1190 l 138 1183 l 134 1175 q 142 1153 137 1153 l 138 1146 q 146 1113 146 1133 q 138 1095 146 1095 q 146 1054 146 1080 q 142 1017 146 1036 q 146 984 146 1003 q 201 980 182 980 l 212 980 q 216 984 216 980 l 223 980 l 267 980 q 319 977 288 980 q 330 980 326 980 q 334 977 334 980 l 352 980 l 370 980 q 385 977 378 980 q 400 980 391 980 q 404 977 404 980 l 411 980 q 414 977 414 980 l 433 980 l 440 980 q 455 977 455 980 l 481 980 l 647 980 l 669 984 q 709 969 709 979 l 658 880 q 661 877 661 880 q 640 840 653 876 l 643 840 q 588 741 621 786 l 543 663 q 452 475 452 492 q 426 424 431 450 l 367 295 q 323 170 331 217 q 260 0 298 128 l 256 0 l 256 -30 q 227 -118 245 -31 l 231 -125 q 227 -140 227 -132 l 234 -140 q 352 -129 315 -129 l 463 -129 q 466 -125 466 -129 l 473 -129 l 503 -129 l 514 -121 l 517 -121 q 522 -125 522 -121 l 529 -121 q 532 -125 532 -121 l 540 -121 l 555 -121 q 570 -125 563 -121 l 576 -121 l 602 -125 l 621 -121 l 621 -125 q 680 -96 680 -125 q 713 55 702 32 l 709 55 q 779 265 753 177 q 842 406 810 342 q 993 707 904 562 q 1118 903 1069 841 q 1177 972 1175 972 l 1177 977 q 1170 998 1170 988 q 1174 1010 1170 1002 l 1170 1017 q 1177 1039 1177 1029 l 1177 1080 l 1181 1105 l 1177 1105 l 1181 1113 q 1177 1124 1177 1120 q 1181 1135 1181 1131 l 1177 1135 l 1181 1142 l 1181 1157 q 1177 1160 1181 1160 l 1181 1168 q 1177 1172 1181 1172 l 1181 1179 q 1177 1194 1177 1185 l 1181 1194 l 1177 1201 l 1181 1208 q 1177 1212 1181 1212 l 1181 1231 l 1181 1249 q 1177 1253 1181 1253 q 1185 1282 1185 1266 l 1185 1319 q 1188 1322 1185 1322 l 1185 1330 q 1188 1334 1185 1334 l 1185 1341 l 1185 1367 q 1188 1371 1185 1371 q 1181 1385 1185 1385 l 1185 1393 l 1185 1404 q 1170 1407 1170 1404 l 1152 1404 l 1141 1404 q 1107 1407 1127 1404 q 1070 1396 1076 1396 m 1270 1345 l 1270 1330 q 1273 1326 1270 1326 l 1270 1319 l 1273 1312 q 1270 1308 1270 1312 l 1336 1245 l 1339 1245 q 1347 1275 1339 1255 l 1273 1345 l 1270 1345 m 1270 1257 l 1270 1223 q 1310 1183 1270 1218 q 1321 1212 1321 1201 l 1273 1257 l 1270 1257 m 1270 1168 l 1270 1135 q 1288 1116 1270 1130 l 1295 1149 l 1273 1168 l 1270 1168 z "},"8":{"ha":1544,"x_min":20,"x_max":1524,"o":"m 831 1816 l 838 1813 q 871 1816 859 1816 q 875 1813 875 1816 q 879 1816 879 1813 q 1074 1765 1026 1792 q 1177 1702 1145 1727 q 1336 1525 1319 1579 q 1383 1356 1350 1505 q 1395 1263 1395 1293 q 1373 1080 1395 1219 l 1365 1083 l 1369 1076 q 1362 1065 1365 1065 q 1365 1061 1362 1061 q 1321 939 1353 984 q 1291 880 1314 939 q 1417 770 1417 802 l 1424 774 q 1472 692 1458 728 l 1476 692 l 1476 671 l 1498 630 l 1498 623 l 1494 615 q 1520 512 1506 615 q 1516 509 1520 509 l 1524 460 q 1516 398 1519 405 q 1520 394 1516 394 q 1509 332 1514 332 l 1512 324 q 1483 224 1483 248 q 1442 155 1463 200 l 1398 92 l 1376 62 l 1373 62 l 1376 55 q 1350 22 1355 22 q 1332 -4 1344 22 q 1303 -48 1315 -21 q 1262 -100 1295 -48 q 1214 -155 1254 -100 q 1181 -184 1204 -155 q 1129 -214 1141 -214 q 997 -306 1129 -240 l 975 -306 q 901 -328 975 -316 q 728 -368 883 -338 q 650 -383 728 -376 l 650 -387 l 643 -383 l 632 -383 l 610 -387 l 602 -383 q 591 -387 595 -387 l 584 -383 q 581 -387 581 -383 q 400 -347 516 -387 q 275 -269 328 -318 q 134 -115 199 -204 q 75 -4 107 -88 q 31 118 47 28 l 35 118 l 20 159 q 24 206 24 190 l 20 206 l 24 214 l 24 221 q 20 224 24 224 l 24 232 q 20 243 20 239 l 24 243 l 20 250 q 43 328 35 279 q 39 339 39 335 q 46 347 46 339 q 43 361 46 355 q 134 556 71 448 l 175 615 q 205 656 183 621 q 208 659 208 656 l 208 671 q 164 759 194 671 q 146 807 153 759 q 134 825 143 807 l 134 833 q 138 836 134 836 l 127 873 l 131 873 l 123 888 q 127 899 123 892 q 123 921 123 918 l 127 939 q 120 1002 120 993 l 131 1042 l 127 1050 q 146 1131 142 1090 q 142 1135 142 1131 q 153 1168 149 1135 q 201 1267 189 1231 l 197 1267 q 264 1381 264 1370 q 429 1566 267 1407 q 473 1603 473 1596 q 555 1666 522 1647 q 584 1687 555 1678 q 650 1739 584 1699 q 794 1805 705 1780 q 831 1816 831 1813 m 842 1725 q 1306 1260 1077 1485 q 1310 1278 1306 1272 q 1229 1374 1310 1305 q 868 1731 878 1731 l 861 1731 q 842 1725 848 1725 m 927 1728 q 1299 1356 1112 1537 q 1240 1455 1295 1403 q 971 1717 978 1716 q 938 1731 941 1725 q 927 1728 930 1728 m 776 1702 q 1299 1179 981 1493 q 1303 1194 1299 1194 l 1299 1201 q 1303 1216 1303 1208 l 802 1713 q 776 1702 776 1710 m 717 1676 l 717 1673 q 908 1489 893 1489 q 960 1466 915 1489 l 743 1687 q 717 1676 724 1676 m 1074 1669 l 1074 1666 l 1251 1492 l 1251 1496 q 1074 1669 1145 1626 m 658 1643 q 772 1536 757 1536 l 812 1525 l 684 1658 q 658 1643 658 1649 m 606 1610 l 606 1607 q 673 1540 606 1602 l 709 1540 q 628 1621 709 1545 l 625 1621 q 606 1610 612 1610 m 562 1563 l 591 1529 l 606 1536 l 614 1533 q 625 1536 621 1536 q 581 1581 625 1541 q 562 1563 576 1581 m 602 1430 l 595 1433 l 488 1411 q 349 1315 420 1376 q 296 1257 326 1315 l 252 1172 l 256 1172 l 245 1149 l 249 1149 l 223 1031 l 219 1031 l 223 1024 q 219 969 223 1015 l 223 954 q 219 943 219 947 q 223 939 223 943 l 219 939 l 223 932 l 223 928 q 219 925 223 925 l 223 918 l 219 899 q 234 829 227 899 q 256 766 246 807 q 296 707 275 725 q 326 678 296 693 l 326 667 l 323 659 q 326 656 326 659 q 238 545 258 598 q 182 453 228 539 q 142 347 142 355 l 146 339 q 123 210 127 285 l 127 210 q 123 199 123 203 q 134 136 123 150 l 131 129 q 142 100 142 108 l 138 100 q 146 88 142 88 q 142 85 146 85 q 157 44 146 62 q 153 41 153 44 q 219 -88 157 41 q 367 -214 317 -199 q 407 -236 391 -236 q 517 -288 439 -270 l 606 -288 q 610 -283 610 -288 l 617 -288 l 643 -288 l 654 -280 l 706 -280 l 713 -277 l 713 -280 l 853 -258 q 901 -243 853 -254 q 1000 -188 991 -197 q 1103 -118 1046 -165 q 1177 -30 1119 -106 q 1203 7 1183 -29 q 1232 44 1212 7 q 1284 129 1256 52 q 1310 221 1303 205 l 1306 229 l 1310 247 q 1262 416 1306 325 q 1211 494 1231 473 q 1096 637 1204 527 q 1038 689 1054 672 l 1038 696 q 1126 807 1038 713 q 1159 928 1159 919 l 1159 972 q 1162 977 1159 977 q 1159 987 1159 983 q 1162 1028 1162 1020 l 1155 1031 l 1159 1050 l 1155 1057 q 1159 1061 1159 1057 q 1152 1068 1152 1061 l 1152 1072 q 1155 1076 1152 1076 q 1063 1282 1155 1143 q 985 1341 1022 1341 q 956 1360 985 1350 q 669 1444 844 1444 q 602 1430 659 1437 m 1221 1205 l 1221 1201 q 1247 1139 1234 1183 l 1284 1105 l 1291 1139 l 1221 1205 m 680 1131 l 694 1127 l 713 1131 q 798 1076 772 1131 q 831 1021 823 1049 q 827 1017 827 1021 q 835 1010 835 1016 l 835 1002 l 831 980 q 835 969 835 973 l 827 965 l 831 958 q 783 877 831 927 q 687 836 702 836 l 680 836 q 555 928 619 836 q 547 951 555 935 l 551 951 l 540 969 l 540 1006 q 576 1090 547 1055 q 625 1120 588 1101 l 643 1120 q 647 1127 643 1127 l 680 1131 m 1247 1090 l 1247 1087 q 1259 1039 1253 1079 l 1270 1031 q 1273 1068 1270 1036 l 1247 1090 m 647 1036 q 728 954 647 1030 l 732 954 q 739 977 732 968 l 739 980 q 673 1046 739 985 l 669 1046 q 647 1036 654 1036 m 628 1002 q 621 987 628 996 l 625 987 l 621 980 l 621 972 q 676 918 621 968 l 680 918 q 702 928 692 928 q 628 1002 702 933 m 1247 825 q 1232 803 1247 803 q 1428 608 1234 797 l 1428 612 q 1347 726 1428 659 q 1247 825 1347 730 m 1206 774 q 1196 763 1206 763 l 1196 751 q 1442 505 1306 636 l 1442 519 q 1439 534 1442 528 q 1442 545 1442 541 l 1211 774 l 1206 774 m 1170 726 q 1155 700 1155 705 l 1439 420 q 1442 457 1439 456 l 1170 726 m 702 494 l 713 494 q 835 442 787 494 q 901 350 847 442 l 901 309 q 897 306 901 306 l 901 298 l 901 258 q 894 224 901 249 l 897 224 q 886 195 886 199 q 890 191 890 195 q 835 118 849 124 q 758 62 827 118 l 706 52 q 694 55 702 52 l 673 52 l 658 52 q 562 96 612 56 l 529 132 l 511 170 l 507 170 l 511 177 q 488 258 488 203 q 492 276 492 264 q 488 288 492 280 q 511 365 492 322 q 532 394 511 378 q 599 464 575 464 q 702 494 623 494 m 1350 457 l 1350 453 q 1421 350 1387 369 q 1432 339 1421 345 q 1435 350 1432 350 q 1432 353 1435 353 l 1435 372 q 1350 457 1435 377 m 691 406 l 691 401 q 809 350 751 350 l 809 353 q 746 406 809 380 q 709 409 742 406 l 691 406 m 617 357 q 776 199 620 350 l 783 199 q 791 214 783 205 l 791 221 q 669 324 710 312 q 625 357 669 328 l 617 357 m 595 328 q 584 302 591 313 q 732 155 585 296 q 753 170 732 162 q 595 328 751 177 m 1398 321 l 1398 317 l 1402 317 q 1398 313 1402 313 q 1409 273 1401 273 l 1413 273 q 1421 302 1413 276 l 1398 321 m 573 258 l 573 254 q 576 250 573 250 q 573 239 573 243 q 661 136 573 215 l 699 136 q 576 258 699 141 l 573 258 z "},"9":{"ha":1426,"x_min":20,"x_max":1406,"o":"m 724 1805 l 772 1805 q 776 1802 776 1805 l 783 1805 l 794 1805 q 798 1802 798 1805 q 802 1805 802 1802 q 842 1798 806 1805 l 849 1802 q 1070 1710 1036 1755 q 1162 1647 1088 1710 q 1206 1603 1206 1614 l 1211 1603 l 1218 1607 q 1284 1507 1284 1531 q 1402 1105 1402 1328 l 1402 1087 l 1406 1065 l 1402 1057 l 1406 1036 q 1402 1021 1406 1027 q 1406 1017 1402 1017 l 1402 998 l 1402 995 q 1406 984 1402 984 l 1402 965 l 1402 918 l 1398 910 l 1402 910 l 1395 877 l 1398 877 q 1391 859 1391 865 l 1395 859 q 1388 848 1391 848 l 1391 840 l 1391 836 l 1388 829 l 1391 829 q 1273 523 1337 642 l 1196 357 q 1181 317 1181 357 q 1170 302 1177 317 l 1174 302 q 1096 191 1128 217 l 1052 129 q 1026 100 1026 103 q 997 59 1004 84 l 908 -15 q 861 -62 903 -15 q 817 -100 850 -62 q 758 -136 800 -112 q 687 -192 750 -151 q 635 -229 641 -229 l 628 -225 q 570 -254 620 -225 l 529 -273 q 448 -306 524 -283 q 437 -317 448 -311 q 433 -313 437 -313 q 370 -332 433 -318 l 363 -328 q 146 -361 337 -350 q 123 -347 131 -361 l 127 -339 q 120 -317 120 -327 l 120 -170 l 127 -159 l 120 -147 l 120 -136 q 123 -125 120 -125 l 120 -107 l 120 -30 q 116 -26 120 -26 l 120 -18 l 120 -7 q 116 7 120 1 q 120 18 120 14 q 116 59 116 43 q 127 70 121 59 l 123 77 q 234 273 138 117 q 264 342 234 283 l 260 350 q 359 420 260 358 q 186 519 290 429 l 127 582 q 123 586 127 586 l 127 593 q 57 711 86 646 l 35 803 l 20 844 l 24 851 l 20 873 l 20 880 q 24 884 20 884 q 20 895 20 891 q 31 947 23 947 l 28 954 q 46 1076 39 1050 l 43 1076 q 201 1422 150 1381 l 260 1514 q 433 1699 275 1553 q 466 1721 447 1713 q 570 1783 490 1746 l 588 1780 q 599 1790 588 1785 l 602 1790 l 621 1787 q 724 1805 621 1802 m 779 1699 l 779 1695 q 979 1503 972 1503 q 1059 1455 1031 1476 l 1059 1459 q 817 1695 823 1695 q 787 1699 807 1695 q 783 1695 787 1695 q 779 1699 783 1699 m 702 1687 q 838 1555 828 1555 l 882 1544 l 882 1548 q 732 1691 738 1691 q 702 1687 728 1691 m 879 1687 q 1314 1253 1088 1473 q 1255 1348 1314 1304 q 920 1680 929 1680 q 897 1687 905 1680 l 879 1687 m 628 1669 l 739 1563 l 776 1563 l 661 1680 q 628 1669 628 1676 m 562 1654 l 562 1651 q 654 1558 562 1645 l 691 1558 q 591 1658 691 1563 q 562 1654 571 1654 m 997 1658 l 997 1654 l 1273 1381 q 1200 1496 1237 1458 q 1038 1640 1059 1639 q 997 1658 1007 1651 m 499 1621 l 570 1555 q 591 1558 572 1555 q 602 1555 599 1555 l 602 1558 q 525 1636 602 1563 l 517 1636 q 499 1621 500 1626 m 448 1592 l 448 1588 l 499 1533 q 532 1540 509 1540 q 470 1603 532 1545 q 448 1592 456 1592 m 396 1548 l 437 1510 l 444 1510 q 463 1522 456 1522 q 418 1566 463 1527 q 396 1548 396 1553 m 355 1503 q 378 1481 355 1498 l 381 1481 q 404 1496 404 1491 l 374 1522 q 355 1503 369 1522 m 448 1404 l 440 1407 q 319 1326 399 1384 q 256 1253 285 1310 q 212 1186 247 1253 q 175 1113 184 1139 q 153 1057 175 1105 q 157 1054 157 1057 q 131 977 145 1054 l 134 969 q 120 869 124 949 q 146 748 134 748 l 142 748 q 168 674 149 706 l 205 612 l 212 615 q 252 586 225 595 q 286 560 252 580 q 323 542 286 553 l 326 534 l 334 538 q 459 505 368 517 l 459 509 l 466 505 l 514 505 q 529 501 522 505 q 595 509 547 509 l 606 509 q 610 505 610 509 q 650 516 638 509 l 650 512 l 717 530 q 728 538 728 534 q 746 534 734 534 l 746 509 q 717 424 732 493 q 647 332 711 423 q 632 317 637 332 l 595 283 q 543 229 587 267 q 485 162 512 179 q 407 106 467 133 q 245 -4 345 47 l 219 -11 l 201 -11 l 197 -30 l 197 -44 q 205 -111 197 -74 l 201 -111 q 205 -115 201 -115 l 201 -133 l 201 -136 q 205 -203 201 -168 q 197 -232 202 -232 q 216 -265 203 -260 q 326 -243 231 -265 q 393 -225 381 -243 l 400 -229 l 411 -229 q 511 -192 424 -221 q 599 -144 511 -189 q 673 -88 600 -136 l 746 -33 q 805 22 746 -23 q 861 74 805 27 q 938 151 867 74 q 1026 269 962 175 q 1023 273 1023 269 q 1063 339 1044 286 q 1118 468 1080 363 q 1177 667 1148 542 l 1188 718 q 1185 722 1185 718 q 1206 814 1190 722 q 1203 866 1203 846 l 1203 906 q 1200 910 1203 910 q 1203 921 1203 917 q 1188 995 1192 983 l 1192 1002 l 1192 1013 l 1185 1024 q 1192 1031 1192 1024 q 1185 1039 1185 1031 l 1185 1090 q 1133 1208 1158 1166 q 1089 1286 1128 1208 q 941 1430 1003 1397 q 802 1463 909 1447 q 798 1459 798 1463 q 776 1463 795 1459 l 753 1459 q 699 1463 722 1463 l 684 1463 q 669 1466 675 1463 l 517 1437 q 448 1404 499 1437 m 1177 1337 q 1247 1231 1224 1239 q 1324 1153 1247 1225 q 1329 1157 1324 1157 q 1295 1219 1329 1201 q 1177 1337 1295 1224 m 1251 1175 l 1251 1172 q 1280 1109 1275 1109 q 1329 1061 1280 1104 l 1329 1065 q 1295 1131 1329 1114 q 1251 1175 1295 1136 m 709 1080 q 831 1031 829 1059 q 864 987 846 1031 q 882 925 869 959 q 875 913 879 913 l 879 906 q 857 880 876 891 l 861 873 l 861 866 q 798 810 838 822 q 758 781 758 787 l 669 763 q 562 818 562 793 q 525 895 545 818 l 525 903 q 558 1002 528 956 q 650 1057 615 1053 q 709 1080 655 1077 m 1288 1050 q 1324 977 1288 997 l 1329 977 l 1329 1010 q 1288 1050 1329 1015 m 699 984 q 768 913 699 979 l 772 939 q 732 987 755 968 l 699 984 m 640 954 q 724 869 640 949 l 728 869 q 746 884 746 879 q 661 969 746 889 l 658 969 q 640 954 640 960 m 1303 947 l 1303 932 q 1306 918 1303 924 q 1303 906 1303 910 l 1321 892 l 1324 918 l 1324 925 q 1303 947 1324 930 m 614 928 q 602 906 614 921 q 661 844 602 897 l 665 844 l 673 848 l 673 844 q 691 851 684 851 q 614 928 691 856 m 481 401 l 536 350 q 551 368 543 368 l 551 372 q 514 409 551 377 l 488 409 q 481 401 481 408 m 429 368 q 492 306 429 363 q 511 324 497 306 q 452 383 511 329 q 429 368 429 374 m 378 335 l 378 332 q 448 262 378 327 l 466 280 l 404 347 q 378 335 385 335 m 345 313 q 326 295 338 295 q 400 221 326 290 l 404 221 q 422 236 414 236 q 345 313 422 241 m 304 265 q 296 232 296 241 l 349 184 q 370 195 363 195 l 370 199 q 304 265 370 203 m 278 199 q 271 170 271 173 l 300 144 q 319 162 300 146 q 282 199 319 167 l 278 199 z "}," ":{"ha":555,"x_min":0,"x_max":0,"o":""},"":{"ha":555,"x_min":0,"x_max":0,"o":""},"!":{"ha":964,"x_min":20,"x_max":944,"o":"m 856 1714 l 878 1707 l 878 1711 q 889 1704 889 1707 l 896 1707 q 941 1674 941 1697 l 944 1674 l 918 1516 q 922 1512 918 1512 l 918 1490 q 874 1071 887 1071 q 815 585 874 1046 q 812 526 815 543 l 815 519 q 812 515 815 515 l 815 496 l 815 478 q 701 316 739 383 l 705 316 q 738 328 717 316 q 768 316 759 316 q 749 -66 768 85 q 753 -81 753 -73 l 753 -125 l 587 -328 l 557 -383 q 547 -409 554 -409 l 503 -409 q 492 -412 492 -409 l 473 -409 l 433 -409 q 381 -405 412 -409 q 377 -409 377 -405 l 351 -405 l 222 -405 q 61 -420 90 -405 l 61 -416 q 57 -236 61 -389 l 61 -221 q 57 -217 61 -217 l 61 -199 l 61 -155 q 57 -7 61 -100 q 54 -4 54 -7 l 61 0 q 54 11 57 11 q 94 96 54 33 l 57 92 l 54 92 q 46 99 46 92 l 46 129 l 50 147 l 46 147 l 50 155 l 50 173 q 46 176 50 176 l 50 184 l 50 187 q 46 191 50 191 l 50 199 l 50 202 q 46 206 50 206 l 50 213 l 46 232 l 50 232 q 43 261 43 245 l 43 349 q 39 390 43 365 q 43 408 43 396 q 39 412 43 412 l 43 431 l 43 460 q 39 463 43 463 l 43 471 l 43 534 q 39 548 43 542 q 43 559 43 555 q 39 563 39 559 q 43 566 43 563 l 39 566 l 43 574 l 43 618 q 39 622 43 622 q 43 633 43 629 q 39 644 39 640 l 43 644 l 39 651 q 43 662 43 659 l 39 662 l 43 669 l 43 673 q 35 713 43 677 l 35 754 q 31 765 35 765 l 35 784 l 35 861 l 43 872 q 35 886 39 886 q 43 909 43 899 l 43 949 q 39 953 43 953 l 43 960 l 43 1111 q 35 1177 35 1175 l 39 1185 q 28 1262 31 1195 l 31 1262 q 20 1329 25 1276 q 24 1343 24 1335 l 20 1343 q 24 1347 20 1347 l 20 1365 l 20 1369 q 274 1641 267 1640 q 856 1714 848 1711 m 653 1605 q 720 1538 653 1600 l 734 1564 l 683 1611 q 653 1605 655 1605 m 580 1590 q 665 1505 580 1584 q 694 1516 694 1507 l 613 1593 l 580 1590 m 506 1575 q 591 1490 506 1570 l 598 1490 l 624 1494 q 539 1579 624 1499 q 506 1575 519 1575 m 447 1564 l 433 1564 l 433 1560 l 517 1472 l 543 1476 l 550 1476 l 550 1479 l 466 1567 l 447 1564 m 800 1541 l 844 1501 q 848 1538 844 1537 l 815 1567 q 800 1541 808 1567 m 351 1553 q 447 1457 355 1544 l 480 1461 l 385 1560 q 351 1553 377 1556 m 286 1538 q 281 1541 286 1541 l 278 1534 q 370 1442 283 1534 q 403 1453 403 1447 q 304 1546 311 1546 q 286 1538 292 1538 m 760 1494 l 838 1420 l 838 1457 q 779 1516 838 1461 q 760 1494 765 1509 m 248 1512 q 237 1490 248 1503 q 296 1432 237 1486 l 315 1432 q 326 1442 320 1432 l 252 1512 l 248 1512 m 742 1464 q 738 1428 742 1428 l 830 1339 q 833 1376 830 1375 l 742 1464 m 212 1461 q 201 1438 212 1452 q 216 1424 201 1433 l 252 1424 q 216 1461 252 1429 l 212 1461 m 562 1387 l 532 1387 q 399 1369 532 1379 q 304 1350 399 1362 q 289 1354 297 1354 l 267 1354 l 260 1350 l 260 1354 l 245 1347 l 245 1350 q 157 1335 184 1335 l 142 1335 q 120 1321 120 1326 l 120 1299 q 123 1284 120 1291 l 120 1277 q 134 1196 129 1196 l 131 1188 l 134 1181 l 131 1181 l 134 1174 l 134 1141 l 131 1118 q 134 1100 134 1112 l 134 1097 q 131 1093 134 1093 l 134 1085 l 134 1082 q 142 1027 136 1027 q 134 960 134 1008 l 134 942 l 131 924 l 134 924 l 131 916 l 131 912 q 134 909 131 909 l 131 901 q 134 898 131 898 l 131 890 l 134 883 q 131 872 131 876 l 134 857 q 131 846 131 850 l 134 846 q 127 821 131 821 q 131 817 127 817 l 127 798 l 127 765 q 131 728 127 748 q 127 718 131 724 q 131 648 131 677 l 131 596 q 134 592 131 592 l 131 585 l 131 566 q 134 563 131 563 l 131 555 l 134 504 l 131 504 l 134 496 l 134 427 l 127 416 q 134 390 134 401 l 131 390 q 134 386 131 386 l 131 368 q 138 338 138 342 l 138 331 q 134 328 138 328 l 138 320 l 138 213 q 157 202 138 207 q 289 224 248 213 l 340 224 q 355 228 349 224 q 359 224 359 228 l 377 228 l 392 228 q 407 224 400 228 l 433 232 l 440 228 q 524 287 524 228 q 532 342 529 335 q 528 353 528 349 l 532 353 l 528 360 q 536 386 531 386 q 532 390 536 390 q 554 537 545 521 l 554 574 q 557 578 554 578 l 554 585 l 562 610 l 557 610 q 562 622 562 618 q 557 625 562 625 l 576 710 l 572 718 q 602 868 583 732 q 598 872 602 872 q 613 971 604 971 q 609 986 609 978 l 613 986 q 609 989 613 989 l 613 1015 l 613 1038 q 620 1045 614 1045 q 616 1048 620 1048 q 624 1078 616 1055 q 620 1082 624 1082 q 653 1413 653 1379 l 650 1413 q 562 1387 570 1387 m 734 1383 l 730 1347 l 819 1262 l 823 1262 q 819 1277 823 1270 q 823 1291 823 1283 l 823 1295 q 734 1383 823 1300 m 730 1299 q 727 1262 730 1263 l 812 1181 l 815 1200 l 815 1214 q 730 1299 815 1219 m 723 1218 l 723 1214 q 727 1211 723 1211 l 723 1203 l 723 1181 q 800 1104 723 1176 l 804 1104 l 804 1111 l 808 1137 l 723 1218 m 716 1137 q 712 1111 716 1116 q 793 1023 712 1097 q 797 1059 793 1046 l 716 1137 m 712 1053 l 709 1045 l 709 1019 q 779 949 709 1015 l 782 949 l 782 957 l 786 983 l 712 1053 m 701 975 l 701 938 q 768 872 701 933 l 771 872 l 771 890 l 774 898 q 771 901 771 898 q 774 905 774 901 l 701 975 m 697 890 l 694 872 l 697 872 l 694 865 l 694 857 q 756 795 694 852 q 764 821 756 802 q 697 890 764 830 m 686 813 l 683 787 l 683 780 q 749 713 683 775 q 753 739 749 725 l 749 739 l 753 747 q 686 813 753 751 m 675 732 q 668 713 675 713 q 738 636 668 699 l 742 655 l 742 669 q 679 732 742 674 l 675 732 m 665 659 q 657 629 657 645 q 734 552 657 624 l 738 559 q 734 563 738 563 l 738 581 l 738 585 q 665 659 738 590 m 650 585 l 650 548 q 716 482 650 543 l 734 504 l 650 585 m 642 504 l 639 467 l 679 431 q 694 456 694 447 l 642 504 m 631 427 l 631 390 q 646 375 631 384 q 657 405 657 400 l 631 427 m 606 136 q 671 224 618 136 q 683 239 675 224 l 683 246 l 665 250 q 606 143 620 192 l 606 136 m 447 132 q 492 88 447 127 l 524 92 q 466 136 490 136 q 447 132 460 132 m 532 136 l 532 132 l 572 96 q 591 117 586 102 q 572 132 589 117 l 539 132 l 532 136 m 370 121 q 418 77 408 77 q 447 81 421 77 q 403 125 447 86 l 389 125 l 370 121 m 311 117 l 289 117 l 289 114 l 333 66 q 370 70 346 70 q 319 121 370 74 l 311 117 m 657 96 l 694 62 q 697 99 694 67 l 675 117 q 657 96 671 117 m 208 114 l 208 106 q 267 62 243 62 l 278 62 q 286 70 286 62 l 237 114 l 208 114 m 639 66 l 624 44 q 686 -18 624 39 l 686 18 q 639 66 686 24 m 363 -7 l 237 -4 q 131 -12 138 -7 q 138 -56 138 -48 l 134 -63 l 138 -70 q 134 -74 138 -74 l 138 -100 l 138 -170 l 142 -188 l 138 -188 q 149 -273 144 -201 q 145 -302 145 -287 l 145 -332 q 157 -335 149 -332 q 178 -328 169 -328 l 407 -328 q 440 -332 420 -328 q 466 -328 445 -328 l 469 -328 q 473 -313 473 -315 l 469 -313 q 492 -210 475 -299 q 488 -199 488 -203 q 510 7 488 -137 l 506 7 q 495 11 495 7 q 363 -7 476 0 m 606 11 q 598 -4 603 -4 l 602 -12 q 598 -22 598 -18 l 686 -107 l 690 -88 l 690 -74 q 606 11 690 -68 m 591 -63 q 583 -96 583 -80 l 646 -155 l 650 -155 q 661 -129 661 -134 l 591 -63 m 576 -136 q 572 -173 572 -169 l 606 -203 l 624 -180 l 576 -136 z "},"\"":{"ha":1480,"x_min":20,"x_max":1460,"o":"m 1394 1973 q 1445 1952 1434 1973 l 1460 1937 l 1456 1919 l 1456 1874 l 1460 1852 l 1456 1845 q 1460 1841 1456 1841 l 1456 1797 l 1456 1705 q 1449 1687 1456 1687 l 1453 1679 l 1453 1628 l 1449 1620 l 1453 1620 q 1401 1377 1433 1485 q 1228 1090 1350 1259 q 1084 921 1207 1069 q 985 832 1010 842 l 930 785 q 863 747 911 785 q 798 707 816 729 q 775 696 789 707 l 768 696 l 768 700 q 694 663 721 682 l 680 663 q 675 677 675 676 l 680 700 l 675 700 l 680 707 q 668 747 668 722 q 675 762 669 762 l 672 770 l 672 785 q 675 788 672 788 q 665 829 671 811 l 668 829 l 665 836 q 668 847 668 843 l 665 847 q 668 858 668 854 q 665 869 665 865 l 661 869 q 528 644 593 734 q 378 726 509 646 q 190 928 238 848 q 75 1167 123 1021 q 20 1506 20 1381 l 24 1514 q 20 1517 24 1517 l 24 1543 l 24 1672 l 20 1694 q 157 1834 20 1731 q 278 1937 258 1932 q 304 1955 278 1955 l 315 1955 q 330 1952 323 1955 q 345 1955 336 1955 l 366 1955 q 370 1952 370 1955 q 374 1955 374 1952 q 690 1966 540 1959 q 764 1944 764 1955 q 775 1900 775 1911 l 775 1849 l 779 1849 q 915 1948 837 1896 q 985 1970 915 1966 q 1158 1966 1108 1966 q 1394 1973 1202 1966 m 1294 1889 q 1327 1856 1294 1884 q 1345 1878 1333 1856 q 1335 1889 1341 1878 q 1305 1885 1314 1885 q 1294 1889 1298 1889 m 1217 1885 l 1213 1878 l 1291 1805 q 1305 1826 1291 1811 q 1246 1885 1305 1831 l 1246 1882 l 1239 1885 l 1232 1882 q 1217 1885 1225 1885 m 956 1882 l 952 1874 l 1084 1746 l 1121 1746 q 985 1882 1121 1750 l 966 1882 l 959 1878 q 956 1882 959 1882 m 1036 1882 l 1036 1878 l 1165 1753 l 1198 1756 l 1077 1882 l 1059 1878 l 1044 1878 l 1036 1882 m 1125 1882 q 1246 1760 1126 1876 l 1250 1760 q 1265 1775 1256 1760 l 1265 1779 q 1165 1882 1263 1780 l 1147 1878 l 1143 1878 l 1125 1882 m 513 1870 l 576 1811 l 580 1811 q 595 1826 580 1826 l 595 1830 q 547 1878 595 1835 l 543 1878 l 532 1870 l 521 1878 q 513 1870 513 1876 m 433 1867 q 532 1767 433 1862 q 547 1790 532 1775 q 466 1870 547 1794 l 433 1867 m 348 1860 q 469 1738 353 1859 l 477 1742 q 481 1738 481 1742 q 507 1742 486 1742 q 381 1867 503 1750 l 378 1867 q 374 1863 374 1867 l 366 1867 l 355 1867 q 348 1860 348 1866 m 893 1852 l 893 1849 q 1000 1742 893 1844 l 1036 1742 q 915 1863 1036 1746 q 893 1852 898 1852 m 278 1845 q 385 1738 278 1841 l 392 1742 q 396 1738 396 1742 l 404 1742 q 414 1738 410 1738 q 418 1742 414 1742 q 422 1738 418 1738 l 422 1742 l 300 1860 q 278 1845 278 1851 m 675 1837 q 657 1819 657 1822 q 694 1782 657 1814 l 698 1782 q 694 1793 698 1786 l 698 1815 q 675 1837 698 1820 m 245 1826 q 227 1805 245 1820 l 304 1731 q 337 1734 307 1734 q 245 1826 337 1740 m 845 1808 q 904 1749 845 1803 l 911 1753 l 926 1749 q 937 1753 933 1753 q 941 1749 937 1749 l 941 1753 l 863 1826 q 845 1808 859 1826 m 628 1797 q 613 1775 628 1790 q 665 1723 614 1769 q 672 1753 665 1727 q 628 1797 672 1758 m 812 1790 l 793 1767 l 812 1753 l 849 1753 q 812 1790 849 1758 m 1327 1764 l 1371 1723 q 1375 1734 1371 1734 q 1345 1786 1375 1768 q 1327 1764 1333 1779 m 182 1760 q 223 1727 216 1727 q 252 1731 226 1727 q 201 1782 252 1736 q 182 1760 195 1782 m 569 1727 q 672 1628 670 1629 l 672 1643 q 661 1679 665 1651 q 591 1749 656 1679 q 569 1727 578 1746 m 1305 1738 q 1298 1723 1305 1732 l 1298 1716 l 1305 1716 l 1301 1708 l 1301 1705 q 1368 1638 1301 1700 l 1368 1676 q 1305 1738 1368 1680 m 1272 1683 l 1272 1679 q 1305 1613 1272 1630 q 1353 1565 1305 1608 q 1360 1598 1357 1573 l 1272 1683 m 572 1676 l 576 1668 l 576 1643 l 572 1635 l 672 1539 l 675 1539 l 668 1565 q 672 1569 672 1565 l 668 1569 l 672 1576 q 572 1676 672 1581 m 834 1650 l 790 1653 l 757 1650 l 757 1638 l 760 1613 l 757 1613 q 768 1539 760 1601 l 764 1539 l 768 1532 q 764 1517 768 1524 q 768 1458 768 1480 l 768 1432 q 772 1429 768 1429 l 768 1421 q 764 1308 764 1354 q 772 1259 764 1293 q 768 1256 768 1259 l 772 1256 l 768 1249 l 768 1241 q 772 1226 768 1233 q 764 1160 764 1208 l 764 1145 q 772 1138 765 1138 l 768 1131 q 772 1127 768 1127 q 768 1123 772 1123 l 772 1097 l 772 1094 q 768 1090 772 1090 l 772 1082 q 764 1020 772 1067 q 772 998 772 1008 l 768 998 l 772 991 l 768 983 l 775 965 q 772 950 772 958 l 775 950 l 772 943 l 772 865 l 779 854 l 779 847 l 775 810 q 786 806 782 806 q 966 939 884 859 q 985 961 966 948 q 1095 1120 1086 1074 q 1121 1164 1109 1150 q 1118 1167 1118 1164 q 1151 1278 1128 1167 q 1162 1352 1151 1339 q 1158 1377 1158 1366 q 1162 1392 1162 1390 l 1158 1399 q 1169 1480 1164 1419 l 1165 1502 l 1165 1532 q 1177 1558 1165 1544 q 1173 1561 1177 1561 l 1177 1569 l 1177 1584 q 1173 1587 1177 1587 q 1177 1591 1173 1591 l 1173 1609 l 1173 1620 l 1066 1650 q 1036 1643 1038 1643 q 989 1646 1013 1646 l 985 1646 q 981 1650 981 1646 l 974 1646 l 966 1650 l 966 1646 l 959 1650 l 897 1650 q 878 1657 878 1650 q 834 1650 872 1654 m 404 1635 l 396 1638 q 381 1635 383 1635 q 370 1638 377 1635 l 281 1628 l 281 1631 l 275 1628 l 271 1628 q 267 1631 267 1628 l 260 1628 l 193 1628 l 138 1617 l 138 1620 q 116 1609 116 1615 l 116 1573 q 120 1525 116 1549 l 116 1506 q 123 1451 120 1459 l 120 1436 q 127 1388 123 1388 q 123 1385 127 1385 l 142 1300 l 138 1300 q 178 1149 149 1278 q 193 1108 188 1149 l 237 1013 q 281 943 281 951 q 448 766 359 840 l 455 766 l 455 777 q 458 792 455 785 l 455 799 q 462 821 462 814 l 458 821 l 462 829 q 458 832 462 832 l 462 850 l 458 869 l 462 869 q 458 873 462 873 l 462 891 l 462 928 q 469 947 463 947 l 466 965 l 466 972 q 473 994 466 982 q 466 1017 466 1006 l 466 1024 l 469 1031 l 466 1031 q 481 1123 472 1050 l 477 1123 l 481 1131 l 481 1145 q 477 1149 481 1149 q 484 1175 484 1168 l 481 1175 l 484 1182 l 484 1223 q 488 1226 484 1226 l 484 1234 l 492 1249 l 488 1256 l 492 1274 q 484 1282 484 1274 l 492 1293 l 492 1311 q 488 1329 492 1323 l 492 1352 l 492 1403 q 484 1444 492 1407 l 484 1447 q 488 1451 484 1451 l 484 1458 l 484 1499 q 488 1502 484 1502 l 484 1510 l 484 1539 q 488 1543 484 1543 l 484 1550 l 484 1598 q 481 1602 484 1602 l 484 1609 l 484 1643 l 462 1643 q 458 1638 458 1643 l 451 1643 l 433 1638 l 433 1643 q 404 1635 404 1638 m 1272 1594 l 1272 1587 q 1309 1521 1272 1543 q 1342 1488 1309 1516 q 1350 1521 1342 1493 l 1272 1594 m 576 1584 l 576 1576 q 616 1506 576 1531 q 672 1451 616 1501 l 672 1488 q 576 1584 669 1496 m 1265 1514 q 1261 1476 1265 1496 l 1324 1418 l 1327 1418 l 1327 1432 l 1331 1451 l 1265 1514 m 584 1488 l 584 1451 q 665 1370 584 1446 q 668 1385 665 1385 l 665 1392 q 668 1407 668 1398 l 584 1488 m 1261 1429 q 1254 1407 1261 1407 q 1294 1355 1254 1396 q 1309 1385 1309 1358 l 1261 1429 m 587 1396 l 587 1359 q 672 1274 587 1354 l 672 1278 q 642 1344 666 1326 l 587 1396 m 1257 1344 q 1250 1311 1257 1331 q 1268 1296 1266 1296 l 1272 1296 q 1283 1318 1272 1306 q 1257 1344 1283 1324 m 587 1308 l 587 1270 q 668 1190 587 1265 l 665 1197 q 668 1200 665 1200 q 665 1211 665 1208 l 668 1219 q 587 1308 668 1234 m 587 1219 q 584 1190 587 1204 q 587 1185 587 1190 q 584 1182 584 1185 l 665 1105 l 668 1105 l 668 1108 q 665 1112 668 1112 q 668 1123 668 1119 q 665 1134 665 1131 l 668 1134 q 587 1219 668 1144 m 580 1138 l 580 1101 q 661 1020 580 1096 q 665 1035 661 1028 l 661 1035 l 665 1042 l 665 1053 q 580 1138 665 1058 m 576 1053 l 576 1050 q 580 1046 576 1046 q 572 1017 580 1039 l 624 968 l 628 968 q 639 994 639 991 l 576 1053 m 569 972 l 569 935 q 595 909 569 930 q 606 939 606 932 l 569 972 z "},"#":{"ha":2156,"x_min":20,"x_max":2136,"o":"m 764 1595 q 820 1588 820 1594 q 823 1592 823 1588 q 956 1577 956 1584 l 964 1581 l 997 1581 q 1000 1577 1000 1581 l 1008 1581 l 1019 1581 q 1023 1577 1023 1581 l 1030 1581 l 1063 1581 q 1096 1584 1076 1581 q 1100 1581 1100 1584 q 1129 1584 1120 1584 q 1192 1577 1192 1583 l 1200 1581 l 1211 1581 l 1229 1569 q 1200 1481 1229 1539 q 1129 1345 1147 1396 l 1126 1345 l 1118 1348 l 1118 1345 l 1129 1337 q 1211 1341 1185 1341 l 1211 1345 q 1214 1341 1214 1345 l 1232 1345 l 1303 1345 q 1350 1448 1324 1400 q 1395 1563 1373 1523 l 1402 1558 q 1417 1563 1409 1563 l 1417 1558 l 1442 1577 q 1487 1569 1480 1573 l 1494 1573 l 1501 1569 q 1506 1573 1506 1569 q 1516 1569 1509 1573 q 1583 1577 1531 1569 l 1590 1573 l 1612 1577 l 1612 1573 l 1619 1577 l 1708 1577 l 1727 1573 q 1730 1577 1727 1577 l 1730 1573 q 1741 1577 1737 1577 q 1804 1569 1804 1576 q 1815 1573 1811 1573 q 1936 1566 1853 1573 q 1966 1577 1954 1577 l 1977 1577 q 1984 1569 1984 1576 q 1881 1334 1984 1534 l 1881 1322 l 1885 1322 q 1892 1326 1892 1322 q 1903 1322 1896 1326 l 2010 1330 q 2091 1326 2052 1326 q 2110 1304 2110 1326 l 2110 1297 q 2106 1293 2110 1293 l 2110 1286 l 2110 1257 l 2113 1231 l 2110 1231 l 2113 1223 l 2113 1153 q 2136 962 2113 972 l 2136 954 q 2084 869 2136 945 q 2036 800 2084 858 q 1973 692 2016 749 l 1973 685 q 1995 442 1980 667 l 1995 424 q 2013 409 2004 424 q 1973 335 1988 350 q 1907 214 1944 273 q 1836 66 1907 191 l 1807 66 q 1778 74 1781 74 l 1719 74 q 1704 66 1710 66 q 1579 74 1615 74 l 1564 74 l 1557 70 q 1553 74 1557 74 q 1402 -118 1447 -46 q 1339 -184 1362 -181 l 1343 -192 l 1336 -192 l 1339 -199 l 1339 -206 l 1336 -206 q 1273 -192 1314 -192 l 1270 -192 q 1240 -195 1254 -192 q 1211 -192 1225 -192 q 1181 -195 1185 -192 q 1122 -192 1143 -192 q 846 -203 1025 -192 l 820 -203 l 783 -206 l 776 -195 l 779 -170 q 776 -166 776 -170 q 791 -147 783 -164 q 787 -121 787 -133 q 823 -30 802 -100 q 846 33 846 14 l 846 37 q 823 44 832 37 q 753 -22 807 44 q 702 -88 749 -22 q 658 -147 658 -134 l 650 -147 l 650 -140 q 614 -184 644 -140 l 562 -199 q 120 -218 412 -210 q 90 -199 100 -218 l 90 -195 q 113 -121 102 -140 q 138 -44 128 -100 l 142 -44 l 138 -37 l 160 11 l 160 37 q 153 44 160 44 q 105 33 146 37 l 105 37 q 75 29 92 29 l 68 29 q 24 41 64 35 l 20 48 l 20 55 q 28 111 22 111 l 24 118 l 24 125 q 28 140 24 134 q 24 151 24 147 l 28 151 l 24 159 q 28 170 28 165 q 24 180 24 176 l 28 180 l 24 188 l 24 191 q 28 195 24 195 l 24 203 l 24 221 q 28 224 24 224 l 24 232 l 24 283 q 31 324 24 288 q 24 361 31 334 q 31 368 31 361 q 28 372 31 372 l 31 380 q 24 401 31 386 l 28 401 l 24 409 l 31 424 l 28 424 q 31 427 28 427 l 28 446 l 31 460 l 28 460 l 31 468 l 31 471 q 28 475 31 475 l 31 483 q 28 497 28 489 q 57 538 45 497 q 172 671 75 551 l 172 674 q 168 726 172 694 q 172 737 172 733 q 168 748 168 744 q 172 759 172 755 q 168 763 172 763 l 172 781 l 172 789 q 168 792 172 792 l 172 800 q 168 810 172 804 l 172 836 l 168 851 q 172 866 172 857 l 168 873 q 172 884 172 880 l 168 884 q 172 895 172 891 l 168 910 q 172 925 172 916 l 168 925 l 172 932 q 168 943 168 939 l 172 943 l 168 951 q 172 954 168 954 l 168 972 l 168 977 l 172 998 q 168 1017 168 1004 q 172 1021 172 1017 q 168 1024 168 1021 l 172 1024 l 168 1031 l 168 1036 q 172 1039 168 1039 q 164 1068 164 1058 q 252 1216 178 1124 q 334 1315 276 1260 q 359 1356 334 1330 l 507 1341 l 507 1345 q 517 1337 517 1341 l 525 1341 l 555 1334 q 558 1337 555 1337 l 558 1334 l 566 1337 q 588 1334 585 1334 q 599 1348 599 1334 l 602 1348 l 602 1341 l 606 1341 q 614 1352 606 1352 l 614 1356 l 606 1356 l 606 1374 q 635 1419 612 1374 q 669 1478 648 1428 q 720 1581 701 1529 l 728 1584 l 732 1584 l 739 1581 q 764 1595 745 1595 m 809 1503 q 982 1330 809 1498 l 989 1330 q 993 1334 993 1330 l 1000 1330 l 1019 1330 q 846 1503 1019 1335 l 809 1503 m 901 1499 q 1052 1348 903 1492 q 1059 1381 1059 1373 q 938 1496 944 1496 q 901 1499 933 1496 m 1078 1499 q 1107 1470 1078 1495 l 1111 1470 q 1122 1496 1111 1474 l 1096 1499 l 1078 1499 m 1609 1499 l 1609 1496 l 1789 1319 l 1796 1319 q 1804 1337 1796 1329 l 1804 1341 q 1649 1496 1801 1348 l 1616 1496 l 1609 1499 m 1697 1499 l 1697 1496 l 1818 1378 l 1822 1378 l 1833 1404 l 1737 1496 l 1704 1496 l 1697 1499 m 764 1496 l 750 1474 q 901 1330 885 1330 l 930 1330 q 764 1496 930 1335 m 993 1496 q 1078 1411 993 1491 q 1089 1440 1089 1434 l 1030 1496 l 993 1496 m 1468 1492 l 1442 1492 l 1442 1489 q 1619 1312 1445 1480 l 1623 1312 l 1649 1319 l 1476 1496 l 1468 1492 m 1538 1492 l 1531 1492 l 1531 1489 q 1708 1312 1534 1480 l 1723 1312 l 1741 1315 l 1564 1496 l 1538 1492 m 1792 1492 q 1848 1437 1792 1488 q 1859 1459 1848 1445 l 1859 1463 q 1804 1496 1839 1496 q 1792 1492 1796 1492 m 1428 1452 l 1421 1426 l 1421 1422 q 1531 1312 1421 1417 l 1557 1312 q 1564 1319 1564 1312 l 1428 1452 m 732 1440 q 720 1415 732 1428 q 817 1326 801 1326 q 842 1322 831 1322 l 846 1330 l 732 1440 m 1398 1389 q 1391 1360 1391 1362 q 1439 1312 1396 1360 q 1450 1319 1450 1315 l 1479 1312 l 1479 1315 l 1402 1389 l 1398 1389 m 699 1385 q 687 1363 699 1377 l 687 1360 q 750 1326 709 1326 l 753 1334 l 699 1385 m 429 1263 q 525 1168 433 1255 q 532 1201 525 1187 q 455 1263 471 1263 l 452 1263 l 444 1260 q 429 1263 437 1263 m 1144 1263 l 1141 1257 l 1221 1179 l 1232 1208 l 1174 1263 l 1155 1260 q 1144 1263 1148 1263 m 1944 1253 q 1988 1208 1944 1248 q 1999 1234 1988 1221 q 1977 1257 1999 1240 l 1962 1257 l 1944 1253 m 875 1245 q 861 1249 867 1245 l 835 1238 q 827 1245 835 1245 l 791 1238 q 783 1245 791 1245 l 779 1245 q 750 1238 764 1245 q 743 1245 750 1245 l 702 1245 q 650 1249 682 1245 q 632 1245 644 1245 l 632 1227 q 617 1153 625 1218 q 595 1050 607 1153 l 570 1013 l 532 1006 l 532 1013 q 326 1010 503 1013 q 304 1013 323 1010 l 296 1010 l 282 1013 l 245 1010 l 245 1006 q 252 895 249 905 l 249 888 l 256 869 q 245 836 250 869 q 256 810 256 818 l 249 807 l 252 800 q 249 795 252 795 q 256 774 252 774 q 252 770 256 770 l 256 755 l 252 711 q 267 671 252 671 q 422 652 422 668 q 440 659 434 659 q 455 633 455 646 q 437 568 437 589 q 414 505 431 556 q 411 501 411 505 l 414 494 q 352 435 399 435 q 286 427 286 435 l 278 431 l 267 431 q 252 427 259 431 q 238 431 246 431 l 231 431 l 219 424 l 157 424 q 153 420 153 424 l 146 424 q 113 420 125 420 l 109 420 l 109 416 q 113 361 109 408 l 109 353 l 113 347 q 109 306 109 321 l 109 302 l 113 283 l 109 283 q 113 280 109 280 l 109 262 l 109 188 q 105 184 109 184 l 109 177 l 109 129 l 160 129 q 164 125 164 129 l 172 129 l 231 129 q 260 118 245 129 q 282 100 282 105 q 286 92 282 92 q 278 70 278 80 l 278 59 q 234 -59 262 59 q 223 -77 229 -59 l 227 -85 q 212 -133 216 -99 l 238 -136 l 264 -136 l 271 -133 l 271 -136 q 308 -129 308 -133 l 315 -133 l 319 -133 l 330 -125 l 444 -125 q 459 -121 452 -125 q 463 -125 463 -121 q 532 -85 532 -125 q 562 -11 552 -24 q 635 132 591 104 q 665 140 654 140 q 709 136 703 136 q 720 140 713 136 q 761 136 745 136 l 794 136 q 823 129 798 136 l 901 129 q 905 125 905 129 l 912 129 q 916 125 916 129 l 923 129 q 960 106 960 123 l 960 100 q 956 96 960 96 q 964 70 964 81 q 938 11 944 43 q 941 7 941 11 q 930 -15 935 7 q 934 -18 934 -15 q 908 -103 928 -18 l 920 -111 l 941 -111 q 982 -103 946 -111 l 982 -107 l 989 -103 l 1200 -103 q 1240 -100 1215 -103 q 1270 -103 1244 -103 l 1284 -103 q 1317 -18 1295 -83 q 1321 -15 1321 -18 l 1317 -7 q 1336 33 1326 -7 q 1413 147 1368 147 l 1453 147 l 1461 151 l 1461 147 q 1472 151 1468 151 q 1727 155 1702 155 q 1763 165 1727 162 l 1763 188 q 1759 206 1763 200 l 1763 229 l 1763 243 q 1759 258 1763 252 q 1767 280 1763 280 q 1759 302 1763 302 l 1763 328 l 1763 420 q 1756 457 1763 427 q 1494 450 1655 450 q 1468 464 1494 456 l 1468 479 l 1531 633 q 1550 671 1539 635 q 1594 704 1554 671 l 1712 704 q 1715 707 1715 704 l 1723 704 l 1811 704 q 1885 700 1835 704 q 1881 707 1885 707 l 1885 726 q 1877 866 1877 812 q 1881 880 1877 874 q 1877 895 1877 887 l 1877 921 q 1870 972 1877 945 l 1874 972 q 1870 984 1870 980 l 1874 991 q 1848 1013 1874 1011 q 1774 998 1836 1004 q 1763 1002 1767 1002 l 1756 998 q 1752 1002 1752 998 l 1715 998 l 1671 998 q 1638 1024 1638 998 q 1645 1028 1645 1024 l 1642 1036 l 1653 1057 l 1649 1057 q 1682 1146 1682 1129 l 1715 1227 l 1715 1231 l 1712 1231 l 1700 1223 l 1682 1223 l 1674 1227 l 1674 1223 q 1653 1231 1663 1231 l 1619 1231 q 1605 1227 1611 1231 q 1590 1231 1598 1231 l 1586 1223 l 1571 1231 q 1564 1223 1571 1223 q 1557 1231 1564 1231 l 1516 1231 l 1506 1223 l 1498 1223 q 1428 1231 1472 1223 l 1428 1223 l 1395 1223 q 1365 1231 1392 1223 l 1343 1231 q 1329 1198 1343 1223 l 1332 1198 q 1262 1010 1282 1103 q 1244 972 1259 1010 l 1181 972 q 1166 977 1173 972 l 1159 972 q 1107 977 1128 977 q 1082 972 1096 977 l 1011 980 q 971 969 971 972 l 964 972 l 923 972 q 916 980 916 972 l 916 987 q 945 1101 941 1067 q 964 1160 959 1121 q 993 1245 972 1169 q 964 1253 979 1253 q 875 1245 881 1245 m 1093 1253 q 1085 1227 1093 1236 q 1196 1116 1085 1222 q 1206 1146 1196 1120 l 1096 1253 l 1093 1253 m 1859 1249 q 1954 1153 1862 1241 q 1966 1175 1954 1162 l 1966 1179 q 1895 1249 1966 1184 l 1859 1249 m 396 1245 q 378 1227 391 1227 q 507 1098 379 1221 q 514 1127 507 1101 q 396 1245 514 1132 m 1833 1223 q 1822 1194 1822 1202 l 1921 1098 q 1933 1127 1933 1120 l 1833 1223 m 355 1198 q 341 1172 341 1177 l 433 1083 l 470 1083 q 355 1198 470 1088 m 1074 1186 q 1063 1157 1074 1183 l 1148 1076 l 1181 1076 l 1181 1080 q 1074 1186 1181 1084 m 1789 1142 l 1848 1080 q 1885 1083 1861 1083 q 1804 1164 1885 1088 q 1789 1142 1799 1164 m 308 1116 l 334 1095 l 370 1095 q 323 1142 370 1099 q 308 1116 315 1142 m 2010 1135 q 1999 1109 2010 1122 q 2036 1072 1999 1104 l 2039 1072 q 2032 1098 2039 1098 l 2036 1105 q 2010 1135 2029 1122 m 1052 1120 q 1041 1090 1041 1095 q 1059 1076 1057 1076 l 1096 1076 q 1052 1120 1096 1081 m 1969 1046 l 2054 965 q 1992 1065 2054 1017 q 1980 1076 1992 1070 q 1969 1046 1971 1076 m 1969 998 l 1966 991 l 1966 965 q 2021 910 1966 961 q 2036 932 2021 918 q 1969 998 2036 937 m 1966 913 q 1988 854 1969 854 l 1992 854 q 2003 880 1992 864 l 1966 913 m 1093 692 q 1115 685 1105 685 l 1141 685 q 1155 667 1148 684 q 1111 549 1111 572 q 1052 460 1096 460 q 985 450 1052 453 q 975 453 979 453 q 964 450 968 450 q 953 453 956 453 q 941 450 945 450 l 941 453 l 908 446 l 901 450 q 868 446 881 446 l 864 446 q 849 450 856 446 q 831 446 843 446 l 809 450 q 783 446 794 446 q 728 468 728 456 l 724 475 q 746 542 746 500 q 783 641 762 575 q 812 678 803 678 q 827 685 819 678 l 857 685 q 871 682 865 685 q 886 685 878 685 q 890 682 890 685 l 908 685 l 967 685 q 971 682 971 685 l 979 685 l 1048 685 l 1093 692 m 1693 623 l 1693 619 q 1774 538 1693 614 l 1774 542 l 1792 534 q 1800 549 1792 540 q 1719 623 1733 623 l 1719 619 l 1712 623 l 1693 623 m 1782 619 q 1822 578 1782 614 q 1836 597 1827 597 l 1836 600 q 1807 623 1828 616 q 1782 619 1803 619 m 1623 597 l 1689 534 l 1727 534 l 1649 615 q 1623 597 1623 609 m 934 589 q 923 593 927 593 q 982 534 923 589 l 1008 534 l 1008 545 q 956 597 1008 551 q 934 589 941 589 m 219 593 l 219 589 q 290 519 219 585 l 315 519 q 323 527 323 519 q 252 586 264 586 q 223 593 249 586 l 219 593 m 857 568 q 901 530 895 530 q 912 534 908 534 q 930 527 924 527 l 930 534 q 871 593 930 539 l 868 593 q 857 568 862 593 m 190 568 q 175 542 175 544 l 208 512 l 216 512 l 241 516 q 245 512 241 512 l 245 516 l 190 568 m 1881 556 q 1866 534 1881 553 q 1925 475 1866 530 l 1925 483 q 1885 553 1925 528 q 1881 556 1885 556 m 1848 501 q 1844 471 1848 492 q 1925 387 1844 462 l 1929 401 q 1921 412 1925 412 l 1925 420 l 1925 424 q 1848 501 1925 429 m 1851 409 q 1848 398 1851 398 q 1889 335 1848 363 l 1892 335 q 1903 361 1903 357 l 1851 409 m 1851 321 l 1851 283 q 1859 276 1853 276 l 1863 276 q 1874 302 1863 283 l 1851 321 m 1432 26 l 1432 15 q 1472 70 1472 57 l 1468 70 q 1432 26 1445 63 m 654 -30 q 713 41 659 -30 q 706 48 713 48 l 699 48 q 673 15 678 48 q 654 -30 667 15 z "},"$":{"ha":1702,"x_min":20,"x_max":1682,"o":"m 1240 1942 q 1270 1912 1270 1938 l 1270 1893 q 1251 1864 1251 1872 l 1255 1857 q 1251 1853 1255 1853 l 1255 1839 l 1236 1721 q 1339 1695 1242 1713 q 1406 1658 1339 1691 q 1476 1607 1465 1607 l 1512 1563 q 1546 1507 1544 1517 q 1453 1330 1453 1339 q 1457 1319 1457 1323 q 1432 1275 1445 1312 q 1391 1216 1423 1275 q 1350 1142 1391 1206 q 1343 1120 1343 1130 l 1343 1116 q 1512 1017 1360 1116 q 1660 763 1641 895 q 1678 667 1678 701 l 1678 615 l 1682 593 q 1674 564 1674 570 l 1678 564 q 1605 332 1644 401 q 1442 70 1489 119 q 1347 -59 1426 22 q 1295 -107 1347 -64 q 1192 -192 1293 -119 q 1141 -229 1162 -199 q 1144 -232 1141 -232 l 1141 -239 l 1141 -243 q 1144 -247 1141 -247 l 1141 -254 l 1141 -265 l 1148 -277 l 1148 -280 q 1170 -435 1148 -355 q 1056 -465 1170 -456 q 1019 -472 1056 -469 l 1011 -468 l 982 -475 q 979 -472 979 -475 q 875 -483 885 -476 q 871 -479 871 -483 l 783 -486 q 753 -483 769 -483 l 746 -483 q 628 -509 701 -501 l 606 -509 q 595 -483 600 -509 l 599 -475 q 595 -465 595 -468 l 599 -465 l 588 -413 q 591 -372 591 -387 l 591 -324 q 588 -309 591 -316 q 591 -306 588 -306 q 576 -258 591 -258 q 525 -229 552 -252 q 411 -180 516 -229 q 278 -96 288 -125 q 256 -77 265 -96 q 182 -11 220 -59 q 109 88 149 -1 q 164 188 146 136 l 208 247 q 308 406 250 317 q 330 446 308 410 l 330 457 q 234 512 241 502 q 193 534 234 515 q 146 582 193 543 q 116 612 146 587 q 64 700 86 646 q 35 821 35 773 l 35 833 q 20 928 27 833 q 61 1095 20 996 q 190 1308 61 1126 q 349 1489 205 1349 q 576 1603 509 1597 l 581 1610 l 581 1614 q 576 1617 581 1617 l 581 1625 q 576 1628 581 1628 l 581 1636 l 573 1647 l 573 1658 q 576 1662 573 1662 l 573 1669 q 599 1695 573 1676 q 661 1769 599 1714 q 673 1783 661 1777 q 706 1820 679 1783 q 791 1920 791 1912 l 791 1923 l 794 1923 q 916 1934 848 1923 l 934 1931 q 997 1934 977 1934 q 1000 1931 997 1931 q 1008 1938 1002 1938 q 1011 1934 1011 1938 l 1034 1938 q 1082 1931 1082 1937 q 1133 1938 1086 1933 l 1133 1934 l 1141 1938 l 1206 1938 q 1240 1942 1220 1938 m 985 1857 q 1115 1728 987 1851 l 1129 1728 l 1148 1731 q 1015 1857 1031 1857 l 985 1857 m 1078 1853 q 1162 1769 1078 1848 q 1170 1802 1162 1785 q 1115 1857 1165 1802 q 1078 1853 1095 1853 m 905 1849 q 1041 1713 905 1845 q 1070 1725 1070 1717 q 938 1849 944 1849 q 927 1846 934 1849 l 905 1849 m 827 1839 q 964 1706 953 1706 q 993 1710 967 1706 l 864 1842 l 846 1839 l 842 1839 q 838 1842 838 1839 q 827 1839 831 1839 m 787 1794 l 787 1790 l 875 1699 q 912 1702 895 1702 q 802 1813 912 1707 q 787 1794 796 1813 m 761 1765 q 746 1739 746 1744 l 794 1695 l 831 1695 q 761 1765 831 1699 m 916 1617 q 912 1621 916 1621 l 912 1617 q 901 1621 905 1621 q 890 1617 894 1617 l 890 1621 q 805 1610 873 1617 l 805 1614 q 802 1610 802 1614 q 739 1614 751 1614 q 669 1599 669 1614 q 680 1548 669 1582 q 676 1544 680 1544 l 680 1518 l 680 1481 l 684 1463 l 680 1463 l 684 1455 l 680 1430 l 680 1396 l 658 1385 l 610 1385 q 536 1356 598 1385 q 511 1345 525 1356 q 227 1157 309 1283 q 127 980 162 1067 q 131 977 127 977 q 116 928 121 937 l 116 888 q 120 884 116 884 l 116 877 q 123 862 123 868 l 120 854 q 123 840 123 848 l 120 840 q 138 766 126 824 q 234 627 198 647 q 293 586 244 608 q 422 523 391 534 l 440 523 q 496 505 440 515 q 514 497 496 497 l 525 497 q 576 494 553 497 q 610 497 597 497 q 635 490 617 497 l 643 494 q 687 490 669 490 q 776 512 756 497 l 776 509 q 823 527 798 521 l 831 523 l 871 538 q 920 553 911 547 l 923 553 q 927 549 927 553 l 934 553 l 997 553 q 1030 542 1005 546 q 1070 527 1038 532 q 1122 471 1120 494 l 1122 468 l 1118 468 l 1122 460 q 1078 339 1122 438 q 953 265 1044 292 q 838 236 914 247 q 835 239 838 239 q 831 236 835 236 l 831 239 l 823 236 l 798 239 q 794 236 798 236 l 794 239 l 787 236 l 728 236 q 713 239 720 236 q 699 236 707 236 q 543 262 677 249 q 404 317 465 284 q 378 321 389 321 l 315 217 q 271 151 285 180 q 223 81 245 123 q 330 -22 223 56 l 396 -70 q 463 -100 408 -70 q 610 -140 554 -140 q 640 -147 628 -140 l 647 -144 q 676 -155 676 -153 q 673 -218 676 -174 l 676 -239 q 669 -254 673 -254 q 684 -291 680 -275 l 680 -291 l 684 -298 l 684 -347 l 691 -357 l 684 -368 l 684 -376 q 691 -383 685 -383 l 720 -383 q 768 -372 728 -376 q 772 -376 768 -376 l 772 -372 l 779 -376 l 783 -376 q 1004 -350 783 -367 q 1044 -354 1024 -354 q 1063 -324 1063 -350 q 1059 -321 1059 -324 q 1063 -317 1063 -321 q 1052 -283 1057 -317 l 1056 -277 l 1056 -269 q 1052 -254 1056 -260 q 1056 -239 1056 -248 q 1052 -232 1056 -232 l 1056 -214 l 1056 -159 q 1118 -133 1056 -145 q 1181 -88 1135 -115 q 1218 -56 1181 -83 q 1284 11 1218 -50 q 1317 48 1284 17 q 1395 184 1395 161 q 1428 254 1401 184 q 1435 265 1428 265 l 1435 283 q 1472 427 1472 377 q 1376 722 1472 658 q 1314 759 1349 744 q 1244 795 1310 770 l 1244 792 q 1122 814 1244 801 q 964 800 1048 800 q 956 792 964 792 l 934 792 q 691 748 768 748 q 595 781 620 748 q 543 866 549 821 l 543 895 l 570 943 q 614 987 575 943 q 635 1002 635 987 l 654 1002 q 706 1017 664 1017 q 768 1031 734 1028 l 768 1028 q 827 1036 768 1031 q 861 1028 854 1031 q 864 1031 861 1031 l 864 1028 q 868 1031 868 1028 q 1174 958 1106 987 q 1200 1013 1185 972 q 1211 1031 1204 1013 l 1206 1039 q 1255 1157 1229 1100 q 1321 1278 1321 1272 q 1339 1304 1321 1284 l 1339 1315 q 1291 1334 1334 1315 q 1232 1360 1255 1341 l 1232 1356 q 1115 1385 1171 1385 q 1085 1396 1115 1393 l 1082 1404 q 1096 1522 1086 1522 l 1096 1563 q 1107 1643 1103 1587 q 1103 1647 1103 1643 q 920 1621 1063 1632 q 916 1617 920 1617 m 1218 1643 q 1211 1628 1218 1638 l 1421 1422 q 1435 1448 1426 1422 q 1236 1640 1243 1640 q 1218 1643 1230 1643 m 1310 1621 l 1310 1617 l 1450 1481 l 1461 1499 q 1354 1595 1436 1546 q 1310 1621 1343 1609 m 1203 1588 q 1192 1558 1192 1563 q 1376 1385 1364 1385 q 1383 1378 1383 1385 l 1388 1378 q 1398 1396 1396 1378 l 1203 1588 m 540 1514 q 536 1518 540 1518 l 532 1510 l 584 1463 l 588 1463 q 595 1470 595 1463 l 595 1489 q 562 1522 595 1493 q 540 1514 552 1522 m 1181 1522 l 1181 1510 q 1185 1507 1181 1507 l 1177 1485 q 1251 1440 1218 1440 q 1273 1430 1251 1436 l 1273 1433 l 1181 1522 m 481 1481 l 481 1478 q 522 1437 481 1472 q 547 1452 547 1447 l 503 1492 q 481 1481 491 1481 m 426 1440 q 459 1415 452 1415 q 481 1422 471 1422 l 481 1426 q 448 1459 481 1431 q 426 1440 426 1445 m 1336 1065 l 1336 1061 l 1564 836 q 1468 969 1537 913 q 1373 1042 1405 1034 l 1336 1065 m 1303 1042 q 1291 1017 1303 1033 l 1597 715 l 1594 722 q 1597 733 1597 729 q 1586 748 1594 733 l 1590 755 q 1306 1042 1590 765 l 1303 1042 m 1277 984 l 1270 951 q 1383 851 1353 867 q 1491 730 1466 785 l 1601 623 l 1601 659 q 1277 984 1424 842 m 827 954 q 908 873 827 949 q 938 884 938 876 q 871 951 933 884 l 864 947 l 857 947 l 846 954 l 827 954 m 758 932 l 831 862 l 864 866 q 787 943 864 871 l 768 943 q 758 932 763 943 m 938 939 l 934 932 l 985 884 l 1008 884 q 1015 892 1015 884 q 956 936 994 924 q 938 939 944 936 m 694 910 q 758 848 694 905 l 791 851 q 720 921 791 856 l 717 921 q 694 910 694 919 m 661 892 q 647 880 661 880 l 647 869 q 717 836 663 836 q 661 892 717 841 m 1535 637 l 1535 633 q 1542 612 1535 627 l 1538 612 q 1594 542 1538 587 q 1597 560 1594 554 l 1594 560 l 1597 568 l 1597 574 q 1535 637 1597 579 m 1557 527 l 1557 501 q 1575 471 1557 481 l 1583 497 l 1583 501 q 1557 527 1583 507 m 967 460 l 967 457 l 1038 391 q 1044 398 1038 398 l 1044 420 q 967 460 1013 460 m 886 453 l 971 365 q 1000 380 1000 374 l 920 457 l 905 457 l 886 453 m 820 435 l 820 431 q 905 347 820 426 q 934 357 932 347 l 849 438 q 820 435 829 435 m 753 406 q 823 335 758 406 q 861 339 825 339 q 779 420 861 344 l 776 420 q 753 406 753 410 m 496 406 l 496 401 q 562 365 506 378 l 570 361 l 573 361 q 532 401 573 366 q 529 398 532 398 l 529 401 l 522 398 l 511 406 l 511 401 l 503 406 l 496 406 m 584 401 l 584 398 q 643 350 631 350 q 676 347 656 347 q 617 394 637 394 l 610 391 q 584 401 610 397 m 676 398 q 753 335 728 335 l 758 335 q 761 339 758 339 q 764 335 761 335 l 764 339 l 772 335 l 776 335 q 713 398 776 340 l 676 398 z "},"%":{"ha":1820,"x_min":20,"x_max":1800,"o":"m 1059 1875 l 1067 1875 l 1078 1868 q 1093 1872 1080 1868 q 1277 1802 1169 1835 q 1491 1739 1289 1790 q 1605 1717 1504 1739 l 1638 1717 q 1649 1706 1643 1717 l 1649 1699 l 1634 1673 q 1601 1610 1626 1673 q 1550 1489 1567 1559 q 1501 1396 1501 1430 q 1461 1301 1487 1396 q 1439 1249 1445 1280 q 1402 1175 1428 1248 q 1321 987 1359 1057 q 1306 943 1321 979 q 1247 810 1268 842 l 1247 789 q 1225 741 1240 789 q 1177 645 1216 734 q 1118 523 1126 526 q 1093 457 1093 469 q 1067 398 1083 457 q 1034 335 1034 351 q 964 191 1019 286 l 960 191 l 960 173 q 901 55 946 136 q 894 44 901 44 l 897 37 q 882 3 890 37 q 827 -100 874 1 q 772 -232 798 -138 l 750 -269 l 753 -277 q 709 -354 718 -354 l 699 -361 l 680 -357 l 680 -361 q 625 -332 639 -332 q 396 -229 610 -319 q 219 -162 380 -215 q 179 -136 179 -141 l 179 -129 q 231 -33 179 -116 q 249 3 231 -14 q 245 7 245 3 q 290 92 258 19 q 319 147 307 132 q 437 401 404 351 q 522 589 473 495 l 517 597 l 517 600 q 536 641 525 600 l 581 763 q 614 836 588 768 l 658 939 l 654 939 q 687 1013 687 996 l 687 1028 q 728 1113 699 1028 q 758 1183 739 1113 q 764 1190 764 1183 l 761 1190 q 768 1212 768 1202 l 768 1223 l 776 1223 l 776 1245 q 791 1271 791 1266 l 787 1271 q 805 1315 798 1308 l 817 1348 q 812 1352 812 1348 q 831 1396 831 1369 l 835 1396 q 831 1400 835 1400 q 868 1529 831 1413 q 912 1625 868 1579 q 1038 1846 912 1630 q 1059 1875 1051 1873 m 1096 1761 q 1082 1735 1082 1744 q 1324 1499 1318 1500 q 1365 1492 1339 1499 q 1096 1761 1212 1650 m 1155 1754 q 1428 1485 1417 1485 q 1453 1481 1439 1485 q 1457 1492 1453 1485 q 1203 1739 1210 1738 q 1155 1754 1162 1754 m 1284 1713 q 1476 1522 1290 1703 q 1487 1551 1482 1531 q 1336 1695 1342 1695 q 1288 1713 1299 1704 l 1284 1713 m 1059 1710 l 1044 1684 q 1218 1522 1206 1522 q 1255 1514 1235 1514 q 1059 1710 1253 1520 m 473 1702 q 485 1699 481 1699 q 496 1702 492 1702 l 496 1699 l 503 1702 q 706 1573 616 1702 q 746 1452 734 1531 l 746 1396 q 713 1234 746 1366 q 680 1131 706 1192 q 617 1017 680 1087 q 581 972 606 1008 q 429 892 537 928 q 304 884 368 884 q 223 906 279 899 q 102 998 157 939 q 31 1120 76 1035 l 35 1120 q 20 1183 20 1171 q 24 1186 20 1186 l 20 1201 q 24 1249 24 1232 l 20 1249 l 31 1278 l 28 1278 q 98 1407 41 1334 q 134 1463 121 1433 l 164 1496 q 252 1592 164 1516 q 473 1702 363 1702 m 1406 1680 l 1406 1676 l 1501 1584 q 1512 1614 1501 1593 q 1450 1666 1462 1666 q 1409 1680 1409 1674 l 1406 1680 m 1023 1654 q 1011 1628 1023 1647 q 1111 1548 1090 1548 q 1141 1540 1137 1540 q 1026 1654 1141 1545 l 1023 1654 m 466 1647 q 658 1455 472 1636 q 581 1569 658 1508 q 499 1643 515 1643 q 466 1647 479 1647 m 396 1625 l 661 1363 l 661 1367 l 658 1389 q 661 1404 661 1396 q 422 1640 659 1406 q 396 1625 396 1634 m 345 1592 q 444 1529 393 1529 q 367 1607 444 1534 q 345 1592 352 1592 m 300 1544 q 323 1529 315 1529 q 352 1533 326 1529 q 323 1563 352 1537 l 319 1563 q 300 1544 314 1563 m 768 965 l 772 965 q 728 877 745 877 l 728 854 q 724 851 728 851 l 728 844 q 702 777 716 823 q 647 652 670 720 q 650 641 650 645 q 610 556 629 608 q 614 553 614 556 q 584 483 608 553 q 517 342 536 405 q 463 229 488 304 q 440 184 458 229 l 404 100 q 359 3 359 38 q 326 -33 335 -33 l 330 -41 l 330 -44 q 304 -103 304 -73 q 496 -177 458 -159 q 570 -206 522 -177 q 588 -214 578 -206 l 588 -210 l 654 -247 q 713 -107 689 -189 q 732 -70 720 -107 q 761 -15 736 -68 q 798 62 769 -10 q 820 114 817 87 q 882 247 840 138 q 923 324 909 305 q 967 424 951 396 q 964 427 964 424 q 1015 530 979 436 q 1030 560 1019 530 q 1085 678 1070 634 l 1096 700 q 1093 704 1093 700 q 1129 763 1110 714 q 1229 991 1162 847 q 1255 1054 1229 1008 q 1303 1157 1291 1151 q 1329 1219 1308 1158 q 1358 1286 1338 1255 q 1398 1393 1398 1379 q 1270 1411 1398 1399 q 1251 1419 1270 1415 q 1247 1415 1247 1419 q 1100 1459 1221 1415 q 960 1496 1036 1459 l 956 1496 q 927 1426 947 1494 q 894 1301 905 1390 q 868 1223 882 1301 q 823 1083 853 1192 q 802 1042 817 1083 q 787 1006 794 1042 q 772 969 779 1006 q 768 965 768 969 m 400 1455 l 400 1459 q 256 1400 341 1444 q 208 1367 246 1387 l 149 1312 q 109 1201 128 1282 q 113 1198 113 1201 q 105 1190 105 1196 l 105 1164 q 123 1120 111 1120 q 267 987 147 1049 q 311 980 300 980 q 363 991 311 988 q 452 1028 404 1002 l 452 1024 q 555 1109 555 1072 q 588 1190 575 1136 l 591 1212 q 573 1286 584 1230 l 576 1286 q 488 1444 545 1409 q 437 1463 470 1457 l 426 1463 l 400 1455 m 326 1286 l 334 1286 q 404 1253 404 1275 q 418 1223 412 1247 l 407 1201 q 411 1198 411 1201 q 378 1164 405 1198 l 345 1157 l 341 1157 q 278 1216 278 1192 q 326 1286 290 1286 m 1520 574 l 1527 571 q 1538 574 1535 574 q 1542 571 1538 571 l 1542 574 l 1550 571 l 1557 571 q 1792 383 1730 571 q 1800 350 1800 359 l 1800 276 q 1748 70 1770 70 q 1733 41 1748 64 l 1737 33 q 1686 -59 1706 -12 q 1682 -62 1682 -59 l 1686 -62 l 1627 -147 q 1516 -251 1567 -218 l 1413 -295 q 1383 -298 1388 -295 l 1383 -295 q 1347 -302 1367 -302 q 1137 -225 1258 -302 q 1089 -184 1137 -220 q 989 -18 1015 -111 q 993 -15 989 -15 l 989 -7 q 993 3 993 0 l 989 3 q 1078 280 1013 158 q 1162 394 1084 317 q 1192 424 1168 394 l 1236 453 l 1329 516 q 1476 571 1388 545 l 1476 568 l 1483 571 l 1516 571 q 1520 574 1520 571 m 1512 516 l 1512 512 q 1715 309 1560 460 l 1719 309 l 1719 313 q 1715 317 1719 317 l 1719 324 q 1660 401 1719 355 q 1546 516 1660 406 l 1512 516 m 1601 512 q 1704 409 1601 507 l 1704 412 q 1601 512 1662 512 m 1447 486 q 1623 332 1569 363 q 1664 269 1640 315 l 1708 229 q 1712 265 1708 233 q 1468 501 1475 501 q 1447 486 1447 492 m 1388 464 l 1388 460 q 1457 412 1422 412 l 1476 409 l 1413 475 q 1388 464 1391 464 m 1332 427 q 1343 416 1332 422 l 1380 416 q 1350 442 1362 442 q 1332 427 1334 435 m 1082 -7 l 1085 -15 l 1085 -18 l 1082 -26 q 1085 -30 1085 -26 q 1078 -37 1078 -31 q 1107 -100 1078 -39 q 1247 -210 1204 -210 q 1280 -225 1263 -225 l 1317 -225 q 1487 -162 1394 -225 q 1550 -103 1487 -157 q 1575 -44 1550 -94 l 1597 -7 q 1623 96 1623 64 q 1571 291 1600 262 q 1498 339 1531 332 l 1498 335 q 1465 347 1478 347 l 1447 342 l 1428 347 l 1406 342 l 1406 347 q 1255 288 1285 326 q 1203 236 1255 282 q 1162 184 1178 213 q 1111 100 1154 181 q 1082 -7 1111 87 m 1339 140 l 1369 140 l 1380 132 l 1402 132 q 1432 100 1402 123 q 1439 55 1439 62 q 1421 26 1430 55 q 1358 -4 1375 -4 l 1350 -4 q 1291 66 1291 17 l 1291 77 q 1339 140 1297 110 z "},"&":{"ha":2167,"x_min":20,"x_max":2146,"o":"m 1284 1769 q 1395 1754 1303 1761 q 1638 1610 1501 1723 q 1708 1466 1708 1516 q 1719 1304 1719 1367 q 1597 943 1719 1172 q 1542 869 1555 876 q 1535 848 1535 854 q 1830 667 1792 667 q 1933 619 1880 633 l 1936 612 q 1841 427 1894 509 l 1841 420 q 1947 361 1847 406 q 2131 273 2082 301 q 2146 262 2146 271 q 2117 199 2146 248 q 2025 -56 2072 96 q 1988 -81 2019 -71 q 1947 -103 1988 -85 l 1836 -184 q 1730 -273 1785 -231 q 1612 -383 1653 -358 q 1568 -427 1612 -392 q 1509 -468 1550 -449 q 1461 -424 1505 -468 q 1380 -368 1449 -424 q 1303 -324 1375 -368 q 1244 -288 1257 -289 q 1144 -229 1209 -254 q 1052 -180 1085 -189 q 1038 -170 1052 -177 l 1019 -170 q 949 -206 1008 -170 q 890 -232 928 -206 q 787 -262 845 -251 q 735 -277 772 -272 q 647 -302 723 -286 q 635 -306 647 -306 l 599 -306 q 584 -309 591 -306 l 573 -309 l 573 -313 l 570 -313 l 525 -317 q 522 -313 525 -313 q 517 -317 522 -317 l 517 -313 q 407 -328 494 -319 q 374 -324 387 -324 l 359 -324 q 355 -328 355 -324 q 352 -324 352 -328 l 334 -328 l 330 -328 q 205 -291 285 -328 l 120 -239 q 90 -195 90 -203 q 31 -56 52 -167 q 20 44 20 12 q 28 85 20 48 l 28 106 l 35 106 l 31 114 q 46 151 31 127 l 43 151 l 75 247 q 123 309 78 260 q 179 387 123 321 q 208 424 197 399 q 311 519 290 489 q 238 692 238 652 q 219 777 238 706 q 223 781 219 781 l 208 840 l 212 862 l 212 888 q 238 984 219 899 q 267 1042 242 984 q 330 1142 292 1098 l 341 1142 l 341 1146 l 334 1146 q 341 1153 335 1153 q 345 1149 341 1149 l 345 1153 q 341 1157 341 1153 l 359 1172 l 370 1172 q 381 1194 373 1194 l 389 1190 l 407 1216 q 404 1219 404 1216 q 452 1275 412 1219 q 562 1381 560 1373 l 743 1514 l 743 1518 l 750 1514 q 846 1581 796 1553 q 949 1658 937 1658 q 985 1676 949 1664 q 989 1680 985 1680 l 993 1680 l 1000 1676 q 1115 1728 1011 1697 q 1284 1769 1200 1769 m 1244 1662 q 1619 1286 1431 1470 l 1623 1293 q 1619 1308 1623 1301 q 1623 1322 1623 1314 q 1280 1658 1286 1658 l 1265 1662 l 1259 1658 q 1244 1662 1252 1662 m 1162 1654 q 1402 1419 1392 1419 q 1479 1371 1457 1389 l 1483 1371 q 1196 1658 1320 1538 q 1185 1654 1189 1654 l 1185 1658 q 1162 1654 1179 1654 m 1343 1651 q 1627 1367 1494 1495 q 1575 1455 1627 1420 q 1383 1643 1394 1643 q 1343 1651 1348 1651 m 1100 1632 l 1100 1628 q 1259 1474 1249 1474 q 1295 1463 1287 1463 l 1303 1463 q 1126 1640 1300 1470 l 1115 1640 q 1100 1632 1105 1632 m 1461 1621 l 1461 1617 l 1609 1474 q 1542 1563 1609 1520 q 1461 1621 1514 1596 m 1041 1599 q 1159 1485 1149 1485 q 1188 1481 1179 1481 l 1192 1489 l 1067 1610 l 1063 1610 q 1041 1599 1048 1599 m 1008 1581 q 985 1569 1008 1573 l 985 1566 l 1070 1478 q 1107 1481 1090 1481 q 1008 1581 1107 1486 m 930 1536 l 930 1533 q 997 1470 986 1470 q 1026 1474 1000 1470 q 953 1548 1026 1478 q 930 1536 939 1536 m 875 1499 q 923 1452 875 1494 l 938 1452 l 956 1455 l 901 1514 q 875 1499 880 1499 m 823 1459 l 857 1430 l 871 1430 l 879 1433 q 882 1430 879 1430 l 886 1437 q 846 1478 886 1442 q 823 1459 823 1465 m 772 1422 q 791 1407 788 1407 q 820 1415 814 1415 q 794 1440 820 1420 q 772 1422 772 1427 m 979 1371 q 975 1374 975 1371 q 555 1190 679 1284 q 448 1101 499 1156 q 341 954 378 1056 q 319 854 333 943 q 334 707 334 765 q 367 630 339 707 q 389 586 372 629 q 448 497 448 513 l 444 497 l 448 490 l 448 486 q 400 460 444 477 q 352 424 352 430 q 315 387 351 418 q 271 347 315 380 q 223 288 258 317 q 164 195 223 277 q 131 88 164 184 q 116 22 131 68 l 120 15 q 113 -15 113 -9 l 120 -41 l 116 -41 q 168 -144 127 -106 q 197 -166 172 -144 q 330 -239 274 -239 q 404 -247 330 -242 q 492 -232 492 -239 l 499 -236 q 743 -184 612 -221 l 842 -144 q 846 -147 842 -147 q 949 -100 846 -142 q 1041 -66 1002 -77 q 1137 -115 1101 -84 q 1174 -136 1159 -115 l 1251 -173 q 1317 -218 1294 -209 q 1465 -313 1464 -309 q 1494 -342 1494 -336 l 1506 -342 q 1612 -254 1609 -254 q 1671 -195 1612 -250 l 1771 -115 q 1874 -33 1858 -52 l 1877 -33 q 1844 -11 1877 -26 q 1715 70 1831 3 q 1660 96 1715 75 l 1656 103 l 1649 100 l 1524 159 q 1476 199 1519 174 l 1476 214 q 1509 247 1476 220 q 1506 250 1506 247 q 1542 273 1537 273 q 1623 347 1610 322 q 1491 406 1581 370 q 1465 416 1491 412 q 1391 460 1460 425 q 1343 486 1388 467 q 1262 401 1289 458 q 1218 368 1255 389 l 1200 368 q 1052 460 1072 460 q 1023 505 1023 486 l 1023 516 q 1078 549 1051 545 q 1107 560 1078 556 q 1177 604 1136 587 q 1324 737 1324 730 l 1369 789 q 1421 866 1389 810 q 1447 906 1432 869 q 1479 980 1459 906 l 1501 1076 q 1516 1135 1504 1077 l 1512 1135 l 1520 1153 q 1516 1157 1520 1157 l 1520 1172 q 1461 1301 1495 1301 q 1339 1381 1389 1369 q 1336 1378 1339 1378 q 1270 1400 1336 1385 l 1262 1396 q 1229 1404 1237 1400 q 1225 1393 1225 1396 l 1221 1393 l 1221 1404 l 1174 1404 q 1159 1407 1165 1404 q 979 1371 1069 1400 m 1557 1297 l 1557 1293 q 1594 1219 1571 1284 q 1612 1205 1610 1205 q 1619 1238 1619 1232 l 1557 1297 m 982 1065 q 1030 1050 982 1057 q 1093 977 1093 1013 q 1100 958 1093 967 q 1082 913 1096 958 q 1015 836 1082 897 q 964 795 1001 815 q 941 777 964 781 l 930 770 l 901 770 q 861 785 885 770 q 831 825 831 802 q 805 910 805 844 l 805 918 q 817 939 808 939 l 812 947 q 879 1024 830 976 q 982 1065 970 1065 m 938 943 q 923 921 938 939 q 949 895 923 916 q 967 918 949 904 l 938 943 m 1472 759 q 1457 741 1472 754 q 1763 435 1635 557 l 1774 457 l 1774 460 q 1476 759 1640 599 l 1472 759 m 1571 715 l 1571 711 l 1789 497 q 1804 523 1796 497 q 1678 648 1796 526 q 1682 652 1682 648 l 1678 652 l 1678 648 q 1586 711 1595 699 l 1579 707 q 1571 715 1579 715 m 1417 692 q 1686 427 1675 427 q 1741 401 1710 414 l 1741 406 q 1435 711 1563 588 q 1417 692 1430 711 m 1373 652 l 1373 648 q 1538 486 1529 486 q 1597 460 1592 460 l 1597 464 l 1391 667 q 1373 652 1373 657 m 1329 600 q 1435 534 1348 581 l 1435 538 q 1350 623 1430 538 q 1329 600 1338 620 m 1778 597 l 1778 593 l 1822 553 q 1830 574 1830 565 l 1830 578 q 1792 593 1816 578 l 1792 589 l 1778 597 m 1778 332 q 1999 111 1779 326 q 2006 144 2006 138 l 1804 342 l 1789 342 q 1778 332 1784 342 m 1727 298 l 1727 295 q 1973 48 1837 179 l 1977 48 q 1984 77 1977 54 l 1745 313 q 1727 298 1728 306 m 1903 295 l 1903 291 l 2018 180 q 2028 199 2018 199 l 2028 206 q 1910 291 1976 270 l 1903 295 m 1678 250 q 1822 121 1806 121 l 1877 88 l 1881 88 q 1700 269 1881 94 l 1678 250 m 1642 217 q 1693 188 1676 188 q 1653 229 1693 193 q 1642 217 1647 229 m 694 206 q 743 159 694 195 l 812 92 q 835 66 835 92 q 724 26 755 45 l 706 18 q 702 22 702 18 q 640 15 654 15 q 584 77 584 15 q 676 206 584 131 l 694 206 z "},"'":{"ha":861,"x_min":20,"x_max":841,"o":"m 815 1937 l 815 1933 l 823 1937 q 841 1900 831 1936 l 838 1874 l 838 1771 q 841 1756 838 1763 q 808 1389 829 1524 q 705 1086 780 1248 q 524 865 616 964 q 488 818 516 840 q 374 711 453 757 q 340 682 344 682 l 340 686 q 234 649 271 648 l 230 649 q 175 669 175 660 l 175 677 q 197 890 186 693 l 197 970 q 201 1004 197 984 q 197 1015 197 1010 q 204 1044 199 1044 l 201 1052 l 201 1088 q 193 1096 201 1096 q 131 1090 131 1095 l 123 1094 l 113 1095 l 101 1087 l 75 1088 q 28 1127 38 1109 l 28 1160 q 24 1175 28 1168 q 28 1179 24 1179 l 24 1197 l 24 1204 q 28 1208 24 1208 q 20 1256 24 1213 q 28 1285 20 1263 q 24 1300 24 1291 l 28 1300 l 24 1308 q 28 1311 24 1311 l 24 1318 q 28 1322 24 1322 l 24 1329 l 24 1436 q 28 1451 24 1444 q 24 1461 24 1458 q 28 1499 24 1479 q 24 1554 24 1535 q 28 1616 28 1604 q 24 1620 28 1620 l 28 1638 l 28 1693 q 64 1736 28 1722 q 116 1786 64 1757 q 201 1868 196 1868 q 237 1908 232 1908 l 815 1937 m 609 1848 q 668 1787 609 1843 l 671 1787 q 683 1812 683 1809 l 646 1847 l 609 1848 m 528 1843 q 616 1752 528 1838 l 624 1752 q 646 1762 643 1751 l 565 1842 l 528 1843 m 447 1839 q 528 1758 518 1759 q 557 1761 543 1762 q 477 1841 486 1841 q 447 1839 450 1839 m 366 1834 q 447 1750 366 1828 q 477 1756 451 1750 q 399 1836 477 1761 q 366 1834 380 1833 m 289 1824 q 374 1738 289 1820 l 407 1740 l 322 1831 q 289 1824 315 1828 m 245 1820 l 230 1797 l 286 1737 q 322 1740 304 1740 q 245 1820 322 1744 m 201 1776 q 186 1754 201 1773 q 208 1731 186 1749 l 245 1731 q 201 1776 245 1736 m 730 1759 l 716 1734 l 764 1688 l 764 1725 q 730 1759 764 1730 m 697 1705 l 694 1687 l 694 1672 q 756 1608 694 1668 l 760 1645 l 697 1705 m 477 1672 l 477 1676 q 454 1666 454 1674 l 447 1669 l 444 1669 q 440 1666 440 1669 q 436 1670 436 1666 l 418 1667 l 395 1671 l 389 1668 q 385 1671 385 1668 q 319 1666 334 1665 l 319 1658 l 216 1662 q 175 1655 211 1662 l 171 1655 q 168 1659 168 1655 l 160 1655 l 123 1657 l 105 1654 l 105 1580 q 101 1566 105 1572 q 105 1551 105 1559 l 105 1518 q 101 1514 105 1514 l 105 1507 l 105 1444 q 109 1440 105 1440 l 105 1433 l 105 1393 q 113 1360 105 1383 q 105 1352 105 1358 l 105 1272 q 109 1267 105 1267 l 105 1260 l 105 1223 q 109 1220 105 1220 l 105 1213 l 105 1208 q 109 1205 105 1205 l 105 1198 l 105 1194 q 109 1190 105 1190 l 105 1183 q 116 1172 105 1178 l 138 1171 q 157 1175 151 1171 l 178 1170 l 193 1169 q 281 1174 213 1168 q 315 1154 315 1170 q 304 1085 311 1103 l 307 1085 q 300 1063 300 1073 l 300 934 q 296 920 300 926 q 300 905 300 913 l 296 905 l 300 897 l 300 871 q 289 776 293 835 q 286 769 286 777 l 296 761 q 403 868 378 830 q 466 958 408 868 q 532 1078 505 1019 q 528 1081 528 1078 q 562 1198 538 1087 l 565 1198 l 562 1206 q 565 1209 562 1209 q 562 1220 562 1217 q 576 1260 562 1227 l 572 1260 q 580 1304 575 1266 l 576 1304 q 587 1348 581 1312 q 583 1363 583 1355 q 594 1462 594 1400 q 598 1466 598 1462 l 594 1466 l 598 1473 q 609 1598 602 1598 q 606 1602 609 1602 q 609 1657 609 1638 l 609 1683 q 591 1687 597 1683 q 477 1672 493 1683 m 694 1621 l 694 1584 q 742 1534 694 1579 q 749 1567 749 1562 l 694 1621 m 690 1536 q 686 1514 686 1517 q 730 1458 686 1494 l 734 1495 l 690 1536 m 683 1452 q 679 1434 683 1434 q 712 1388 679 1414 q 720 1421 720 1412 l 686 1452 l 683 1452 m 679 1371 l 675 1353 l 675 1338 q 690 1323 675 1333 q 697 1352 690 1326 q 679 1371 697 1356 z "},"(":{"ha":1160,"x_min":20,"x_max":1139,"o":"m 845 2003 l 852 2003 q 878 1988 852 1996 q 937 1878 878 1981 q 1081 1643 968 1809 q 1088 1635 1081 1635 q 1059 1576 1088 1622 q 970 1370 1008 1438 q 948 1355 970 1355 l 948 1359 q 893 1300 893 1322 q 812 1131 859 1251 q 790 1076 800 1118 q 793 1072 793 1076 q 760 991 788 1067 q 716 785 716 861 l 716 733 l 720 707 l 713 707 q 727 633 718 689 l 724 633 q 808 394 768 439 q 966 107 827 343 q 1040 -26 981 91 q 1139 -176 1051 -35 l 1139 -180 q 1074 -342 1139 -194 q 1044 -416 1067 -374 l 1044 -420 l 1048 -434 q 904 -552 1048 -437 q 783 -663 783 -655 q 772 -677 772 -667 q 727 -707 748 -677 q 709 -722 716 -707 q 661 -747 667 -747 l 580 -699 q 455 -589 578 -693 q 333 -449 333 -457 q 252 -335 313 -431 q 212 -258 242 -327 q 168 -173 189 -239 l 168 -162 q 138 -103 159 -162 q 120 -58 130 -75 q 123 -55 123 -58 q 83 66 117 -55 q 75 89 83 80 l 79 89 q 31 350 57 138 q 24 357 24 350 l 24 368 q 28 372 24 372 l 24 380 l 24 431 q 20 471 24 446 q 24 483 24 479 q 20 486 24 486 l 28 530 l 24 538 q 28 541 24 541 l 24 560 l 24 567 l 28 574 q 24 578 24 574 q 31 586 31 578 q 28 589 28 586 l 31 589 q 28 593 31 593 q 46 696 28 596 l 43 696 q 46 707 46 703 q 43 711 46 711 l 46 729 l 46 733 q 43 747 46 741 q 75 873 54 800 q 149 1134 87 959 q 281 1432 201 1301 q 392 1594 392 1590 q 558 1775 482 1689 q 624 1837 593 1817 q 724 1933 626 1848 q 845 2003 807 1995 m 816 1826 q 1004 1643 1000 1645 q 1007 1646 1004 1646 q 956 1731 998 1669 l 830 1852 q 816 1826 823 1852 m 642 1749 l 642 1746 l 646 1746 q 705 1786 651 1746 q 724 1808 718 1786 q 734 1834 734 1826 l 731 1834 q 642 1749 694 1807 m 798 1797 l 786 1767 l 978 1579 q 989 1609 989 1605 l 798 1797 m 786 1720 q 830 1635 814 1673 l 952 1517 q 959 1547 952 1520 q 786 1720 959 1552 m 172 880 l 172 876 q 175 873 172 873 q 160 814 168 823 l 164 814 q 138 711 149 770 l 142 703 l 138 696 l 142 689 q 138 677 138 682 l 142 677 l 138 670 q 142 659 142 663 l 138 659 q 142 648 142 652 q 123 512 130 648 l 123 497 q 116 490 123 490 l 120 483 l 120 453 l 116 431 q 120 416 120 425 l 116 409 l 123 365 l 120 357 l 131 309 q 127 306 131 306 q 142 254 134 262 l 142 229 q 157 162 152 162 q 153 159 157 159 q 190 41 160 119 l 186 41 l 190 33 q 186 30 190 30 l 208 -29 q 237 -103 237 -94 l 234 -103 l 275 -191 q 271 -202 271 -198 q 322 -283 310 -251 q 381 -372 362 -349 q 418 -427 382 -388 q 528 -545 444 -465 q 661 -663 595 -617 q 694 -637 676 -656 q 823 -519 736 -605 q 860 -490 834 -519 q 897 -456 864 -490 q 941 -420 932 -420 q 915 -364 941 -411 q 827 -188 900 -351 l 798 -132 q 768 -70 798 -119 l 727 33 l 720 45 l 724 45 q 661 229 687 127 q 665 232 665 229 q 646 291 646 259 q 624 354 630 354 l 624 357 q 628 361 624 361 q 621 380 624 380 l 624 387 l 624 394 q 616 438 624 413 l 621 438 l 610 494 l 610 501 q 613 505 610 505 q 602 571 606 527 l 606 571 q 598 641 598 588 q 610 718 598 668 l 606 718 l 613 759 q 610 773 610 765 q 631 884 616 784 q 668 1009 650 972 q 665 1013 668 1013 q 687 1061 667 1034 q 764 1263 710 1158 q 845 1392 810 1358 q 849 1403 845 1396 q 827 1444 842 1403 l 830 1444 q 790 1532 790 1515 q 731 1643 758 1573 q 705 1679 716 1679 q 661 1638 696 1678 q 628 1609 654 1638 q 558 1543 606 1601 q 543 1528 553 1543 q 492 1480 517 1516 q 385 1359 465 1463 l 311 1249 q 281 1197 311 1241 q 219 1035 281 1187 q 172 880 186 914 m 882 1535 l 882 1528 q 915 1470 896 1495 q 926 1455 917 1455 l 930 1455 q 937 1484 930 1464 l 882 1535 m 724 357 l 724 332 q 764 291 724 327 l 764 295 q 727 357 749 295 l 724 357 m 742 262 l 742 251 q 757 206 747 242 l 886 81 l 886 85 q 834 170 834 154 q 742 262 834 175 m 779 136 q 798 85 798 88 q 793 81 793 85 l 1022 -143 l 1022 -140 q 907 12 965 -52 l 779 136 m 834 -7 l 834 -11 q 893 -106 857 -77 l 1029 -239 q 1036 -206 1029 -236 l 834 -7 m 907 -169 l 907 -173 q 952 -254 911 -173 l 1004 -302 l 1015 -279 l 1015 -276 q 907 -169 1015 -271 z "},")":{"ha":1079,"x_min":20,"x_max":1059,"o":"m 345 1908 q 410 1878 376 1887 q 539 1779 425 1863 q 668 1664 563 1751 q 798 1514 798 1521 q 996 1156 962 1291 q 1036 950 1025 1058 q 1055 847 1051 892 q 1051 844 1055 844 q 1059 718 1059 803 l 1059 663 q 1055 589 1059 639 l 1059 589 q 1055 578 1055 582 q 1004 328 1055 522 q 875 -26 986 254 q 812 -155 858 -49 q 739 -283 798 -167 q 602 -456 678 -368 q 606 -460 606 -456 q 562 -500 583 -474 q 492 -574 553 -500 q 359 -666 368 -666 q 304 -684 359 -675 l 281 -629 q 267 -614 273 -629 q 237 -555 267 -595 q 123 -372 199 -478 l 72 -294 l 72 -283 q 146 -165 111 -214 q 164 -125 157 -158 q 182 -92 172 -125 l 212 -37 q 237 33 223 11 l 237 52 q 267 140 250 53 q 278 174 271 140 l 275 174 q 286 225 283 225 l 281 232 l 281 236 l 289 236 l 289 309 q 293 313 289 313 l 289 321 l 289 324 l 296 335 l 296 342 q 293 347 296 347 l 296 354 l 296 457 q 293 509 296 477 q 296 519 296 515 l 293 519 q 296 530 296 526 q 289 582 289 570 l 289 608 q 286 612 289 612 l 289 618 l 289 637 q 267 777 278 680 q 263 781 263 777 l 267 788 q 234 935 267 791 l 237 935 q 230 965 230 949 l 230 972 l 223 972 q 227 976 223 976 q 216 1013 222 999 l 219 1013 l 208 1035 l 212 1042 q 190 1108 206 1042 q 109 1263 149 1192 q 94 1278 99 1263 q 24 1348 94 1289 l 20 1355 l 20 1370 q 146 1584 71 1468 q 212 1712 161 1596 q 311 1867 256 1770 q 337 1908 330 1881 l 345 1908 m 385 1811 q 374 1786 385 1808 l 830 1333 l 808 1370 q 716 1488 779 1426 l 389 1811 l 385 1811 m 345 1727 q 907 1167 901 1173 l 907 1171 q 842 1274 901 1219 l 359 1753 q 345 1727 352 1753 m 296 1643 q 252 1569 267 1599 q 201 1495 228 1546 q 160 1432 183 1475 q 142 1396 151 1432 q 113 1344 113 1371 q 175 1285 158 1324 q 197 1263 177 1271 q 223 1219 197 1253 q 278 1116 255 1147 l 275 1116 l 300 1064 q 296 1050 296 1058 q 315 991 304 1050 q 333 906 328 960 q 359 795 340 897 q 370 722 368 795 l 370 707 q 378 700 371 700 l 374 692 l 374 689 l 389 608 l 389 567 q 396 527 389 541 l 389 505 l 392 505 l 389 497 l 396 486 l 396 475 q 404 427 396 444 q 389 317 395 340 l 392 317 l 389 309 q 392 306 389 306 l 389 291 q 392 269 392 272 q 385 225 385 240 l 389 225 q 381 203 381 210 q 385 199 381 199 q 370 115 370 140 q 355 74 365 115 q 326 -11 337 1 q 260 -169 260 -165 q 223 -228 237 -184 q 178 -302 182 -276 l 172 -302 l 172 -305 q 234 -397 189 -326 q 300 -497 297 -475 q 319 -530 319 -517 q 340 -559 338 -559 q 440 -486 355 -559 q 495 -427 440 -477 q 565 -338 541 -378 q 598 -287 574 -335 q 635 -235 607 -287 q 749 -29 674 -176 q 753 -26 753 -29 q 749 -22 749 -26 q 798 125 772 -2 q 823 188 802 128 l 819 195 l 819 199 q 838 291 819 234 l 838 354 l 842 372 q 838 376 838 372 q 842 380 842 376 l 838 380 q 845 401 845 391 l 842 401 l 845 409 l 845 494 q 842 497 845 497 l 845 505 l 845 512 q 842 515 845 515 q 849 527 845 527 l 845 534 q 852 593 852 590 l 849 608 q 852 623 852 614 q 849 626 849 623 l 852 626 q 845 637 849 637 q 849 641 845 641 q 842 670 842 669 l 845 670 q 838 700 838 684 l 838 726 q 816 818 827 726 q 764 947 779 891 q 768 950 768 947 q 724 1042 762 951 q 709 1079 713 1042 q 675 1131 683 1131 q 680 1134 675 1134 q 642 1204 680 1138 l 606 1259 q 440 1488 559 1350 q 366 1579 409 1515 q 307 1635 359 1579 l 296 1643 m 543 1480 l 543 1476 q 565 1451 549 1476 q 639 1355 592 1424 q 860 1123 652 1331 l 945 1042 l 945 1046 q 889 1138 938 1094 l 543 1480 m 739 1197 q 838 1061 765 1120 q 959 939 839 1055 q 930 1005 948 1005 q 739 1197 924 1016 m 819 1027 l 819 1024 q 845 976 823 1006 q 882 928 845 956 q 974 836 882 923 l 974 847 l 970 865 l 974 865 q 819 1027 974 880 m 878 880 l 878 862 q 893 844 889 862 q 889 840 889 844 q 985 736 909 805 l 985 741 q 974 759 977 759 l 978 766 l 978 781 q 878 880 978 785 m 919 751 q 978 656 919 700 l 978 692 q 919 751 978 697 m 945 637 l 945 600 q 974 571 945 595 q 978 600 974 597 q 945 637 978 610 m 948 545 l 948 541 l 952 541 l 948 534 l 948 509 q 963 494 948 503 l 966 501 l 966 527 q 948 545 966 532 z "},"+":{"ha":1605,"x_min":20,"x_max":1585,"o":"m 871 1414 q 922 1411 902 1411 l 959 1414 l 1025 1407 q 1136 1411 1090 1411 l 1236 1411 q 1254 1370 1236 1404 l 1239 1101 l 1239 1038 l 1242 1031 q 1489 1038 1325 1035 q 1585 1017 1585 1038 l 1585 965 l 1581 958 l 1585 958 l 1581 950 l 1581 888 q 1574 785 1581 848 q 1577 755 1577 764 l 1574 755 q 1577 751 1574 751 l 1571 692 q 1574 674 1574 686 q 1571 670 1571 674 l 1574 670 q 1571 667 1574 667 l 1574 644 q 1581 541 1574 598 l 1577 541 l 1581 534 l 1581 483 q 1463 269 1581 455 q 1423 184 1463 260 q 1390 155 1415 155 l 1360 155 q 1305 151 1342 155 l 1305 155 q 1246 148 1289 148 l 1224 148 q 1213 118 1213 145 l 1213 115 q 1217 96 1213 102 q 1154 -40 1217 54 q 1103 -129 1154 -50 q 1077 -165 1103 -135 q 1033 -206 1053 -206 l 1025 -206 q 996 -202 1010 -206 l 978 -206 q 901 -202 922 -202 l 893 -206 q 889 -202 889 -206 l 871 -206 l 779 -206 q 745 -214 770 -206 q 742 -210 742 -214 l 536 -228 q 495 -224 511 -224 l 436 -224 q 410 -191 410 -211 l 414 -169 l 410 -151 q 414 -96 414 -114 q 410 -66 414 -86 q 418 0 416 -7 q 414 15 414 7 l 414 41 q 418 56 414 49 q 414 71 414 62 l 418 71 l 414 77 l 418 115 q 414 125 414 121 q 212 115 228 115 l 204 118 q 127 111 185 111 l 75 111 l 64 103 l 50 103 q 20 129 20 103 l 20 159 l 24 195 l 20 195 l 24 203 q 20 214 20 210 l 24 214 l 20 221 q 24 236 20 229 q 20 247 20 243 q 28 269 28 259 l 28 295 l 24 317 q 28 335 28 323 q 24 342 28 342 l 28 368 l 28 442 q 31 457 28 450 q 28 471 28 463 l 28 509 q 31 512 28 512 l 28 519 l 28 530 q 31 549 28 543 l 28 567 q 35 608 35 601 l 31 608 l 35 615 q 31 618 35 618 q 35 623 31 623 l 31 659 l 31 663 q 35 667 31 667 l 28 685 q 35 711 28 692 q 28 733 31 733 q 127 888 28 789 q 201 991 151 933 q 219 1020 214 1020 l 256 1020 q 260 1017 260 1020 l 267 1020 q 311 1017 273 1020 q 315 1020 315 1017 l 340 1017 l 418 1017 q 425 1024 425 1017 l 425 1057 q 422 1061 425 1061 l 425 1068 l 425 1112 q 440 1160 432 1120 q 576 1322 515 1238 q 661 1407 648 1407 l 694 1407 q 871 1414 793 1407 m 838 1329 q 1029 1138 844 1319 q 1048 1160 1035 1138 q 875 1333 1042 1160 q 838 1329 855 1329 m 1099 1333 q 1133 1300 1099 1329 q 1147 1326 1139 1300 l 1136 1333 l 1099 1333 m 930 1326 q 1066 1190 930 1321 q 1077 1219 1077 1212 l 963 1329 l 956 1326 q 941 1329 949 1329 q 930 1326 934 1326 m 668 1322 l 856 1131 q 889 1138 866 1138 l 705 1326 l 698 1322 q 683 1326 690 1322 q 668 1322 677 1322 m 757 1322 q 941 1138 757 1317 l 978 1138 q 790 1326 972 1148 l 775 1326 l 757 1322 m 1022 1322 q 1099 1244 1022 1317 q 1110 1274 1110 1267 l 1055 1326 l 1040 1326 l 1022 1322 m 639 1300 q 624 1274 624 1279 q 768 1131 629 1274 l 783 1138 l 804 1134 q 639 1300 804 1139 m 584 1226 l 680 1134 l 680 1138 q 705 1131 698 1131 q 716 1134 712 1134 q 602 1249 716 1139 q 584 1226 597 1249 m 1151 1230 q 1139 1200 1139 1207 l 1165 1179 q 1173 1200 1168 1200 q 1151 1230 1173 1215 m 562 1197 q 551 1175 562 1188 q 602 1123 551 1169 q 631 1134 631 1126 l 565 1197 l 562 1197 m 1118 1171 q 1107 1145 1107 1149 l 1165 1090 l 1165 1127 q 1121 1171 1165 1132 l 1118 1171 m 1088 1116 l 1084 1108 q 1121 1046 1084 1069 q 1169 998 1121 1040 q 1173 1035 1169 1002 l 1088 1116 m 720 1031 l 569 1031 q 554 1027 561 1031 q 551 1031 551 1027 l 532 1027 l 521 1027 l 521 1009 q 525 1005 521 1005 q 517 965 522 998 q 521 928 521 945 l 521 917 q 517 913 521 913 l 521 906 l 521 891 q 517 888 521 888 l 521 880 q 517 876 521 876 l 521 858 l 521 850 q 517 836 521 842 l 521 829 q 517 818 517 821 l 521 818 q 517 814 521 814 l 521 795 l 517 751 l 521 751 q 517 747 521 747 l 521 729 l 521 711 q 517 707 521 707 l 521 700 l 521 685 q 503 674 521 677 l 484 677 q 462 667 481 667 l 451 667 q 448 670 448 667 q 444 667 444 670 q 363 670 389 670 l 322 670 q 237 667 287 670 l 219 670 q 182 667 200 667 l 157 670 q 131 626 131 670 q 134 615 134 619 q 127 424 134 515 q 131 420 127 420 l 127 383 l 127 321 q 123 306 127 312 l 127 298 q 123 288 127 294 q 127 277 123 283 q 123 236 123 251 l 123 218 l 160 218 q 178 210 178 216 q 307 221 190 216 l 326 218 q 399 221 367 221 l 444 221 q 448 225 448 221 q 517 188 491 225 l 521 188 l 517 170 q 521 162 517 162 l 517 144 q 521 115 517 129 q 517 100 521 113 q 521 19 521 51 q 528 7 528 19 q 536 -129 528 -64 l 591 -129 l 602 -121 l 683 -121 l 694 -114 q 716 -121 704 -114 q 757 -110 716 -114 q 760 -106 757 -106 l 823 -106 q 871 -99 854 -106 q 886 -103 878 -103 l 897 -103 q 901 -99 901 -103 q 904 -103 904 -99 l 930 -99 l 963 -99 q 966 -88 963 -95 l 963 -88 q 974 41 970 -88 l 970 48 q 978 136 978 81 l 978 166 q 970 188 978 176 q 989 251 980 251 q 1018 254 1004 251 q 1033 251 1025 251 q 1036 254 1036 251 q 1118 243 1118 246 l 1125 247 l 1287 247 q 1320 262 1320 254 q 1313 302 1316 294 q 1316 306 1316 302 q 1309 317 1309 306 q 1294 468 1303 468 q 1298 471 1294 471 l 1294 490 l 1294 512 q 1301 541 1294 515 l 1301 582 q 1298 615 1301 595 q 1301 626 1301 623 l 1294 626 l 1294 630 q 1298 633 1294 633 l 1294 641 l 1294 644 q 1298 659 1294 653 q 1294 674 1294 666 l 1147 674 q 1107 670 1132 674 q 1077 674 1103 674 l 1074 674 q 1066 667 1066 673 l 1048 670 l 989 667 q 970 674 977 674 l 970 751 q 978 785 970 760 l 974 785 q 978 795 978 791 q 974 844 974 841 l 978 844 l 974 850 l 974 854 q 978 858 974 858 q 974 862 978 862 q 989 924 979 909 q 985 928 989 928 l 989 947 l 989 965 q 985 968 989 968 l 989 976 q 985 987 985 983 l 989 987 q 985 991 989 991 q 989 1020 989 1011 q 970 1035 985 1035 l 963 1031 l 956 1035 l 948 1031 q 937 1035 941 1035 q 926 1031 933 1035 l 904 1035 q 901 1031 901 1035 l 893 1035 l 882 1035 q 878 1031 878 1035 l 871 1035 l 863 1035 q 860 1031 860 1035 q 856 1035 856 1031 l 830 1031 l 731 1031 q 727 1035 727 1031 l 720 1031 m 1088 1027 l 1088 991 q 1154 924 1088 986 q 1165 954 1165 952 l 1088 1027 m 1390 954 q 1449 895 1390 949 q 1460 924 1449 898 q 1427 958 1455 924 q 1390 954 1407 954 m 1309 950 l 1309 947 q 1412 844 1309 942 l 1419 844 l 1427 869 l 1342 950 l 1309 950 m 1221 947 q 1383 785 1221 941 q 1394 814 1394 803 l 1257 947 l 1242 943 l 1221 947 m 1084 943 q 1081 917 1084 917 q 1118 873 1081 902 l 1121 873 q 1133 891 1121 879 l 1133 895 q 1084 943 1133 900 m 263 935 l 263 932 q 418 777 266 924 q 425 799 425 789 l 425 806 q 296 932 307 932 q 281 935 281 932 l 275 932 q 263 935 267 935 m 352 935 l 352 932 q 418 865 352 927 l 422 865 l 418 873 l 418 895 l 422 902 q 378 935 387 935 l 355 932 q 352 935 355 935 m 1202 913 l 1187 895 l 1187 891 q 1305 773 1188 886 l 1331 773 l 1339 777 q 1342 773 1339 773 l 1342 777 l 1202 913 m 234 909 q 216 891 216 895 q 337 773 327 773 q 355 766 346 773 l 378 766 q 234 909 378 771 m 172 847 q 252 766 172 842 l 263 766 l 281 770 l 281 773 q 190 865 281 779 q 172 847 184 865 m 1169 858 l 1154 832 l 1221 770 l 1257 770 q 1169 858 1257 775 m 1468 825 q 1456 795 1456 806 l 1497 759 l 1497 766 q 1493 781 1497 774 l 1497 788 q 1468 825 1497 802 m 146 818 q 134 792 146 805 q 160 770 159 772 q 193 773 174 773 q 149 818 193 779 l 146 818 m 1136 803 l 1121 777 l 1133 770 l 1169 770 q 1136 803 1169 774 m 1434 770 l 1419 744 l 1493 674 q 1497 689 1493 682 q 1449 755 1497 719 q 1434 770 1449 761 m 1401 715 q 1397 685 1401 685 q 1504 574 1397 675 q 1471 644 1504 628 q 1401 715 1471 650 m 1404 623 l 1404 586 q 1504 486 1405 581 l 1508 501 q 1460 567 1508 531 q 1404 623 1460 572 m 1404 534 l 1404 497 q 1471 431 1404 492 l 1482 453 l 1482 457 q 1404 534 1482 462 m 1404 446 l 1404 442 q 1409 427 1409 435 q 1404 424 1404 427 l 1409 424 l 1404 416 l 1404 409 q 1438 376 1404 404 q 1449 406 1449 394 l 1404 446 m 1081 140 l 1077 115 l 1128 66 q 1139 96 1139 93 l 1092 140 l 1081 140 m 1074 71 q 1069 52 1074 58 q 1095 12 1069 28 q 1110 33 1095 15 q 1074 71 1110 38 z "},",":{"ha":861,"x_min":20,"x_max":841,"o":"m 720 566 q 730 563 726 563 l 730 566 l 738 563 l 745 563 l 768 566 l 774 563 l 782 566 q 793 563 789 563 l 815 566 l 815 563 l 823 566 q 841 530 831 566 l 838 504 l 838 401 q 841 386 838 393 q 808 18 829 154 q 705 -288 780 -124 q 524 -515 616 -413 q 488 -563 516 -540 q 374 -673 453 -625 q 340 -703 344 -703 l 340 -699 q 234 -740 271 -740 l 230 -740 q 175 -722 175 -731 l 175 -714 q 197 -500 186 -697 l 197 -420 q 201 -387 197 -406 q 197 -376 197 -380 q 204 -346 199 -346 l 201 -338 l 201 -302 q 193 -294 201 -294 q 131 -302 131 -297 l 123 -298 l 113 -298 l 101 -306 l 75 -306 q 28 -269 38 -286 l 28 -236 q 24 -221 28 -227 q 28 -217 24 -217 l 24 -199 l 24 -191 q 28 -188 24 -188 q 20 -140 24 -182 q 28 -111 20 -133 q 24 -96 24 -104 l 28 -96 l 24 -88 q 28 -85 24 -85 l 24 -77 q 28 -74 24 -74 l 24 -66 l 24 40 q 28 55 24 49 q 24 66 24 62 q 28 103 24 83 q 24 158 24 140 q 28 220 28 208 q 24 224 28 224 l 28 243 l 28 298 q 64 342 28 326 q 116 393 64 363 q 201 478 196 478 q 237 519 232 519 l 484 552 q 488 548 488 552 l 620 559 l 627 555 q 665 563 665 559 l 671 559 l 675 559 l 683 563 l 683 559 l 720 566 m 609 471 q 668 412 609 466 l 671 412 q 683 437 683 434 l 646 471 l 609 471 m 528 463 q 616 375 528 458 l 624 375 q 646 386 643 375 l 565 463 l 528 463 m 447 456 q 528 379 518 379 q 557 382 543 382 q 477 460 486 460 q 447 456 450 456 m 366 449 q 447 368 366 444 q 477 375 451 368 q 399 452 477 380 q 366 449 380 449 m 289 437 q 374 353 289 433 l 407 357 l 322 445 q 289 437 315 441 m 245 431 l 230 408 l 286 349 q 322 353 304 353 q 245 431 322 358 m 201 386 q 186 364 201 382 q 208 342 186 359 l 245 342 q 201 386 245 347 m 730 386 l 716 360 l 764 316 l 764 353 q 730 386 764 358 m 697 331 l 694 313 l 694 298 q 756 235 694 293 l 760 272 l 697 331 m 477 290 l 477 294 q 454 283 454 292 l 447 287 l 444 287 q 440 283 440 287 q 436 287 436 283 l 418 283 l 395 287 l 389 283 q 385 287 385 283 q 319 279 334 279 l 319 272 l 216 272 q 175 264 211 272 l 171 264 q 168 269 168 264 l 160 264 l 123 264 l 105 261 l 105 187 q 101 173 105 179 q 105 158 105 166 l 105 125 q 101 121 105 121 l 105 114 l 105 52 q 109 47 105 47 l 105 40 l 105 0 q 113 -33 105 -9 q 105 -41 105 -35 l 105 -121 q 109 -125 105 -125 l 105 -133 l 105 -170 q 109 -173 105 -173 l 105 -180 l 105 -184 q 109 -188 105 -188 l 105 -195 l 105 -199 q 109 -203 105 -203 l 105 -210 q 116 -221 105 -215 l 138 -221 q 157 -217 151 -221 l 178 -221 l 193 -221 q 281 -214 213 -221 q 315 -232 315 -216 q 304 -302 311 -283 l 307 -302 q 300 -324 300 -314 l 300 -453 q 296 -467 300 -461 q 300 -482 300 -474 l 296 -482 l 300 -490 l 300 -515 q 289 -611 293 -552 q 286 -618 286 -611 l 296 -626 q 403 -515 378 -554 q 466 -423 408 -515 q 532 -302 505 -361 q 528 -298 528 -302 q 562 -180 538 -292 l 565 -180 l 562 -173 q 565 -170 562 -170 q 562 -159 562 -162 q 576 -118 562 -152 l 572 -118 q 580 -74 575 -112 l 576 -74 q 587 -30 581 -66 q 583 -15 583 -23 q 594 85 594 22 q 598 88 598 85 l 594 88 l 598 96 q 609 220 602 220 q 606 224 609 224 q 609 279 609 261 l 609 305 q 591 309 597 305 q 477 290 493 302 m 694 246 l 694 210 q 742 161 694 204 q 749 195 749 189 l 694 246 m 690 161 q 686 140 686 142 q 730 85 686 119 l 734 121 l 690 161 m 683 77 q 679 59 683 59 q 712 14 679 39 q 720 47 720 39 l 686 77 l 683 77 m 679 -4 l 675 -22 l 675 -37 q 690 -52 675 -43 q 697 -22 690 -48 q 679 -4 697 -18 z "},"-":{"ha":1323,"x_min":20,"x_max":1303,"o":"m 1277 1367 q 1280 1352 1280 1360 l 1280 1341 q 1277 1337 1280 1337 q 1284 1315 1284 1325 l 1284 1238 q 1280 1223 1284 1230 q 1288 1146 1284 1221 l 1284 1113 l 1303 840 q 1247 715 1298 840 q 1159 501 1230 697 q 1096 464 1140 464 l 1023 464 q 1019 468 1019 464 q 1008 464 1012 464 q 853 457 891 457 l 576 457 l 566 450 q 543 457 553 457 q 536 450 543 450 l 532 450 l 514 453 l 514 450 l 499 457 q 330 442 499 446 l 197 431 l 190 435 q 64 406 173 435 q 39 442 39 429 l 39 457 q 46 479 39 467 q 43 490 43 486 l 46 490 q 39 519 39 503 l 39 560 q 35 564 39 564 l 39 571 l 39 578 l 35 597 l 39 597 l 35 604 l 35 608 l 39 615 l 35 615 l 39 623 l 39 627 l 35 633 q 39 637 39 633 q 31 645 31 637 l 31 685 q 35 689 31 689 q 31 700 31 696 q 35 711 31 711 l 31 748 l 31 789 q 28 803 31 797 q 31 807 28 807 q 28 829 31 810 q 24 965 24 947 l 20 972 q 24 984 24 980 l 20 984 q 193 1212 30 1019 q 249 1278 231 1278 l 245 1286 l 293 1337 q 334 1341 318 1341 l 481 1341 l 503 1345 q 514 1341 510 1341 q 635 1345 583 1345 l 640 1345 q 654 1341 648 1345 q 665 1345 661 1345 q 669 1341 669 1345 l 687 1345 l 694 1345 q 699 1341 699 1345 l 706 1345 q 868 1348 759 1345 q 1000 1345 987 1345 q 1277 1371 1156 1352 l 1277 1367 m 817 1263 q 1026 1054 901 1174 l 1063 1054 q 849 1263 859 1263 q 838 1267 846 1263 l 817 1263 m 1019 1263 l 997 1263 l 997 1260 q 1118 1139 998 1255 q 1133 1160 1123 1139 q 1026 1267 1133 1165 l 1019 1263 m 1078 1267 q 1152 1194 1078 1263 l 1155 1194 q 1166 1219 1155 1201 l 1115 1267 l 1078 1267 m 735 1263 l 732 1257 q 945 1050 939 1050 q 956 1046 949 1050 q 975 1054 968 1054 q 764 1263 889 1143 l 746 1260 q 735 1263 739 1263 m 905 1263 q 1089 1080 905 1259 l 1100 1109 q 938 1263 944 1263 l 930 1263 l 930 1260 l 923 1263 l 905 1263 m 470 1257 q 691 1036 471 1251 l 728 1036 q 503 1260 728 1040 q 499 1257 499 1260 l 481 1260 q 470 1257 474 1257 m 558 1260 l 558 1257 l 776 1036 q 802 1042 802 1038 l 809 1039 l 812 1039 q 591 1260 812 1044 l 558 1260 m 643 1260 q 868 1039 858 1039 q 897 1042 871 1039 q 680 1260 805 1140 l 643 1260 m 308 1242 q 522 1028 400 1145 l 558 1028 q 330 1257 503 1088 l 323 1257 q 308 1242 317 1257 m 381 1257 q 610 1028 437 1196 l 647 1028 q 418 1257 591 1088 q 404 1253 412 1253 l 404 1257 q 393 1253 397 1253 q 381 1257 385 1257 m 271 1186 l 440 1021 l 455 1021 l 473 1024 q 286 1212 468 1035 q 271 1186 271 1206 m 234 1135 l 352 1021 l 389 1021 q 252 1157 389 1025 q 234 1135 247 1157 m 1177 1113 q 1166 1095 1177 1106 l 1166 1090 q 1206 1050 1166 1086 l 1206 1057 q 1181 1113 1206 1101 l 1177 1113 m 197 1083 l 271 1013 l 290 1013 q 293 1017 293 1013 l 300 1013 l 308 1013 q 216 1105 308 1019 q 197 1083 205 1103 m 172 1061 q 153 1039 172 1053 l 186 1010 l 223 1010 q 172 1061 223 1015 m 1144 1057 l 1144 1028 q 1225 943 1144 1019 q 1211 998 1214 966 l 1148 1057 l 1144 1057 m 1144 958 q 1155 921 1152 958 l 1229 851 l 1229 888 q 1152 965 1229 893 q 1144 958 1144 964 m 853 936 q 849 939 849 936 l 823 936 l 720 936 q 584 928 648 936 q 547 936 547 931 q 543 932 543 936 l 525 936 q 418 925 481 928 l 418 928 l 400 921 l 400 925 l 393 921 l 381 921 l 374 925 q 370 921 374 921 l 370 925 l 363 921 q 341 925 360 921 q 311 918 328 918 l 260 918 q 256 921 256 918 l 249 918 l 197 918 l 175 913 q 157 918 169 918 q 113 906 152 912 l 113 903 l 116 895 q 113 892 116 892 q 123 800 116 800 l 116 770 q 123 748 123 758 l 123 682 q 131 652 123 665 q 123 645 123 651 l 131 633 l 131 627 l 123 615 q 131 593 131 603 l 131 534 q 138 516 132 516 q 216 530 172 530 l 216 527 q 252 534 252 530 l 260 530 q 290 538 263 530 l 311 538 q 378 545 359 538 l 385 542 q 407 549 397 549 l 514 549 q 517 553 517 549 l 525 549 l 558 549 l 570 556 l 591 556 q 606 553 600 556 q 617 556 613 556 q 621 553 617 553 l 621 556 q 640 549 640 553 q 661 556 652 556 l 665 556 q 669 553 669 556 l 676 556 q 709 549 704 549 l 713 556 l 728 553 l 764 556 q 776 553 772 553 q 783 560 777 560 l 879 560 q 894 556 887 560 q 905 560 901 560 l 912 556 q 927 560 918 560 q 930 556 930 560 l 938 560 q 941 556 941 560 l 1008 568 q 1038 564 1022 564 l 1044 564 l 1048 582 l 1048 615 q 1063 711 1055 615 l 1059 711 q 1063 715 1059 715 l 1059 733 l 1059 848 l 1067 859 l 1067 951 q 1059 958 1067 958 l 985 958 l 979 954 l 979 958 q 857 939 931 948 q 853 936 857 936 m 1152 877 l 1152 862 q 1155 859 1152 859 l 1152 851 l 1152 840 q 1200 792 1152 835 l 1203 792 q 1211 821 1203 799 l 1152 877 m 1148 792 l 1148 785 q 1152 770 1148 777 q 1148 755 1148 764 q 1170 733 1148 750 l 1174 733 q 1185 759 1174 741 l 1148 792 z "},".":{"ha":895,"x_min":20,"x_max":874,"o":"m 789 600 q 867 563 822 600 q 874 548 867 548 q 838 180 859 362 q 841 147 841 160 l 841 121 l 838 96 l 841 96 q 838 85 838 88 q 800 -48 838 -48 q 668 -265 756 -130 q 606 -294 625 -294 l 580 -288 q 278 -317 503 -302 q 267 -320 278 -320 q 263 -317 263 -320 l 245 -320 l 182 -320 q 64 -338 126 -320 q 20 -317 33 -336 q 28 -283 24 -292 q 24 -273 24 -277 l 28 -273 q 24 -269 28 -269 q 43 -81 24 -142 l 39 -74 l 39 -59 q 46 -30 39 -56 l 46 26 q 57 52 57 39 l 57 106 l 61 129 q 57 147 57 135 l 57 158 q 61 161 57 161 l 57 169 q 61 180 61 176 l 57 180 l 72 243 l 64 258 q 94 331 72 315 q 190 482 156 418 q 296 526 229 526 q 554 574 368 559 q 786 600 628 574 l 789 600 m 668 508 q 716 460 668 503 l 727 489 q 701 511 725 489 q 668 508 682 508 m 583 504 q 683 405 584 498 q 697 427 683 412 q 620 504 697 431 l 583 504 m 503 496 q 650 349 504 490 l 661 379 q 532 500 538 500 q 503 496 528 500 m 425 486 q 583 331 574 331 l 620 328 l 462 489 q 425 486 449 486 m 348 475 q 495 328 349 469 l 532 328 l 385 478 q 348 475 366 475 m 274 460 q 410 323 274 455 l 447 323 l 307 467 q 274 460 290 460 m 768 445 q 753 419 753 429 l 782 393 q 786 431 782 398 q 768 445 770 445 m 234 408 q 322 320 239 408 q 359 323 323 323 q 248 434 359 328 q 234 408 234 428 m 730 390 q 720 368 730 381 q 779 309 720 363 q 782 346 779 333 l 734 390 l 730 390 m 212 382 q 201 353 201 364 l 248 309 l 281 313 q 212 382 281 317 m 697 338 q 686 309 686 316 l 771 228 q 774 264 771 252 l 697 338 m 679 269 l 675 261 q 712 199 675 222 q 768 143 712 194 l 768 180 q 679 269 768 185 m 451 235 q 444 239 444 235 l 418 235 l 374 235 q 359 232 366 235 q 355 235 355 232 l 263 224 q 248 228 257 228 q 168 217 212 217 l 157 217 q 142 114 146 217 q 145 85 145 100 l 145 44 q 134 11 134 28 q 138 7 134 7 q 131 -41 131 -31 q 134 -96 134 -77 q 120 -159 127 -147 l 123 -191 q 120 -203 120 -199 l 123 -203 l 113 -236 l 120 -239 q 300 -232 215 -232 l 326 -229 l 333 -232 q 377 -224 377 -229 q 381 -229 381 -224 q 572 -195 572 -214 l 576 -177 l 576 -118 q 580 -114 576 -114 q 576 -103 576 -107 q 580 -100 576 -100 l 576 -81 l 576 -77 q 591 26 576 -31 l 587 52 l 587 92 q 594 243 594 234 l 583 250 l 539 250 l 451 235 m 675 184 l 671 176 l 671 169 l 675 151 q 671 147 671 151 l 764 59 l 764 62 q 760 66 764 66 l 764 73 l 764 77 l 760 96 q 764 99 764 96 l 675 184 m 671 99 l 671 96 l 675 73 q 671 59 671 67 l 742 -7 l 745 -7 q 753 22 745 -4 l 671 99 m 668 14 l 668 11 q 671 -4 668 3 q 668 -18 668 -10 q 712 -66 699 -58 q 723 -37 712 -58 l 668 14 z "},":":{"ha":825,"x_min":20,"x_max":804,"o":"m 694 1332 q 800 1288 800 1332 q 804 1284 804 1288 q 793 1059 793 1263 l 797 1045 q 793 1041 793 1045 l 797 1041 l 793 1034 l 797 1027 l 793 1027 q 797 1023 793 1023 q 789 938 789 968 l 793 938 l 789 931 l 793 909 q 789 890 789 903 l 793 890 q 789 880 789 883 q 793 777 789 859 q 774 739 784 777 q 686 589 686 627 q 675 566 675 585 l 675 563 l 679 563 l 723 566 q 734 563 730 563 l 742 566 q 797 511 797 551 l 797 423 q 793 382 797 408 l 797 375 q 793 364 797 371 q 797 305 797 326 q 793 276 797 302 l 797 276 q 793 272 797 272 l 797 254 l 797 151 l 800 132 l 797 132 l 800 125 l 800 70 q 631 -232 631 -177 q 539 -269 608 -269 q 436 -276 469 -269 l 429 -273 q 98 -302 224 -298 l 72 -294 q 39 -298 52 -298 l 35 -298 q 24 -288 30 -298 l 24 -280 l 31 -280 l 31 -239 q 43 -162 39 -214 l 50 -155 q 46 -151 50 -151 q 54 -111 49 -111 q 50 -107 54 -107 q 54 -44 54 -64 l 54 11 q 57 14 54 14 l 54 22 l 54 77 l 57 99 q 54 103 57 103 q 61 235 57 132 q 57 309 57 276 q 83 349 57 349 q 131 434 131 413 l 127 434 q 113 437 121 437 l 87 431 q 68 452 79 431 l 64 452 l 68 467 q 64 496 68 482 q 68 570 68 538 l 68 592 q 57 662 57 642 l 57 728 q 39 861 57 804 l 39 949 l 35 957 l 39 957 q 20 1015 29 1003 q 54 1078 20 1043 q 186 1288 94 1163 q 326 1310 268 1306 q 330 1306 330 1310 l 355 1310 l 381 1310 q 447 1314 412 1310 l 466 1310 l 694 1332 m 646 1251 q 686 1211 646 1246 l 705 1233 l 683 1251 l 661 1251 q 657 1247 657 1251 l 650 1251 l 646 1251 m 569 1244 l 569 1240 q 646 1162 569 1235 q 665 1185 659 1170 l 602 1244 l 569 1244 m 484 1236 q 616 1104 484 1232 q 627 1133 627 1124 l 517 1240 l 484 1236 m 311 1233 q 473 1071 311 1227 l 506 1071 l 506 1074 q 348 1233 504 1082 l 311 1233 m 399 1233 q 557 1074 402 1225 l 583 1074 q 591 1082 591 1074 l 436 1233 l 399 1233 m 237 1218 l 389 1063 q 425 1067 401 1067 q 263 1229 425 1072 l 248 1229 q 237 1218 243 1229 m 201 1162 l 307 1059 l 345 1059 q 219 1185 341 1067 q 201 1162 214 1185 m 178 1137 q 164 1111 178 1130 l 219 1059 l 256 1059 q 178 1137 256 1065 m 686 1071 l 671 1048 q 716 1004 671 1044 q 720 1015 716 1008 l 716 1023 q 720 1038 720 1029 q 686 1071 720 1042 m 650 1019 l 650 1001 q 701 931 650 970 q 716 916 701 925 l 716 953 q 650 1019 716 958 m 466 975 l 458 979 q 340 964 375 964 l 263 964 q 134 949 134 964 q 131 938 134 938 l 134 931 l 134 883 q 138 880 134 880 l 134 872 q 142 850 142 860 q 138 835 142 842 q 149 795 142 803 l 149 787 q 145 784 149 784 q 157 721 152 777 l 153 699 l 153 688 q 157 655 153 675 l 153 648 q 168 555 168 614 l 168 545 q 178 534 168 539 q 271 541 271 534 q 274 537 274 541 l 351 545 q 392 541 376 541 q 532 559 532 553 q 550 669 550 661 q 547 673 550 673 l 550 692 l 550 751 q 557 772 550 760 q 550 780 550 772 l 550 842 q 557 916 551 916 l 554 924 l 554 938 q 562 968 554 941 l 562 975 q 536 986 562 981 q 466 975 466 981 m 653 927 l 653 924 l 657 916 q 650 909 650 915 l 653 909 l 650 901 l 650 894 q 720 824 650 889 l 720 846 q 716 850 720 850 l 720 857 q 653 927 720 867 m 646 846 l 646 809 l 683 769 q 701 787 692 771 l 701 791 q 646 846 701 795 m 627 471 l 661 441 l 665 441 q 679 456 665 456 l 679 460 q 650 489 679 465 l 646 489 q 627 471 641 489 m 550 463 q 624 390 550 458 q 642 412 629 390 l 587 463 l 580 460 l 557 463 l 550 463 m 469 460 l 469 456 q 587 338 470 450 l 591 338 q 606 360 606 346 l 503 460 l 469 460 m 300 449 q 425 328 415 328 q 440 323 433 328 q 458 328 446 328 q 333 452 455 335 l 300 449 m 385 452 q 506 331 386 447 l 543 331 q 421 452 543 336 l 385 452 m 227 434 q 345 323 330 323 l 374 323 q 256 441 374 328 l 234 441 q 227 434 227 440 m 193 379 q 256 328 235 328 q 286 323 265 328 q 208 401 286 328 q 193 379 203 401 m 683 368 l 668 346 q 720 294 669 340 l 723 294 l 720 302 l 720 323 l 723 331 l 683 368 m 650 313 q 639 283 639 294 l 723 202 l 723 228 q 720 232 723 232 l 723 239 q 650 313 723 244 m 635 239 l 639 232 l 639 199 q 730 106 639 193 l 730 143 q 635 239 728 152 m 153 70 l 153 62 l 149 40 l 153 33 q 149 18 149 26 q 153 7 153 11 q 145 0 145 6 q 149 -4 149 0 l 145 -4 l 149 -12 l 149 -15 q 145 -18 149 -18 q 153 -44 153 -33 q 149 -59 153 -46 l 153 -77 q 145 -103 153 -85 q 149 -114 149 -111 l 145 -114 q 149 -125 149 -121 q 145 -136 145 -132 q 149 -140 149 -136 q 145 -144 145 -140 q 149 -147 149 -144 q 142 -155 142 -149 l 142 -177 q 149 -199 142 -186 l 168 -195 q 212 -199 205 -199 q 296 -188 237 -199 l 311 -188 q 315 -191 315 -188 l 322 -188 q 326 -191 326 -188 q 528 -173 326 -183 q 532 -162 532 -166 l 528 -155 q 536 -121 536 -142 q 532 14 536 -92 q 536 26 536 22 l 532 33 l 547 213 l 539 235 q 399 228 449 228 q 392 220 399 220 l 340 220 l 330 228 l 271 228 q 204 235 223 228 l 197 232 l 178 235 l 178 232 l 171 235 q 157 165 157 235 q 153 70 153 159 m 639 147 l 635 111 l 694 55 l 697 55 q 709 73 697 61 l 709 77 q 639 147 709 82 m 631 66 l 631 29 q 665 -4 631 24 q 675 26 665 7 q 631 66 633 66 z "},";":{"ha":905,"x_min":20,"x_max":885,"o":"m 789 1406 l 797 1402 q 800 1406 800 1402 l 819 1402 q 863 1406 825 1402 q 870 1383 870 1394 l 870 1347 q 867 1343 870 1343 q 870 1339 867 1339 q 867 1284 867 1303 l 867 1258 q 863 1244 867 1250 q 867 1240 863 1240 l 863 1221 l 863 1203 q 856 1115 856 1120 l 856 1074 l 852 1056 l 856 1056 l 852 1048 l 852 835 q 856 831 852 831 l 852 824 l 852 784 q 764 592 852 752 q 771 585 765 585 q 863 592 842 592 q 885 261 875 592 l 885 220 q 878 191 885 205 q 882 187 878 187 q 800 -114 882 78 q 756 -191 792 -121 q 709 -262 733 -218 q 624 -361 680 -290 q 392 -589 432 -566 q 359 -614 382 -589 q 212 -677 290 -677 q 171 -670 189 -670 l 175 -663 l 171 -655 q 175 -644 175 -648 q 171 -640 175 -640 l 186 -519 l 182 -519 q 201 -446 192 -499 l 201 -397 q 212 -273 212 -283 l 212 -258 q 204 -250 212 -250 q 54 -291 90 -291 l 31 -258 l 31 -165 q 50 26 45 -97 q 46 52 46 31 l 50 52 l 46 59 l 46 106 q 39 132 46 132 q 43 136 39 136 l 39 161 l 39 210 q 35 213 39 213 l 39 220 l 20 320 q 57 360 49 360 q 157 449 82 400 l 157 452 q 134 460 144 460 l 54 449 q 31 486 38 449 l 31 526 q 43 604 39 553 l 46 604 q 39 633 39 616 l 39 636 q 46 666 39 640 q 39 684 46 684 q 43 688 39 688 l 39 713 l 39 718 q 46 725 40 725 q 39 747 39 736 q 43 758 39 751 q 35 787 35 781 q 39 791 39 787 l 35 791 l 39 798 l 35 806 q 39 817 39 813 q 31 824 31 817 l 31 883 q 28 898 31 891 q 31 912 31 904 l 31 916 l 24 927 l 24 971 q 20 975 24 975 l 24 983 l 24 994 q 20 997 24 997 q 24 1001 20 1001 l 20 1027 l 20 1030 q 24 1034 20 1034 l 20 1041 l 20 1067 q 68 1174 20 1136 q 145 1277 94 1214 q 241 1380 184 1380 q 370 1391 315 1383 q 374 1387 374 1391 l 399 1391 l 440 1391 q 444 1394 444 1391 l 451 1391 l 458 1391 q 462 1394 462 1391 q 473 1391 469 1391 q 517 1394 511 1394 l 517 1391 l 524 1394 l 550 1394 q 554 1391 554 1394 l 562 1394 q 653 1398 640 1398 q 690 1394 686 1394 q 701 1398 697 1398 l 701 1394 q 789 1406 716 1402 m 627 1314 q 697 1244 627 1309 q 716 1265 702 1244 q 653 1314 670 1314 l 653 1310 l 646 1314 l 627 1314 m 458 1306 q 613 1156 603 1156 q 646 1152 632 1156 l 646 1156 q 492 1306 501 1306 q 469 1310 475 1306 q 458 1306 462 1306 m 550 1310 l 547 1303 l 668 1185 q 679 1214 668 1196 q 583 1310 671 1217 q 572 1306 576 1306 l 565 1310 q 554 1306 558 1306 q 550 1310 554 1310 m 370 1306 q 532 1144 370 1301 l 565 1148 q 407 1306 562 1156 l 370 1306 m 289 1299 l 444 1141 q 480 1144 444 1144 q 322 1303 478 1152 l 307 1303 l 289 1299 m 241 1258 q 366 1133 244 1251 l 399 1137 q 260 1277 399 1141 q 241 1258 254 1277 m 216 1233 q 201 1207 216 1225 l 278 1133 l 315 1133 q 216 1233 315 1138 m 760 1218 l 745 1192 l 779 1162 q 786 1196 786 1190 q 760 1218 784 1196 m 160 1159 l 190 1133 l 227 1133 q 178 1181 227 1139 q 160 1159 174 1181 m 723 1166 q 716 1156 720 1156 q 774 1078 716 1125 q 779 1082 774 1082 l 774 1097 l 779 1115 l 723 1166 m 727 1074 l 727 1048 q 774 989 727 1029 l 774 1027 q 727 1074 774 1031 m 587 1053 l 539 1053 q 377 1038 539 1042 l 377 1041 q 319 1034 361 1034 l 186 1034 q 145 1041 182 1034 l 138 1041 q 101 1019 101 1037 q 113 983 108 1006 q 109 968 109 976 l 113 953 l 109 953 l 113 945 l 113 942 q 109 938 113 938 l 113 931 l 113 927 q 109 924 113 924 q 116 901 113 901 q 113 898 116 898 q 131 728 123 831 l 131 710 q 127 707 131 707 l 131 699 l 131 692 q 127 625 131 660 q 134 574 134 597 l 134 570 l 131 563 q 149 555 149 559 l 186 559 l 300 559 q 425 552 372 559 q 528 559 515 559 q 606 555 570 555 q 624 728 615 555 l 627 728 l 624 736 q 627 747 627 743 l 624 747 q 627 751 624 751 l 624 777 l 624 784 l 627 791 l 624 791 q 631 821 631 804 l 631 872 l 639 883 l 635 905 q 639 909 639 905 l 635 909 l 639 916 l 639 1015 q 642 1019 639 1019 l 639 1027 l 642 1041 q 620 1056 639 1056 l 613 1053 q 606 1059 613 1059 l 598 1059 l 587 1053 m 727 986 l 727 971 l 730 953 l 727 953 q 779 898 727 943 l 779 901 l 774 901 l 779 909 l 774 931 l 779 938 l 727 986 m 730 894 q 727 857 730 870 l 779 809 l 774 817 l 779 850 l 730 894 m 723 813 q 720 806 723 806 q 723 802 720 802 l 720 784 l 720 780 q 749 751 720 775 l 753 751 q 764 777 753 758 l 723 813 m 720 511 l 745 489 l 764 511 l 749 522 l 730 522 q 720 511 725 522 m 506 463 q 594 375 506 458 l 606 375 l 624 379 l 624 382 q 543 463 624 387 l 506 463 m 594 463 q 657 401 594 459 q 671 419 657 408 l 671 423 q 606 463 645 463 l 594 463 m 333 460 q 436 360 426 360 q 466 364 439 360 q 366 460 376 460 q 363 456 363 460 l 345 460 l 333 460 m 425 460 l 425 456 q 513 368 425 451 l 521 368 l 547 372 q 458 460 547 376 l 458 456 l 451 460 l 440 460 q 436 456 436 460 l 429 460 l 425 460 m 286 456 q 271 431 271 439 l 348 357 l 385 357 q 286 456 385 361 m 742 401 l 804 342 l 808 342 l 808 346 q 771 412 808 390 l 764 423 q 742 401 755 422 m 219 397 l 271 342 l 278 346 l 281 346 l 307 342 l 307 346 l 245 412 q 219 397 224 397 m 716 379 q 697 360 716 376 q 808 250 697 356 l 808 287 q 716 379 808 292 m 175 353 q 186 342 175 348 l 222 342 q 193 372 222 347 q 175 353 190 372 m 709 298 l 709 294 q 742 224 713 250 l 800 169 l 800 206 q 709 298 800 211 m 245 239 l 186 239 q 149 232 149 238 l 142 235 q 131 228 131 232 q 127 180 131 198 q 131 111 131 144 l 131 70 l 127 62 q 131 59 131 62 q 127 55 127 59 q 134 44 134 55 l 131 37 l 134 29 l 131 22 q 134 7 134 16 l 127 3 l 131 -4 l 131 -12 q 134 -81 131 -46 q 131 -111 131 -101 l 134 -118 l 131 -140 l 131 -170 q 138 -177 132 -177 l 142 -177 q 267 -136 168 -165 q 289 -125 267 -130 q 307 -184 305 -125 q 311 -191 311 -184 q 281 -541 311 -242 l 289 -545 l 293 -545 q 503 -328 407 -460 q 565 -217 543 -266 q 627 -33 600 -137 q 631 -30 631 -33 l 631 -7 q 639 40 631 7 l 635 40 l 639 47 l 639 99 l 642 117 l 639 117 q 642 121 639 121 q 639 176 639 158 l 639 191 q 642 206 639 199 q 624 283 631 267 q 289 246 416 254 q 245 239 289 239 m 730 187 l 730 184 q 768 114 730 135 q 789 92 768 109 q 793 111 789 104 l 789 111 l 793 117 l 793 125 q 730 187 793 130 m 734 96 l 734 59 q 768 26 734 54 q 774 55 768 29 q 734 96 774 60 m 734 7 l 727 -26 l 742 -37 l 745 -37 q 756 -12 745 -33 l 734 7 z "},"=":{"ha":1378,"x_min":20,"x_max":1358,"o":"m 1343 1426 l 1350 1407 q 1347 1396 1347 1400 q 1358 1374 1358 1393 l 1358 1371 q 1354 1367 1358 1367 l 1358 1360 q 1347 1164 1358 1325 q 1350 1072 1350 1093 l 1347 1072 q 1350 1068 1347 1068 l 1347 1031 l 1347 1017 q 1343 1013 1347 1013 q 1347 1010 1343 1010 q 1314 918 1338 918 q 1240 766 1257 813 q 1232 744 1240 760 l 1310 744 l 1329 748 q 1354 578 1348 748 l 1354 471 q 1350 457 1354 463 l 1354 450 q 1350 427 1350 430 q 1354 387 1354 395 q 1244 177 1262 229 q 1166 7 1214 94 q 1103 -59 1149 -59 q 1074 -56 1101 -59 l 1074 -59 q 1070 -56 1070 -59 q 967 -66 985 -60 l 967 -62 l 960 -66 l 953 -62 l 953 -66 l 945 -62 l 941 -62 q 938 -66 938 -62 q 934 -62 934 -66 q 879 -66 897 -66 l 791 -66 l 791 -74 l 768 -74 q 753 -70 760 -74 q 739 -74 747 -74 l 717 -74 q 709 -66 709 -74 q 687 -74 697 -74 l 591 -74 l 566 -77 l 566 -74 q 562 -77 562 -74 q 337 -70 370 -70 l 337 -66 l 330 -70 l 319 -70 q 216 -66 254 -70 q 134 -70 173 -70 q 46 -33 46 -66 q 50 -18 46 -25 q 39 111 39 73 l 39 191 q 35 195 39 195 l 39 203 l 39 306 q 31 335 39 309 l 31 453 l 24 464 q 31 471 31 464 l 20 490 q 68 538 39 490 q 90 564 73 538 q 50 582 50 564 q 61 612 61 608 l 54 656 q 72 943 64 656 q 61 1054 71 1054 l 64 1061 q 61 1065 64 1065 q 123 1172 68 1119 q 231 1337 179 1279 q 290 1374 273 1374 q 352 1381 349 1379 q 363 1378 359 1378 q 385 1385 375 1385 q 823 1419 437 1385 q 868 1415 862 1415 q 890 1419 884 1415 q 985 1415 951 1415 l 1048 1415 q 1343 1426 1165 1415 m 1206 1326 l 1236 1301 q 1251 1326 1251 1317 q 1240 1337 1246 1326 q 1206 1326 1206 1333 m 768 1326 q 938 1157 768 1321 l 975 1157 l 805 1330 l 798 1326 l 783 1326 q 779 1330 779 1326 q 768 1326 772 1326 m 857 1326 q 1023 1160 857 1321 l 1030 1160 l 1056 1164 q 890 1330 1056 1169 q 857 1326 870 1326 m 945 1326 q 1107 1164 945 1321 l 1141 1168 q 982 1326 1138 1175 l 945 1326 m 1034 1326 q 1162 1198 1035 1320 l 1166 1198 q 1177 1223 1177 1219 l 1070 1326 l 1034 1326 m 1122 1326 q 1200 1249 1122 1322 l 1214 1271 q 1159 1326 1214 1276 l 1122 1326 m 687 1319 q 853 1157 843 1157 q 890 1153 871 1157 q 724 1319 890 1158 l 687 1319 m 606 1312 q 768 1149 606 1307 l 805 1149 l 643 1315 q 606 1312 630 1312 m 525 1304 q 687 1142 525 1299 l 691 1142 l 702 1149 q 709 1142 703 1142 q 717 1149 717 1142 q 558 1308 714 1157 l 543 1308 l 525 1304 m 440 1301 l 595 1146 q 628 1149 597 1149 q 470 1304 479 1304 q 440 1301 467 1304 m 355 1297 q 517 1139 508 1139 q 547 1142 522 1142 q 389 1301 545 1149 q 355 1297 369 1297 m 290 1275 q 429 1135 290 1270 l 437 1135 l 463 1139 q 308 1293 460 1146 q 290 1275 302 1293 m 267 1245 q 252 1223 267 1242 q 349 1127 256 1215 l 349 1131 l 355 1127 l 381 1131 q 267 1245 381 1136 m 1255 1231 q 1240 1208 1255 1227 q 1262 1186 1240 1203 q 1265 1201 1262 1195 q 1262 1216 1262 1208 l 1265 1223 l 1255 1231 m 219 1172 l 219 1168 q 267 1120 219 1162 q 275 1127 269 1127 l 300 1124 q 234 1190 300 1128 q 219 1172 229 1190 m 1214 1179 q 1203 1160 1214 1173 l 1203 1157 q 1265 1095 1203 1152 l 1265 1131 q 1218 1179 1265 1137 l 1214 1179 m 1203 1105 q 1236 1036 1203 1052 q 1259 1013 1236 1030 q 1265 1036 1265 1028 q 1203 1105 1265 1050 m 1008 1057 l 985 1061 l 982 1061 q 967 1057 974 1061 q 964 1061 964 1057 l 945 1057 l 890 1057 q 886 1054 886 1057 q 882 1057 882 1054 l 864 1054 l 861 1054 q 857 1057 857 1054 l 849 1054 q 669 1046 724 1046 l 602 1046 q 599 1050 599 1046 l 591 1046 l 584 1046 q 566 1050 572 1046 q 463 1039 519 1039 l 440 1039 l 440 1031 l 370 1031 l 349 1028 l 341 1031 q 300 1024 326 1024 l 290 1024 l 267 1028 l 234 1017 l 212 1021 l 193 1017 l 193 1021 l 149 1013 l 153 987 l 153 980 q 149 965 153 972 q 157 888 157 946 l 157 836 q 153 833 157 833 q 157 829 153 829 l 153 803 l 153 763 q 157 759 153 759 l 153 751 l 153 741 q 157 737 153 737 l 153 730 l 153 711 l 149 667 q 179 659 179 663 l 186 663 l 256 663 q 260 659 260 663 l 267 663 q 271 659 271 663 l 278 663 l 407 663 l 418 671 q 422 667 422 671 l 429 671 l 437 671 q 584 678 569 678 l 665 678 q 673 685 673 678 q 684 682 680 682 q 706 685 686 682 q 709 682 709 685 l 728 685 l 753 682 q 761 689 755 689 l 791 689 q 997 704 836 696 l 1004 700 l 1026 704 l 1063 704 l 1082 707 l 1078 722 q 1085 759 1080 759 q 1078 781 1078 774 q 1085 814 1080 814 q 1082 818 1085 818 q 1093 884 1085 862 l 1089 884 q 1093 888 1089 888 q 1089 895 1093 895 q 1103 977 1095 977 l 1100 977 q 1115 1068 1111 1019 l 1096 1068 q 1082 1065 1088 1068 l 1074 1068 q 1008 1057 1020 1065 m 1196 1024 q 1192 987 1196 1000 l 1236 947 l 1251 972 l 1196 1024 m 1185 947 q 1177 913 1185 934 q 1203 892 1201 892 l 1206 892 q 1218 918 1206 904 l 1185 947 m 1185 645 q 1225 604 1185 640 l 1229 604 q 1240 623 1229 610 l 1240 627 l 1214 656 q 1185 645 1185 652 m 1118 619 l 1188 553 q 1203 578 1203 569 l 1148 630 q 1118 619 1120 630 m 1041 612 q 1137 516 1044 604 l 1159 516 l 1162 530 q 1074 612 1082 612 q 1063 608 1070 612 l 1041 612 m 960 604 q 1048 516 960 599 l 1085 516 q 989 608 999 608 q 960 604 975 604 m 875 604 l 875 600 q 967 512 957 512 l 975 516 q 985 512 982 512 q 997 516 993 516 q 1000 512 997 512 l 1000 516 l 908 604 l 908 600 l 901 604 l 894 600 q 879 604 887 604 l 875 604 m 794 589 l 886 501 l 905 501 l 905 509 l 908 509 l 916 505 l 916 509 q 827 597 916 513 l 812 597 q 809 593 809 597 l 802 597 q 794 589 794 595 m 746 589 q 717 582 746 582 l 802 494 q 823 501 817 501 l 823 497 q 835 501 831 501 q 746 589 835 506 m 632 578 q 728 486 718 486 q 758 490 742 490 q 665 582 758 495 q 632 578 645 578 m 543 578 q 635 486 543 573 l 643 486 l 669 490 q 570 578 590 578 l 558 578 q 555 574 555 578 l 547 578 l 543 578 m 378 568 q 459 486 378 562 l 496 486 q 400 571 420 571 l 389 571 q 378 568 382 568 m 463 571 q 547 486 463 566 l 581 486 l 581 490 q 499 571 581 495 l 463 571 m 290 568 q 378 486 363 486 q 411 483 397 483 q 326 568 411 488 l 300 564 q 290 568 293 568 m 216 560 l 216 553 q 278 490 216 548 q 282 494 282 490 q 293 490 289 490 q 304 494 300 494 q 308 490 304 490 q 311 494 308 494 q 315 490 311 490 l 315 494 l 241 564 l 234 564 l 227 560 l 227 564 q 216 560 220 560 m 182 530 q 172 516 182 522 l 168 516 l 168 512 q 201 490 182 490 l 223 494 q 186 530 223 498 l 182 530 m 1229 512 q 1273 468 1229 507 l 1273 505 q 1247 530 1273 510 q 1229 512 1242 530 m 1192 464 l 1192 460 q 1259 394 1192 456 l 1273 420 l 1206 483 q 1192 464 1202 482 m 1067 416 l 1044 416 q 1004 412 1029 416 q 989 416 998 416 l 975 412 l 949 416 l 930 412 l 923 416 q 849 401 915 409 l 817 401 l 809 406 q 805 398 809 398 q 758 387 772 398 q 750 394 758 394 q 735 387 735 391 l 728 391 l 724 391 l 717 387 l 717 391 l 709 387 q 699 391 699 387 l 661 387 l 570 387 q 488 383 543 387 l 488 387 q 485 383 485 387 l 459 387 l 429 387 q 426 391 426 387 q 404 383 410 383 l 396 387 l 378 380 l 370 383 q 359 380 366 383 q 330 387 353 380 l 330 383 l 323 387 q 282 383 302 387 q 234 387 279 383 q 116 372 116 385 l 116 306 l 120 288 l 116 288 q 123 262 123 269 l 120 254 q 127 232 123 232 l 123 224 l 123 184 l 127 159 l 123 159 l 127 151 l 123 144 q 127 140 123 140 l 123 121 l 123 100 l 127 81 q 123 77 123 81 l 127 77 q 123 66 123 70 q 127 55 127 59 l 123 55 q 131 18 127 49 q 219 26 168 18 l 219 22 q 223 26 223 22 l 249 22 l 271 22 q 286 26 279 22 q 296 22 293 22 l 355 26 l 355 22 l 363 26 l 393 26 q 407 22 401 26 q 422 26 414 26 l 426 26 q 429 22 429 26 l 437 26 l 444 26 q 448 22 448 26 l 455 26 q 477 18 467 18 l 481 18 l 492 26 q 525 18 516 18 l 591 18 l 602 26 q 610 18 604 18 l 617 18 l 640 22 q 643 18 643 22 l 661 22 l 684 22 q 687 18 687 22 q 717 26 701 26 l 776 26 q 779 22 779 26 l 787 26 l 908 26 q 938 33 935 33 l 945 33 l 956 26 l 964 26 q 1000 37 972 33 l 1008 33 l 1030 37 l 1048 37 q 1067 195 1056 169 l 1063 195 l 1085 302 l 1082 302 l 1089 324 l 1085 347 q 1093 353 1093 347 q 1089 357 1093 357 q 1100 409 1093 385 q 1096 420 1096 416 l 1082 420 l 1074 416 l 1074 420 l 1067 416 m 1188 412 l 1192 406 l 1192 401 l 1185 391 l 1185 380 q 1225 339 1185 374 l 1229 339 q 1240 365 1240 360 l 1188 412 m 1174 339 l 1177 332 l 1177 328 l 1170 317 l 1170 306 q 1196 280 1170 300 l 1200 280 q 1206 309 1206 303 l 1174 339 z "},"?":{"ha":1667,"x_min":20,"x_max":1647,"o":"m 848 1807 l 848 1803 l 856 1807 l 878 1807 q 1003 1803 926 1807 l 1010 1807 q 1021 1803 1017 1803 l 1021 1807 q 1055 1799 1055 1803 l 1062 1803 l 1069 1803 l 1088 1799 l 1088 1803 q 1124 1792 1111 1799 l 1132 1796 q 1165 1781 1165 1786 l 1172 1784 q 1227 1766 1227 1775 l 1235 1770 q 1555 1538 1472 1689 q 1647 1170 1647 1381 q 1632 1048 1640 1048 l 1636 1041 q 1569 780 1636 987 q 1441 578 1463 608 l 1434 574 l 1426 578 q 1419 570 1426 570 l 1422 563 l 1422 559 q 1378 519 1412 559 q 1341 486 1373 519 q 1275 449 1324 472 q 1194 335 1251 444 q 1154 272 1154 288 l 1158 272 q 1235 287 1171 272 l 1235 283 l 1249 290 q 1257 283 1251 283 l 1253 264 l 1253 228 q 1209 -59 1253 204 q 1183 -239 1202 -91 q 1047 -412 1152 -267 q 1014 -471 1047 -422 q 981 -497 1013 -497 q 947 -490 957 -490 l 852 -490 l 844 -486 q 841 -490 844 -490 l 841 -486 l 833 -490 l 815 -490 q 800 -486 807 -490 q 789 -490 793 -490 l 789 -486 l 782 -490 l 753 -490 q 598 -500 669 -500 l 587 -500 q 543 -460 543 -493 l 539 -460 l 539 -394 l 532 -394 l 532 -390 q 536 -387 532 -387 l 532 -379 l 532 -376 q 536 -372 532 -372 l 517 -280 l 521 -280 q 498 -170 515 -259 l 503 -162 q 480 -63 488 -121 l 480 -56 q 513 -15 500 -44 q 554 37 545 10 l 591 77 l 587 85 q 536 77 549 77 l 536 81 l 528 77 q 524 81 524 77 l 506 77 l 498 77 l 480 81 l 480 117 q 473 140 480 127 q 480 161 480 152 l 480 202 q 484 206 480 206 l 480 213 l 480 228 q 484 232 480 232 l 480 239 l 484 264 l 480 264 l 484 272 q 480 276 484 276 q 488 298 488 288 l 488 456 l 492 475 l 488 475 q 492 478 488 478 l 488 496 q 510 559 503 557 q 532 618 532 611 l 532 622 l 528 622 q 433 574 442 574 q 307 508 423 562 q 237 463 250 463 q 197 441 237 453 q 153 416 197 435 q 101 467 101 435 q 64 552 94 467 l 54 585 l 57 585 l 43 614 l 46 614 q 28 695 31 659 l 31 695 q 20 762 25 713 q 24 765 20 765 l 20 784 q 31 924 24 924 l 28 924 q 43 983 31 953 q 39 994 43 986 q 98 1247 39 1074 q 164 1373 140 1312 q 222 1472 178 1381 q 433 1681 292 1588 q 539 1740 441 1706 q 686 1796 591 1769 q 712 1788 694 1796 q 848 1807 750 1796 m 800 1726 q 907 1630 886 1630 q 941 1623 933 1630 l 941 1626 q 833 1726 840 1726 q 815 1729 815 1726 q 800 1726 809 1726 m 889 1729 l 889 1726 q 1010 1615 990 1615 q 1040 1611 1036 1611 q 922 1729 1040 1616 l 889 1729 m 977 1726 q 1154 1571 1119 1571 l 1183 1553 l 1187 1553 q 1014 1726 1187 1558 l 977 1726 m 1069 1722 q 1569 1221 1259 1528 l 1566 1229 l 1566 1233 q 1569 1236 1566 1236 q 1525 1303 1569 1271 q 1109 1714 1120 1714 l 1069 1722 m 723 1711 q 826 1623 811 1623 q 844 1630 836 1630 q 756 1718 844 1635 l 730 1718 q 723 1711 723 1717 m 650 1707 l 646 1700 l 727 1623 l 753 1623 q 760 1630 760 1623 l 679 1707 l 653 1704 q 650 1707 653 1707 m 1179 1700 l 1179 1696 l 1563 1317 l 1563 1321 q 1474 1442 1563 1369 q 1235 1678 1245 1678 q 1179 1700 1182 1700 m 580 1681 q 661 1600 580 1676 q 690 1608 684 1608 q 609 1689 690 1613 l 606 1689 l 580 1681 m 517 1656 q 591 1586 580 1586 l 616 1593 q 543 1667 616 1598 l 539 1667 q 517 1656 525 1656 m 469 1615 q 521 1564 470 1610 l 528 1564 q 550 1571 536 1571 q 492 1630 550 1576 q 469 1615 477 1615 m 1338 1630 l 1338 1626 l 1514 1453 q 1338 1630 1458 1566 m 440 1593 q 421 1571 440 1592 l 462 1534 q 484 1549 484 1544 q 440 1593 484 1554 m 697 1534 q 694 1538 697 1538 q 631 1523 694 1532 q 576 1508 631 1520 l 565 1508 q 495 1472 565 1493 l 407 1424 q 274 1295 309 1340 q 252 1270 270 1295 q 237 1258 248 1258 q 201 1196 237 1244 q 134 1030 165 1125 q 131 1027 131 1030 l 134 1027 q 105 927 116 1002 q 98 854 99 927 q 94 850 98 850 q 98 846 94 846 l 94 821 l 98 806 l 90 791 q 98 762 93 762 q 94 758 98 758 l 98 739 l 98 710 q 101 707 98 707 q 98 703 101 703 q 142 519 98 656 q 153 508 151 508 q 278 578 163 508 q 480 688 284 578 q 562 725 547 713 q 594 743 581 732 l 583 798 l 583 828 q 594 898 583 857 l 591 898 l 624 979 q 631 983 624 983 l 627 989 q 760 1063 661 1039 l 786 1063 q 789 1067 789 1063 l 797 1063 q 800 1067 800 1063 l 808 1063 q 819 1067 812 1063 q 870 1056 857 1062 q 874 1059 870 1059 q 973 945 952 1004 q 988 909 973 924 l 985 901 q 992 883 992 890 q 973 809 979 817 q 977 806 973 806 q 926 677 951 677 q 856 600 926 657 q 697 534 809 563 l 683 534 q 642 515 683 525 q 580 496 642 507 q 572 482 580 482 l 580 467 q 572 460 572 466 l 572 320 q 569 316 572 316 l 572 309 l 572 283 q 565 235 572 269 l 569 235 l 565 228 l 565 176 q 668 169 648 176 q 683 173 675 173 l 709 173 l 716 176 l 716 173 q 720 176 720 173 q 730 173 724 176 q 764 176 751 176 q 768 173 768 176 l 774 176 l 955 176 q 966 187 960 176 l 966 269 q 959 298 966 272 l 959 364 q 951 382 959 382 l 955 390 q 947 431 955 394 l 947 437 q 1014 460 947 448 q 1062 471 1014 468 l 1069 467 l 1088 478 l 1128 478 q 1168 489 1136 485 q 1242 519 1168 496 q 1371 640 1318 574 q 1448 784 1420 685 q 1470 898 1470 829 l 1470 983 q 1474 997 1470 991 l 1463 1048 l 1466 1048 l 1463 1056 l 1466 1063 l 1463 1071 l 1466 1078 q 1404 1265 1437 1232 q 1319 1383 1362 1339 q 1213 1464 1272 1435 q 1088 1527 1168 1498 q 1084 1523 1088 1523 q 973 1556 1057 1546 l 970 1549 q 947 1560 947 1555 l 941 1556 q 926 1560 932 1556 q 867 1556 888 1556 l 863 1556 q 833 1564 860 1556 l 815 1564 q 812 1560 812 1564 l 804 1564 q 800 1560 800 1564 l 793 1564 q 701 1538 776 1554 q 697 1534 701 1534 m 381 1523 q 399 1505 386 1523 q 429 1516 418 1516 q 399 1546 429 1520 q 381 1523 394 1546 m 1485 1255 l 1485 1251 q 1511 1196 1491 1251 q 1518 1188 1518 1195 q 1514 1185 1514 1188 l 1566 1137 l 1569 1137 q 1573 1148 1569 1148 q 1522 1218 1573 1177 q 1485 1255 1522 1223 m 1537 1115 l 1537 1111 l 1544 1100 q 1540 1097 1544 1097 q 1558 1056 1546 1056 l 1563 1056 l 1563 1089 q 1537 1115 1563 1095 m 797 935 l 800 927 q 779 872 787 927 l 782 872 q 874 975 859 927 l 867 989 q 812 942 823 973 q 797 935 812 935 m 668 886 l 671 880 l 665 868 l 665 850 l 657 850 l 657 839 l 653 817 q 665 802 659 802 q 723 949 682 823 q 734 971 727 949 l 727 971 q 671 890 683 939 q 668 886 671 886 m 826 813 l 878 765 q 885 798 878 774 q 848 835 880 798 q 826 813 836 832 m 786 784 q 774 787 779 787 l 771 780 q 841 710 776 780 q 859 736 854 710 l 797 795 q 786 784 794 795 m 723 739 l 797 669 q 815 688 800 669 q 738 765 815 693 l 734 765 q 723 739 726 765 m 709 707 q 690 684 709 701 l 742 636 q 764 651 764 645 q 709 707 764 656 m 635 651 l 679 610 q 705 622 695 622 q 650 677 705 626 q 635 651 642 677 m 1088 408 q 1069 401 1088 401 l 1069 397 q 1109 357 1069 392 l 1117 357 q 1124 375 1117 366 l 1124 379 q 1088 408 1101 408 m 1032 382 l 1032 368 q 1047 328 1043 368 l 1076 302 q 1091 328 1091 322 l 1032 382 m 1139 99 l 1124 73 l 1158 44 q 1161 81 1158 80 l 1139 99 m 933 92 q 977 47 933 87 l 981 47 q 1003 59 981 59 q 970 92 1003 64 l 933 92 m 848 88 q 903 33 848 83 l 915 33 l 933 37 l 933 40 q 885 88 933 45 q 863 85 882 88 q 848 88 857 88 m 768 81 q 833 14 768 76 l 844 14 l 856 22 l 859 22 l 867 18 l 867 22 q 804 85 862 22 q 768 81 803 81 m 686 73 q 760 0 686 68 q 793 3 780 3 q 716 81 793 8 l 694 81 q 686 73 686 79 m 1099 52 q 1091 29 1091 39 l 1091 22 q 1139 -26 1091 17 q 1146 7 1146 -9 l 1099 52 m 665 44 l 646 22 q 679 -12 650 22 q 716 -7 680 -7 q 665 44 716 -2 m 1088 -26 l 1084 -33 l 1084 -59 q 1132 -107 1084 -64 q 1135 -70 1132 -102 l 1088 -26 m 911 -66 l 911 -63 q 885 -74 897 -66 q 882 -70 885 -70 l 882 -74 l 874 -70 l 870 -70 q 808 -81 818 -81 q 789 -77 802 -77 l 782 -81 l 782 -77 q 646 -103 754 -88 l 616 -118 q 594 -111 606 -118 q 572 -118 594 -118 l 572 -129 q 616 -328 616 -290 q 635 -435 635 -355 q 694 -416 659 -416 l 694 -420 q 764 -409 708 -414 q 774 -412 771 -412 l 782 -409 l 793 -409 l 793 -405 q 859 -394 859 -401 q 863 -397 863 -394 q 941 -372 941 -397 q 947 -342 941 -366 l 944 -342 q 955 -294 950 -327 q 951 -283 951 -288 q 988 -85 959 -264 l 992 -85 q 988 -81 992 -81 l 992 -63 l 992 -59 q 985 -56 985 -59 q 911 -66 977 -56 m 1073 -100 q 1069 -136 1073 -117 l 1120 -184 l 1124 -184 l 1124 -165 q 1128 -162 1124 -162 q 1073 -100 1128 -147 m 1062 -177 q 1055 -210 1058 -203 l 1091 -243 q 1109 -221 1097 -243 l 1062 -177 z "},"A":{"ha":1570,"x_min":20,"x_max":1550,"o":"m 1188 1710 q 1240 1503 1202 1710 q 1291 1272 1249 1503 q 1424 630 1365 892 q 1550 12 1550 22 q 1435 -217 1517 -15 q 1391 -269 1412 -269 q 1221 -317 1339 -297 q 1218 -320 1221 -320 q 1211 -313 1218 -313 l 1206 -313 q 1192 -320 1198 -320 l 1174 -317 q 1152 -328 1170 -328 l 1107 -328 q 1103 -335 1107 -335 q 1004 -353 1080 -335 q 945 -361 947 -361 q 882 -320 899 -361 l 882 -317 q 886 -313 882 -313 l 871 -269 l 875 -261 q 864 -235 868 -235 l 868 -229 q 861 -188 864 -193 l 864 -188 q 842 -70 857 -174 l 835 -62 q 838 -59 835 -59 q 820 33 833 33 l 802 33 q 776 -18 776 33 q 735 -210 741 -205 q 591 -332 669 -262 q 481 -376 534 -376 q 411 -361 461 -368 q 407 -357 411 -357 l 374 -357 q 367 -350 367 -357 l 359 -353 q 241 -332 297 -339 q 234 -324 241 -324 l 197 -324 q 46 -302 197 -317 q 20 -280 20 -294 l 46 -217 l 43 -217 q 83 -96 58 -179 q 94 -73 89 -73 l 90 -66 l 90 -59 l 116 4 l 120 4 l 120 15 q 138 71 120 22 l 134 77 q 175 218 160 151 l 219 361 q 216 365 216 361 q 227 402 223 365 q 278 571 238 457 l 275 578 q 315 689 303 689 q 370 888 345 817 q 389 954 379 954 q 385 958 389 958 l 429 1120 q 440 1157 434 1149 l 437 1157 q 485 1345 466 1255 q 488 1349 488 1345 l 485 1356 q 503 1419 493 1356 q 581 1518 520 1472 q 606 1548 581 1525 q 694 1643 665 1629 q 746 1681 694 1662 l 764 1676 l 809 1676 l 817 1673 q 820 1676 817 1676 l 820 1673 q 831 1676 827 1676 q 879 1669 842 1676 l 879 1673 l 886 1669 q 894 1676 894 1669 q 897 1673 897 1676 l 916 1676 l 923 1673 q 949 1681 942 1681 l 949 1676 q 1188 1710 1076 1710 m 794 1622 l 905 1507 l 912 1511 l 920 1511 q 923 1507 923 1511 q 941 1511 929 1511 q 823 1625 833 1625 q 794 1622 821 1625 m 967 1625 q 1023 1570 967 1620 q 1041 1592 1028 1570 l 1004 1625 l 967 1625 m 728 1603 l 728 1599 q 823 1503 731 1592 l 842 1507 l 861 1503 q 746 1617 861 1508 l 743 1617 q 728 1603 736 1617 m 886 1617 q 985 1518 887 1613 l 1000 1537 l 1000 1540 q 923 1617 1000 1546 l 886 1617 m 1111 1607 q 1096 1584 1111 1603 q 1170 1511 1096 1579 q 1126 1592 1170 1563 q 1111 1607 1126 1598 m 702 1573 q 691 1555 702 1563 l 687 1555 l 687 1552 q 750 1489 687 1547 q 779 1496 776 1496 q 702 1573 779 1501 m 1074 1552 q 1063 1529 1074 1543 q 1192 1400 1064 1524 l 1188 1408 q 1192 1422 1188 1416 q 1078 1552 1192 1448 l 1074 1552 m 643 1503 l 669 1481 l 706 1481 l 665 1526 q 643 1503 657 1525 m 1044 1496 l 1041 1478 l 1044 1478 l 1041 1470 l 1041 1467 q 1211 1293 1042 1456 l 1211 1297 q 1177 1364 1211 1345 q 1044 1496 1177 1368 m 927 1426 q 916 1430 920 1430 q 864 1415 916 1423 q 861 1419 861 1415 q 772 1400 848 1419 l 764 1404 q 761 1400 761 1404 q 732 1408 732 1402 q 661 1396 724 1402 q 650 1400 654 1400 q 570 1382 632 1394 q 543 1275 551 1321 q 540 1272 540 1275 l 543 1272 q 514 1172 527 1202 q 507 1146 514 1146 l 511 1139 q 499 1095 499 1124 l 503 1095 q 477 1017 477 1027 l 452 928 q 426 822 452 918 q 418 800 426 808 l 422 800 q 374 671 391 671 q 326 498 344 498 l 326 472 q 311 428 311 448 q 315 424 315 428 q 293 365 308 424 l 296 357 q 286 324 286 331 l 290 324 q 238 174 260 264 q 231 136 231 174 l 231 122 q 219 96 223 111 q 223 92 223 96 q 208 52 215 92 l 201 48 q 205 45 201 45 q 175 -44 205 37 l 134 -162 l 138 -162 q 127 -206 132 -180 q 186 -229 127 -226 l 186 -232 q 197 -229 193 -229 l 212 -235 l 219 -232 q 315 -254 309 -254 q 463 -273 438 -273 q 529 -62 485 -226 l 525 -62 q 566 66 547 -18 l 566 85 q 581 100 574 85 l 588 96 q 591 100 591 96 l 599 96 l 602 96 q 628 107 616 107 l 635 107 q 640 103 640 107 q 680 111 647 106 q 684 107 684 111 l 702 111 q 817 122 817 115 q 820 118 820 122 q 868 129 868 122 q 908 103 896 124 l 908 74 q 916 52 908 64 q 912 48 916 48 q 927 -7 912 -7 l 927 -18 q 923 -22 927 -22 l 949 -111 q 993 -265 975 -265 l 1056 -254 l 1056 -258 q 1221 -232 1082 -248 l 1247 -232 l 1255 -229 l 1255 -232 q 1306 -224 1274 -224 l 1306 -229 q 1339 -210 1339 -216 q 1321 -147 1339 -174 q 1291 -29 1303 -110 q 1295 -26 1295 -29 q 1262 74 1288 -26 q 1251 107 1262 86 l 1255 107 l 1244 125 q 1247 136 1247 133 q 1240 144 1240 136 q 1244 159 1244 151 q 1236 166 1236 159 q 1240 170 1240 166 q 1200 324 1231 170 q 1177 395 1200 345 q 1181 398 1181 395 l 1177 398 l 1181 406 l 1181 409 q 1170 446 1175 417 q 1152 524 1164 446 q 1129 616 1143 572 q 1133 619 1129 619 q 1107 733 1122 682 l 1111 741 q 1100 770 1102 770 l 1103 778 l 1103 792 q 1074 899 1093 799 l 1059 940 q 1063 943 1063 940 l 1059 943 q 1063 954 1063 951 q 1037 1065 1041 1012 q 1026 1098 1032 1065 l 1030 1098 q 1011 1179 1023 1112 l 1008 1179 l 1011 1187 l 1011 1190 l 1008 1198 l 1011 1198 q 1004 1234 1008 1206 q 1011 1242 1011 1234 q 989 1319 999 1242 l 993 1319 l 971 1430 l 964 1434 q 927 1426 933 1430 m 1059 1393 l 1059 1390 q 1082 1331 1065 1390 l 1232 1183 l 1232 1187 q 1192 1260 1221 1246 q 1059 1393 1192 1265 m 1093 1272 l 1093 1264 q 1103 1234 1093 1253 l 1100 1234 q 1255 1072 1100 1220 l 1247 1095 l 1251 1095 q 1203 1161 1251 1124 q 1093 1272 1203 1165 m 1118 1157 l 1118 1149 q 1155 1084 1118 1105 q 1273 966 1156 1078 l 1273 969 q 1221 1054 1273 1019 q 1118 1157 1221 1059 m 1133 1054 q 1141 1017 1141 1027 l 1137 1017 q 1303 848 1137 1007 l 1303 851 q 1251 936 1288 914 q 1133 1054 1251 941 m 1152 947 l 1152 943 q 1159 928 1154 928 l 1155 922 q 1273 789 1155 896 q 1329 733 1273 784 l 1329 737 q 1303 800 1321 783 l 1152 947 m 753 907 l 758 907 q 812 800 812 873 q 871 465 827 737 q 857 457 866 465 q 846 460 850 460 l 846 457 l 838 460 l 831 457 q 827 460 831 460 q 802 446 821 446 l 776 446 l 776 439 l 750 439 q 717 428 730 439 l 673 428 q 661 465 661 454 q 684 560 661 487 q 676 568 676 560 l 684 568 l 684 586 l 687 608 q 684 619 684 615 q 694 652 691 619 q 709 715 703 652 l 709 733 l 717 745 l 717 792 q 728 840 723 798 l 732 840 l 728 848 q 753 907 741 907 m 1174 837 l 1174 829 q 1203 766 1180 785 l 1350 623 q 1306 704 1350 675 q 1174 837 1306 709 m 1192 730 l 1192 722 q 1225 656 1198 677 l 1376 509 q 1321 601 1376 560 q 1192 730 1320 606 m 1211 623 l 1211 619 q 1240 553 1218 571 l 1398 398 q 1339 494 1398 450 q 1211 623 1338 500 m 746 557 l 743 549 l 743 524 q 758 512 743 518 q 776 516 764 516 l 776 527 q 746 557 776 532 m 1232 512 l 1232 509 q 1244 468 1244 481 q 1240 465 1240 468 l 1424 284 l 1424 288 q 1383 361 1412 347 q 1232 512 1381 368 m 1255 402 q 1317 302 1255 350 q 1453 166 1317 298 l 1453 170 q 1417 239 1439 233 q 1255 402 1417 245 m 1284 284 q 1329 203 1284 230 q 1483 48 1331 195 q 1461 107 1466 107 q 1284 284 1458 115 m 1303 177 l 1303 174 l 1306 166 q 1303 162 1303 166 l 1310 159 l 1306 151 q 1350 89 1310 128 l 1457 -14 q 1468 7 1457 -5 l 1468 12 q 1303 177 1468 16 m 1336 56 q 1391 -37 1336 4 q 1428 -73 1391 -41 q 1442 -55 1428 -58 l 1442 -52 q 1336 56 1442 -47 m 640 7 q 699 -52 640 3 l 702 -52 q 699 -47 702 -47 l 706 -18 l 665 18 q 640 7 640 15 m 625 -29 q 617 -62 625 -35 l 691 -132 l 691 -96 q 625 -29 691 -91 m 1362 -59 q 1383 -121 1375 -113 l 1406 -140 l 1417 -111 l 1362 -59 m 610 -103 q 602 -136 602 -120 l 661 -191 l 665 -191 q 676 -176 665 -183 l 680 -176 l 680 -173 q 610 -103 680 -168 m 591 -173 l 588 -180 l 588 -206 q 617 -235 588 -211 l 632 -217 l 632 -214 q 591 -173 632 -208 z "},"B":{"ha":1478,"x_min":20,"x_max":1457,"o":"m 728 1761 q 746 1757 734 1757 l 772 1761 l 779 1757 l 787 1761 q 835 1754 796 1761 l 835 1757 q 1026 1702 943 1743 q 1030 1706 1026 1706 q 1107 1672 1030 1701 q 1314 1455 1219 1615 q 1376 1234 1376 1309 l 1376 1201 q 1284 977 1352 1058 q 1177 836 1234 923 q 1137 803 1145 803 l 1137 800 q 1306 656 1303 656 q 1447 406 1402 557 q 1457 273 1453 370 q 1421 136 1445 205 q 1347 26 1420 113 q 1262 -89 1347 14 q 1200 -162 1252 -89 q 1085 -265 1164 -213 q 1004 -313 1017 -300 q 1000 -309 1004 -309 q 953 -332 1000 -315 q 835 -368 953 -339 l 827 -365 q 761 -380 774 -374 q 758 -376 758 -380 l 720 -380 l 625 -380 q 610 -376 616 -380 q 606 -380 606 -376 q 429 -347 429 -365 q 286 -309 286 -326 l 282 -309 q 278 -313 282 -313 q 264 -302 278 -308 q 260 -306 264 -306 q 186 -273 251 -294 q 57 -188 119 -250 q 24 -159 38 -159 l 24 -133 q 20 -121 24 -121 l 24 -103 l 24 132 l 28 140 l 24 140 q 28 144 24 144 l 24 162 l 24 199 q 28 203 24 203 l 24 210 l 24 224 q 28 229 24 229 q 24 232 28 232 l 28 250 q 24 258 28 258 l 28 276 l 28 295 q 24 298 28 298 l 28 306 l 28 394 q 31 398 28 398 q 28 401 31 401 l 31 427 l 31 726 q 35 730 31 730 l 31 736 l 31 774 q 35 777 31 777 l 31 785 l 31 795 q 35 800 31 800 q 31 803 35 803 l 35 829 l 35 995 q 39 998 35 998 l 35 1006 l 35 1120 q 39 1135 35 1128 q 35 1149 35 1141 l 35 1168 l 39 1186 l 35 1186 l 39 1194 q 35 1198 39 1198 l 39 1204 q 35 1208 39 1208 l 39 1216 l 39 1304 q 43 1308 39 1308 l 39 1315 q 234 1658 229 1656 q 315 1687 242 1658 q 404 1713 319 1687 q 407 1710 404 1710 q 411 1713 407 1713 l 411 1710 q 481 1728 440 1724 l 481 1724 q 511 1735 511 1733 l 517 1731 q 640 1754 550 1742 l 640 1750 q 694 1757 643 1754 l 694 1754 l 728 1761 m 647 1691 q 758 1588 742 1588 q 790 1581 777 1588 l 790 1584 q 680 1695 790 1589 l 673 1695 l 647 1691 m 732 1695 q 882 1551 868 1551 q 930 1533 918 1544 l 930 1536 q 768 1691 774 1691 l 732 1695 m 570 1680 q 673 1595 642 1595 l 687 1595 l 687 1599 l 602 1687 q 570 1680 575 1680 m 831 1684 l 831 1680 q 1056 1466 1045 1466 q 1159 1352 1126 1407 l 1273 1242 l 1273 1278 q 875 1672 886 1672 q 831 1684 867 1676 m 496 1669 l 496 1666 l 566 1592 q 602 1595 585 1595 q 522 1672 531 1672 l 496 1669 m 426 1651 l 426 1647 q 496 1577 426 1642 q 525 1588 525 1581 q 455 1658 520 1588 q 426 1651 436 1651 m 355 1625 l 426 1558 q 455 1566 433 1566 l 385 1640 q 355 1625 355 1630 m 964 1640 l 964 1636 l 1258 1345 l 1258 1348 q 1037 1603 1258 1396 q 964 1640 1029 1603 m 296 1603 l 296 1599 l 355 1536 q 389 1544 383 1544 l 323 1614 q 296 1603 304 1603 m 271 1573 l 256 1548 l 293 1514 q 319 1525 319 1518 q 271 1573 319 1531 m 323 1422 l 323 1426 q 275 1404 306 1413 q 182 1360 192 1360 q 131 1315 182 1354 q 127 1304 127 1308 q 134 1286 127 1286 l 123 1242 q 127 1230 123 1238 q 116 1076 116 1088 q 120 1054 120 1070 l 116 1054 l 120 1046 l 120 1039 q 116 1024 120 1031 q 120 1013 120 1017 l 116 1013 l 120 1006 l 120 1002 l 116 995 l 120 995 l 116 987 q 120 983 116 983 l 116 977 l 120 969 q 116 965 120 965 l 120 951 l 116 892 l 120 892 l 116 884 l 120 877 l 116 877 q 123 847 123 863 q 116 840 123 840 l 123 821 q 116 814 116 821 q 120 810 116 810 l 116 792 l 116 789 q 120 785 116 785 l 116 777 l 116 759 q 120 755 116 755 l 116 748 l 116 715 q 113 711 116 711 l 116 704 l 116 685 q 113 671 116 677 q 116 659 116 663 q 113 656 113 659 l 116 656 l 113 648 q 116 633 116 642 l 113 633 l 116 626 l 116 623 q 113 619 116 619 l 120 582 q 116 578 116 582 q 123 571 123 577 l 120 571 q 123 568 120 568 l 120 549 q 123 519 123 523 l 120 512 l 123 505 l 120 497 q 123 486 123 490 q 120 483 120 486 q 123 479 123 483 l 120 479 l 123 471 q 120 438 120 452 l 123 438 l 120 431 l 120 420 q 123 416 120 416 q 116 332 116 397 l 116 106 q 113 103 116 103 q 120 26 120 83 l 120 15 q 113 -30 120 -30 l 116 -37 l 116 -56 q 113 -59 116 -59 q 120 -81 120 -71 l 120 -121 q 149 -144 132 -121 q 182 -162 158 -144 l 300 -221 q 304 -218 300 -218 q 532 -288 314 -235 l 562 -288 q 625 -302 570 -294 l 628 -302 q 661 -295 637 -302 l 676 -302 l 699 -295 q 702 -298 702 -295 l 720 -295 l 753 -295 q 812 -283 759 -288 q 838 -273 812 -275 q 842 -277 838 -277 q 890 -258 842 -270 q 894 -262 890 -262 q 941 -239 894 -251 q 1100 -136 1004 -210 q 1181 -33 1123 -124 q 1232 140 1232 50 l 1232 162 q 1225 232 1229 232 l 1229 232 q 1170 416 1208 366 q 1100 505 1151 460 l 1052 556 q 979 612 999 573 q 897 656 954 627 q 817 704 859 673 l 809 704 q 886 733 809 711 q 941 762 917 744 q 982 785 953 762 q 1096 913 1096 884 l 1093 913 q 1103 936 1097 936 l 1100 943 q 1133 1050 1107 958 l 1129 1050 q 1141 1087 1141 1079 l 1137 1105 l 1144 1109 q 1137 1124 1141 1124 l 1141 1142 l 1141 1149 q 1137 1153 1141 1153 q 1141 1157 1137 1157 l 1137 1175 l 1141 1190 q 1129 1194 1133 1194 l 1129 1223 q 1056 1356 1092 1311 l 1008 1415 q 835 1489 897 1473 q 739 1507 800 1499 q 735 1510 739 1510 q 732 1507 732 1510 l 724 1510 l 717 1510 q 713 1507 713 1510 q 684 1514 700 1514 l 676 1514 q 400 1455 596 1514 l 323 1422 m 1206 1257 l 1206 1253 l 1229 1194 l 1280 1146 q 1251 1212 1280 1198 q 1206 1257 1251 1217 m 547 1146 q 669 1105 625 1146 q 699 1024 699 1046 l 694 1024 l 699 1017 q 694 1013 699 1013 l 699 1006 q 669 943 677 972 q 566 877 606 877 l 511 859 q 488 892 491 859 q 492 906 492 898 l 492 910 q 485 939 492 913 l 488 939 q 485 943 488 943 l 488 962 q 485 977 485 975 l 488 977 q 477 1013 485 1013 q 481 1024 481 1020 l 477 1039 l 481 1046 l 477 1054 l 481 1087 q 473 1109 473 1099 l 473 1113 q 540 1142 488 1142 q 547 1146 540 1146 m 1232 1142 l 1232 1116 q 1258 1080 1232 1096 q 1270 1109 1270 1098 l 1232 1142 m 562 1017 l 562 1006 l 566 998 l 562 998 q 576 965 567 965 q 591 991 576 972 l 562 1017 m 1074 733 q 1324 483 1213 589 q 1203 645 1299 551 q 1089 741 1114 735 l 1082 741 q 1074 733 1074 739 m 1041 715 q 1023 696 1041 712 q 1369 350 1365 351 l 1369 376 q 1232 523 1369 396 q 1041 715 1227 534 m 543 427 q 547 424 547 427 l 573 427 q 706 401 706 420 l 713 401 l 720 406 q 779 324 766 376 q 783 306 779 306 q 772 276 772 279 l 776 269 q 728 147 761 191 q 658 103 701 117 q 540 62 658 83 l 532 74 l 532 114 q 536 118 532 118 l 532 125 l 532 129 q 536 140 532 140 l 532 158 l 532 236 l 525 262 q 529 265 529 262 l 525 265 l 529 273 l 529 280 q 525 283 529 283 l 529 291 l 529 321 q 525 324 529 324 l 529 332 l 529 342 q 522 372 529 346 l 522 376 q 525 379 522 379 l 522 387 l 522 416 q 543 427 522 422 m 1284 383 q 1321 309 1304 309 q 1376 254 1321 304 l 1376 258 q 1339 328 1376 307 q 1284 383 1339 332 m 606 339 q 595 332 606 332 l 595 328 q 676 247 595 323 l 684 247 l 684 276 q 621 339 684 281 l 621 335 l 614 339 l 606 339 m 595 276 l 591 269 l 591 243 q 643 191 592 238 q 661 210 648 191 q 595 276 661 215 m 1310 265 q 1332 210 1320 210 q 1354 188 1332 205 q 1365 217 1365 190 l 1314 265 l 1310 265 m 1317 173 q 1314 136 1317 137 q 1332 121 1330 121 q 1343 151 1343 137 q 1317 173 1319 173 z "},"C":{"ha":1444,"x_min":21,"x_max":1405,"o":"m 1137 1704 l 1278 1674 q 1362 1630 1362 1645 q 1379 1592 1375 1611 q 1335 1354 1373 1531 q 1294 1082 1292 1120 l 1295 1060 q 1200 928 1248 1002 q 1093 766 1177 905 q 1062 783 1090 766 l 1062 779 q 1006 802 1016 793 l 999 799 l 924 805 q 916 813 917 806 q 825 791 891 800 q 782 667 810 793 q 771 606 770 637 l 776 587 q 773 583 772 587 q 795 509 781 583 q 909 392 841 398 q 1172 562 972 387 q 1305 680 1219 595 l 1350 727 q 1388 709 1387 722 q 1396 628 1390 660 l 1402 430 l 1398 430 l 1402 422 q 1397 387 1403 407 l 1402 363 l 1402 360 l 1400 342 l 1403 341 l 1398 313 q 1402 298 1402 306 l 1400 283 l 1404 276 q 1401 148 1396 277 l 1405 140 q 1348 -2 1400 113 q 1265 -218 1296 -125 q 987 -318 1192 -262 l 966 -316 q 919 -334 966 -325 l 919 -338 l 911 -334 l 857 -347 q 853 -343 857 -343 q 806 -351 853 -351 l 806 -347 q 758 -354 798 -351 l 750 -349 l 732 -352 l 732 -348 l 724 -351 l 662 -346 l 654 -341 l 654 -345 l 646 -340 l 643 -340 q 625 -343 630 -339 l 602 -337 l 572 -334 l 561 -326 l 528 -323 l 501 -318 q 498 -321 502 -321 q 414 -285 498 -315 l 414 -281 l 407 -284 q 261 -184 376 -275 q 186 -97 202 -135 q 121 -11 175 -81 l 85 83 l 90 83 q 67 140 68 130 l 71 140 l 66 148 q 71 151 66 151 q 52 203 58 203 l 51 218 q 26 429 33 296 q 45 673 21 557 q 58 698 48 673 l 54 699 q 79 773 53 713 q 149 943 79 780 q 286 1177 201 1065 q 401 1337 337 1258 q 494 1435 406 1336 q 672 1588 518 1461 q 766 1632 687 1588 q 1137 1704 962 1697 m 1094 1627 q 1216 1503 1095 1622 l 1229 1524 q 1127 1628 1225 1532 l 1094 1627 m 1179 1623 q 1250 1551 1179 1618 l 1253 1551 q 1267 1572 1253 1558 q 1179 1623 1226 1619 m 1020 1618 q 1182 1454 1023 1611 l 1195 1479 q 1053 1623 1190 1479 q 1020 1618 1047 1619 m 977 1615 q 966 1605 977 1608 l 958 1609 q 951 1602 951 1609 l 1144 1410 l 1148 1410 q 1162 1419 1156 1420 l 1162 1427 q 977 1615 1162 1432 m 890 1588 l 890 1585 q 1055 1428 1035 1430 q 1097 1410 1073 1427 l 1096 1414 l 916 1594 q 890 1588 905 1588 m 828 1565 q 935 1464 919 1466 q 968 1454 960 1462 l 972 1453 q 854 1573 971 1458 l 828 1565 m 771 1547 l 772 1539 q 846 1464 772 1535 q 875 1472 873 1461 l 793 1553 q 771 1547 778 1547 m 739 1525 q 722 1508 721 1511 q 769 1459 722 1502 q 798 1465 772 1459 q 739 1525 798 1469 m 697 1484 l 680 1463 q 700 1443 686 1463 q 729 1455 729 1449 l 697 1484 m 1251 1419 q 1237 1395 1251 1412 l 1269 1367 l 1270 1403 q 1251 1419 1267 1403 m 787 1381 l 787 1385 q 684 1350 724 1371 q 486 1245 622 1336 q 429 1192 429 1196 q 382 1147 422 1192 q 256 964 304 1069 q 198 825 227 926 q 156 723 188 826 q 140 669 156 715 l 121 608 q 109 420 108 543 q 157 158 117 293 l 218 21 q 325 -130 281 -84 q 395 -181 364 -170 q 488 -222 396 -192 q 526 -231 489 -229 l 534 -232 q 595 -252 535 -247 q 603 -260 596 -260 q 618 -258 612 -261 q 629 -262 625 -262 l 629 -259 l 636 -263 q 640 -260 640 -263 l 648 -264 l 682 -267 q 685 -264 685 -267 l 693 -268 l 696 -268 q 701 -265 701 -269 l 709 -269 l 712 -269 l 719 -267 q 723 -270 720 -270 q 726 -267 722 -267 l 727 -271 l 734 -268 q 746 -272 741 -272 q 757 -270 753 -269 q 761 -273 757 -273 q 812 -263 760 -265 l 812 -267 q 901 -252 884 -260 l 909 -257 q 986 -233 937 -259 q 1165 -162 1077 -204 q 1196 -125 1198 -146 l 1196 -121 q 1187 -92 1195 -105 l 1190 -92 l 1186 -84 l 1186 -80 q 1190 -77 1186 -77 q 1185 -73 1189 -73 q 1187 77 1194 -22 l 1191 77 q 1187 81 1191 81 l 1190 100 l 1183 210 q 1181 283 1181 234 l 1174 283 q 1021 211 1030 210 q 865 158 928 153 l 865 161 l 857 159 l 785 164 l 778 168 l 778 165 q 581 277 650 210 q 484 446 504 351 q 468 517 470 517 l 471 524 l 470 532 q 466 547 470 540 l 475 594 l 471 594 q 484 625 475 626 q 479 630 483 629 q 486 659 479 637 l 481 659 q 571 768 541 771 q 625 812 570 778 q 661 838 643 817 q 781 894 688 864 l 781 890 q 854 910 794 902 q 870 905 862 905 l 878 904 q 880 908 881 904 q 922 897 889 904 l 922 901 q 1038 858 975 885 l 1041 857 l 1040 883 q 1054 1011 1048 882 l 1072 1093 q 1067 1105 1067 1101 q 1075 1152 1074 1104 q 1078 1155 1079 1151 l 1074 1163 q 1100 1293 1093 1221 q 1109 1332 1107 1292 q 1112 1336 1112 1332 l 1112 1343 q 1058 1369 1111 1352 q 955 1393 981 1376 l 951 1393 q 947 1390 947 1394 l 940 1394 l 928 1395 q 787 1381 888 1387 m 1217 1367 q 1204 1347 1217 1360 l 1255 1298 l 1259 1331 l 1221 1367 l 1217 1367 m 1187 1318 q 1181 1286 1188 1302 l 1240 1230 q 1246 1262 1246 1246 l 1187 1318 m 1180 1242 l 1175 1217 q 1230 1158 1176 1207 l 1233 1175 l 1232 1190 q 1180 1242 1232 1195 m 1171 1169 q 1165 1137 1168 1144 l 1212 1093 q 1225 1118 1220 1092 l 1171 1169 m 1160 1097 q 1159 1060 1159 1065 q 1179 1044 1177 1044 l 1182 1044 q 1196 1065 1181 1052 l 1160 1097 m 655 699 q 645 675 644 687 q 688 631 646 669 q 694 663 688 647 l 655 699 m 612 622 l 678 558 q 680 595 677 576 l 625 647 q 612 622 617 648 m 603 587 q 593 562 592 574 q 692 462 593 556 l 690 477 l 673 519 l 603 587 m 1310 489 q 1299 467 1310 480 l 1300 464 q 1335 428 1300 459 l 1335 431 l 1332 431 q 1335 443 1335 439 l 1331 450 q 1333 461 1333 457 q 1310 489 1326 479 m 585 522 q 579 496 585 515 q 831 237 580 486 l 842 237 l 861 239 l 860 243 q 585 522 735 374 m 1284 432 l 1270 408 l 1333 347 q 1335 384 1331 372 l 1284 432 m 1086 392 q 1122 356 1087 387 q 1139 377 1135 362 q 1112 401 1137 377 q 1086 392 1096 391 m 1253 380 q 1244 351 1244 365 l 1331 267 q 1332 303 1330 272 l 1253 380 m 606 418 q 687 298 624 358 q 753 252 720 262 l 753 255 q 775 245 768 246 q 606 418 772 253 m 1038 356 q 1065 328 1043 355 q 1090 336 1080 338 l 1090 340 q 1059 372 1090 345 q 1038 356 1037 361 m 972 343 q 1015 299 972 338 q 1037 312 1015 307 q 1001 348 1036 317 q 972 343 978 342 m 802 353 l 802 350 l 897 250 q 930 258 930 252 q 854 335 925 258 l 848 331 q 844 336 844 332 l 836 332 q 809 353 810 345 l 802 353 m 910 326 l 911 323 q 962 271 911 317 q 983 287 983 281 l 936 332 q 910 326 926 325 m 1247 303 l 1248 300 q 1253 277 1253 279 q 1250 263 1249 271 l 1333 182 l 1330 219 q 1247 303 1330 224 m 1253 215 l 1255 178 q 1314 118 1256 174 q 1324 147 1324 136 l 1253 215 m 1262 122 l 1263 104 q 1289 62 1265 75 l 1292 61 q 1297 90 1292 64 l 1262 122 z "},"D":{"ha":1430,"x_min":20,"x_max":1409,"o":"m 588 1654 q 735 1651 680 1651 q 772 1643 745 1651 l 772 1647 q 812 1636 812 1638 q 817 1640 817 1636 q 1052 1555 971 1600 q 1336 1234 1246 1440 q 1409 943 1409 1082 l 1409 825 q 1406 821 1409 821 l 1409 814 l 1409 810 q 1406 807 1409 807 q 1409 795 1409 800 q 1406 785 1406 789 l 1409 785 l 1406 777 q 1409 774 1406 774 q 1402 736 1406 765 q 1406 733 1406 736 q 1398 726 1398 732 q 1402 722 1398 722 q 1362 534 1383 602 q 1291 383 1348 517 q 1218 273 1264 350 l 1126 144 q 1041 41 1082 77 q 956 -41 1025 14 q 923 -70 956 -47 q 702 -192 794 -156 q 581 -232 669 -214 l 558 -239 l 558 -236 q 525 -247 525 -240 l 517 -243 q 470 -258 470 -253 l 466 -258 l 466 -254 l 459 -258 l 414 -258 l 407 -262 l 407 -258 q 378 -265 394 -265 q 330 -254 378 -258 l 330 -258 q 319 -251 319 -254 q 315 -254 315 -251 q 212 -221 243 -239 l 205 -225 q 98 -192 176 -211 q 61 -173 98 -185 q 28 -151 28 -159 q 20 -147 28 -147 l 24 -129 l 24 -62 q 28 -48 24 -54 q 24 -30 24 -42 q 28 0 24 -26 l 24 0 l 28 7 q 24 11 28 11 l 28 18 l 28 22 q 24 37 28 31 q 28 48 28 44 l 24 48 l 28 55 q 24 66 24 62 q 28 77 28 73 l 24 77 l 28 85 q 24 100 24 91 q 28 103 28 100 l 24 103 l 28 111 l 28 129 q 24 144 28 137 q 28 158 28 150 l 28 173 q 20 188 20 182 q 28 210 28 200 l 28 239 q 31 243 28 243 l 28 250 l 28 265 q 31 280 28 273 l 28 288 l 31 295 l 28 302 q 43 387 35 318 q 35 406 39 406 l 43 457 l 35 460 l 43 479 q 39 490 39 486 l 43 497 l 39 505 q 43 509 39 509 l 39 534 l 39 545 l 43 564 l 39 564 l 43 571 l 43 578 l 39 586 l 43 586 q 39 589 43 589 l 43 608 l 43 678 q 39 682 43 682 l 43 689 l 43 726 l 50 736 l 46 755 q 50 759 50 755 l 46 759 q 54 781 50 781 q 46 803 50 803 l 50 821 l 50 847 l 57 859 l 57 880 l 54 888 q 57 892 57 888 l 54 892 q 57 903 57 899 q 54 906 57 906 l 64 1017 q 61 1031 61 1023 l 64 1031 q 61 1036 64 1036 q 68 1153 68 1117 l 72 1153 l 68 1160 q 72 1175 72 1167 l 68 1175 l 72 1183 l 72 1234 q 75 1267 72 1254 q 72 1304 72 1286 l 72 1341 q 102 1396 72 1352 q 168 1470 102 1409 q 186 1496 168 1474 q 231 1529 186 1500 q 278 1581 231 1544 q 466 1643 278 1604 q 522 1651 494 1643 q 525 1647 525 1651 q 588 1654 575 1654 m 584 1588 q 798 1381 782 1381 q 842 1367 830 1367 q 617 1592 785 1428 q 614 1588 617 1588 l 614 1592 q 584 1588 610 1588 m 673 1588 q 997 1275 977 1276 q 1181 1083 1078 1232 q 1303 958 1181 1073 l 1303 965 q 1262 1036 1303 1010 q 709 1584 721 1583 q 673 1588 692 1584 m 503 1581 q 676 1415 661 1415 q 713 1407 686 1415 q 536 1584 710 1415 l 503 1581 m 426 1569 q 573 1430 557 1430 q 606 1426 593 1426 l 459 1577 q 426 1569 451 1573 m 779 1569 q 1288 1061 1006 1339 q 1247 1142 1279 1116 q 820 1562 827 1562 q 779 1569 806 1562 m 381 1562 q 359 1548 381 1555 q 477 1437 462 1437 l 507 1437 q 381 1562 504 1444 m 894 1544 q 1255 1183 1081 1352 l 1255 1186 q 1211 1267 1228 1250 q 938 1533 945 1532 q 894 1544 927 1533 m 311 1507 q 374 1444 311 1502 l 411 1444 q 330 1525 411 1449 q 311 1507 325 1525 m 282 1485 l 264 1463 l 293 1437 l 326 1440 q 282 1485 326 1446 m 318 1341 q 314 1345 314 1341 q 153 1315 223 1338 l 153 1252 q 157 1249 153 1249 l 153 1241 l 153 1203 q 149 1124 153 1173 l 153 1117 l 146 1098 q 149 1095 146 1095 q 142 1065 147 1065 q 149 1024 146 1024 l 146 1016 l 153 1004 l 153 994 q 149 990 153 990 l 153 983 q 142 900 145 974 q 146 810 146 832 q 142 806 146 806 l 146 787 l 146 777 q 115 387 127 459 l 119 365 l 119 338 q 112 290 119 307 q 115 279 112 286 q 112 218 112 241 l 112 193 q 115 189 112 189 l 112 181 l 112 163 q 104 84 112 104 q 109 80 104 80 l 104 54 l 104 9 q 109 5 104 5 l 104 -2 q 109 -6 104 -6 l 104 -13 l 112 -24 l 112 -32 q 104 -73 104 -68 l 104 -99 q 168 -130 104 -108 q 273 -163 175 -137 l 273 -159 l 329 -171 l 366 -171 q 397 -178 393 -178 l 408 -178 q 576 -140 452 -178 q 610 -122 604 -126 q 614 -125 610 -125 q 722 -85 621 -117 q 812 -32 793 -47 q 846 -9 846 -14 l 932 50 q 987 100 932 56 q 1047 163 998 117 q 1141 342 1141 279 q 1167 447 1155 359 l 1164 447 q 1178 473 1173 473 l 1175 481 q 1198 578 1190 570 l 1198 589 q 1194 593 1198 593 q 1201 638 1196 603 q 1198 664 1198 653 q 1201 667 1198 667 l 1198 687 l 1198 705 q 1201 709 1198 709 l 1198 717 l 1198 720 q 1183 836 1198 772 q 1186 840 1186 836 q 1175 863 1181 840 q 1178 866 1175 866 q 1126 1024 1177 898 q 1115 1042 1126 1034 q 1118 1053 1118 1049 q 867 1249 1036 1183 q 643 1322 835 1275 l 519 1345 q 516 1341 516 1345 q 452 1349 465 1346 q 449 1345 449 1349 l 430 1349 l 422 1349 q 418 1345 418 1349 l 412 1349 l 326 1349 q 318 1341 318 1348 m 1232 977 q 1277 892 1241 922 l 1310 862 l 1310 899 q 1232 977 1310 904 m 529 884 l 536 880 q 540 884 536 884 l 540 880 q 543 884 543 880 q 713 829 671 866 q 783 751 741 814 q 823 597 806 717 l 823 582 q 805 527 819 582 q 790 494 800 527 q 764 446 776 484 q 750 431 760 446 q 717 401 717 408 l 709 398 q 706 401 709 401 q 676 376 706 379 q 632 350 676 371 q 621 339 632 339 q 617 342 621 342 q 525 309 610 326 q 496 332 496 321 q 511 574 503 574 q 503 582 503 574 l 503 630 q 499 645 503 638 q 503 656 503 652 q 499 659 503 659 l 503 678 l 503 789 l 511 800 l 503 810 q 529 884 509 884 m 1265 854 l 1265 847 q 1273 814 1265 838 q 1270 810 1270 814 l 1306 777 q 1310 789 1310 785 l 1306 795 q 1310 807 1310 803 q 1265 854 1310 817 m 581 829 q 584 825 581 825 l 581 807 q 584 803 581 803 l 581 795 q 739 637 583 788 q 732 659 735 659 l 735 667 q 584 829 735 688 l 581 829 m 1280 748 q 1288 726 1284 726 l 1284 718 q 1288 704 1288 712 q 1299 736 1296 704 l 1284 748 l 1280 748 m 576 744 q 610 678 576 696 q 735 553 613 670 q 743 574 735 566 l 743 582 q 581 744 743 587 l 576 744 m 576 656 l 581 648 q 576 645 581 645 q 617 582 576 610 q 706 494 617 577 l 709 494 q 720 519 720 515 l 581 656 l 576 656 m 584 560 l 581 542 l 581 530 q 669 442 581 526 l 687 460 q 588 560 687 465 l 584 560 m 581 479 l 576 460 q 617 401 576 440 q 643 420 643 414 l 581 479 z "}}}
